<svg width="1440" height="1306" viewBox="0 0 1440 1306" fill="none" xmlns="http://www.w3.org/2000/svg">
<g opacity="0.6" clip-path="url(#clip0_92_1596)">
<path opacity="0.3" d="M300.024 113.263C306.294 111.931 312.456 115.933 313.789 122.202L318.755 121.147C316.84 112.134 307.981 106.382 298.969 108.297L300.024 113.263Z" fill="white"/>
<path opacity="0.1" d="M181.031 104.517C191.085 102.379 200.968 108.798 203.105 118.852L211.069 117.159C207.997 102.706 193.791 93.4805 179.338 96.5525L181.031 104.517Z" fill="white"/>
<path opacity="0.1" d="M307.908 434.769C317.924 432.457 327.917 438.702 330.229 448.717L338.163 446.886C334.839 432.489 320.474 423.512 306.077 426.836L307.908 434.769Z" fill="white"/>
<path opacity="0.1" d="M200.768 551.538C201.842 541.315 211 533.899 221.223 534.974L222.074 526.876C207.379 525.332 194.215 535.992 192.671 550.687L200.768 551.538Z" fill="white"/>
<path opacity="0.1" d="M320.356 526.127C329.818 522.11 340.744 526.525 344.761 535.987L352.255 532.805C346.482 519.204 330.776 512.859 317.175 518.632L320.356 526.127Z" fill="white"/>
<path opacity="0.1" fill-rule="evenodd" clip-rule="evenodd" d="M133.25 153.579C137.456 153.579 140.866 150.17 140.866 145.964C140.866 141.758 137.456 138.348 133.25 138.348C129.044 138.348 125.635 141.758 125.635 145.964C125.635 150.17 129.044 153.579 133.25 153.579Z" fill="white"/>
<path opacity="0.1" fill-rule="evenodd" clip-rule="evenodd" d="M30.4612 104.079C34.6671 104.079 38.0767 100.669 38.0767 96.4632C38.0767 92.2572 34.6671 88.8477 30.4612 88.8477C26.2553 88.8477 22.8457 92.2572 22.8457 96.4632C22.8457 100.669 26.2553 104.079 30.4612 104.079Z" fill="white"/>
<path opacity="0.1" fill-rule="evenodd" clip-rule="evenodd" d="M106.617 15.231C110.823 15.231 114.233 11.8214 114.233 7.6155C114.233 3.40957 110.823 0 106.617 0C102.412 0 99.002 3.40957 99.002 7.6155C99.002 11.8214 102.412 15.231 106.617 15.231Z" fill="white"/>
<path opacity="0.1" fill-rule="evenodd" clip-rule="evenodd" d="M431.545 29.1929C435.751 29.1929 439.161 25.7833 439.161 21.5774C439.161 17.3715 435.751 13.9619 431.545 13.9619C427.339 13.9619 423.93 17.3715 423.93 21.5774C423.93 25.7833 427.339 29.1929 431.545 29.1929Z" fill="white"/>
<path opacity="0.1" fill-rule="evenodd" clip-rule="evenodd" d="M191.657 624.471C195.862 624.471 199.272 621.061 199.272 616.855C199.272 612.649 195.862 609.24 191.657 609.24C187.451 609.24 184.041 612.649 184.041 616.855C184.041 621.061 187.451 624.471 191.657 624.471Z" fill="white"/>
<path opacity="0.1" fill-rule="evenodd" clip-rule="evenodd" d="M229.735 729.818C233.941 729.818 237.35 726.409 237.35 722.203C237.35 717.997 233.941 714.587 229.735 714.587C225.529 714.587 222.119 717.997 222.119 722.203C222.119 726.409 225.529 729.818 229.735 729.818Z" fill="white"/>
<path opacity="0.1" fill-rule="evenodd" clip-rule="evenodd" d="M336.352 802.166C340.558 802.166 343.967 798.756 343.967 794.55C343.967 790.344 340.558 786.935 336.352 786.935C332.146 786.935 328.736 790.344 328.736 794.55C328.736 798.756 332.146 802.166 336.352 802.166Z" fill="white"/>
<path opacity="0.1" fill-rule="evenodd" clip-rule="evenodd" d="M317.313 613.047C321.519 613.047 324.928 609.638 324.928 605.432C324.928 601.226 321.519 597.816 317.313 597.816C313.107 597.816 309.697 601.226 309.697 605.432C309.697 609.638 313.107 613.047 317.313 613.047Z" fill="white"/>
<path opacity="0.1" fill-rule="evenodd" clip-rule="evenodd" d="M251.311 77.4244C255.517 77.4244 258.926 74.0148 258.926 69.8089C258.926 65.6029 255.517 62.1934 251.311 62.1934C247.105 62.1934 243.695 65.6029 243.695 69.8089C243.695 74.0148 247.105 77.4244 251.311 77.4244Z" fill="white"/>
<path opacity="0.1" fill-rule="evenodd" clip-rule="evenodd" d="M384.582 151.041C388.788 151.041 392.198 147.631 392.198 143.425C392.198 139.219 388.788 135.81 384.582 135.81C380.376 135.81 376.967 139.219 376.967 143.425C376.967 147.631 380.376 151.041 384.582 151.041Z" fill="white"/>
<path opacity="0.1" fill-rule="evenodd" clip-rule="evenodd" d="M219.58 277.965C223.786 277.965 227.196 274.556 227.196 270.35C227.196 266.144 223.786 262.734 219.58 262.734C215.374 262.734 211.965 266.144 211.965 270.35C211.965 274.556 215.374 277.965 219.58 277.965Z" fill="white"/>
<path opacity="0.1" fill-rule="evenodd" clip-rule="evenodd" d="M54.5784 557.201C58.7843 557.201 62.1939 553.791 62.1939 549.585C62.1939 545.379 58.7843 541.97 54.5784 541.97C50.3725 541.97 46.9629 545.379 46.9629 549.585C46.9629 553.791 50.3725 557.201 54.5784 557.201Z" fill="white"/>
<path opacity="0.1" d="M65.4791 159.038C65.8378 148.765 74.4562 140.728 84.7289 141.087L85.013 132.95C70.2465 132.434 57.8578 143.987 57.3421 158.754L65.4791 159.038Z" fill="white"/>
<path opacity="0.1" d="M375.01 64.216C375.369 53.9434 383.987 45.9066 394.26 46.2653L394.544 38.1283C379.778 37.6126 367.389 49.1653 366.873 63.9318L375.01 64.216Z" fill="white"/>
<path opacity="0.1" d="M366.418 218.829C356.49 216.169 350.597 205.964 353.258 196.035L345.393 193.928C341.569 208.2 350.039 222.87 364.311 226.694L366.418 218.829Z" fill="white"/>
<path opacity="0.1" d="M239.492 383.832C229.564 381.171 223.672 370.966 226.332 361.037L218.468 358.93C214.643 373.202 223.113 387.872 237.385 391.696L239.492 383.832Z" fill="white"/>
<path opacity="0.1" d="M366.258 751.53C370.764 742.292 381.906 738.455 391.144 742.961L394.713 735.643C381.433 729.166 365.417 734.681 358.94 747.961L366.258 751.53Z" fill="white"/>
<path opacity="0.1" d="M46.9426 740.75C57.1448 742.003 64.3999 751.289 63.1472 761.491L71.2285 762.483C73.0292 747.818 62.6002 734.469 47.9348 732.669L46.9426 740.75Z" fill="white"/>
<path opacity="0.1" d="M145.777 647.637C148.953 657.413 143.604 667.913 133.828 671.089L136.344 678.833C150.396 674.267 158.086 659.174 153.521 645.121L145.777 647.637Z" fill="white"/>
<path opacity="0.1" d="M209.898 780.627C213.075 790.403 207.725 800.903 197.949 804.079L200.465 811.823C214.517 807.257 222.208 792.164 217.642 778.111L209.898 780.627Z" fill="white"/>
<path opacity="0.1" d="M209.898 780.627C213.075 790.403 207.725 800.903 197.949 804.079L200.465 811.823C214.517 807.257 222.208 792.164 217.642 778.111L209.898 780.627Z" fill="white"/>
<path opacity="0.1" d="M465.061 622.428C461.211 631.958 450.363 636.562 440.833 632.712L437.783 640.261C451.483 645.796 467.075 639.177 472.61 625.478L465.061 622.428Z" fill="white"/>
<path opacity="0.1" d="M35.6316 627.686C25.4793 626.078 18.5527 616.544 20.1607 606.392L12.119 605.118C9.80761 619.712 19.7643 633.416 34.358 635.727L35.6316 627.686Z" fill="white"/>
<path opacity="0.3" d="M419.907 190.645C426.177 189.312 432.339 193.314 433.672 199.584L438.638 198.528C436.722 189.516 427.864 183.763 418.852 185.679L419.907 190.645Z" fill="white"/>
<path opacity="0.3" d="M109.349 212.976C102.949 212.64 98.0316 207.18 98.3671 200.779L93.297 200.513C92.8148 209.714 99.8827 217.564 109.084 218.046L109.349 212.976Z" fill="white"/>
<path opacity="0.3" d="M406.543 559.031C407.325 565.393 402.801 571.183 396.439 571.964L397.058 577.003C406.202 575.881 412.705 567.557 411.583 558.412L406.543 559.031Z" fill="white"/>
<path opacity="0.3" d="M266.926 546.339C267.707 552.7 263.183 558.491 256.822 559.272L257.44 564.311C266.585 563.188 273.088 554.865 271.965 545.72L266.926 546.339Z" fill="white"/>
<path opacity="0.3" d="M123.948 547.553C123.278 541.178 127.903 535.468 134.277 534.798L133.746 529.749C124.583 530.712 117.936 538.92 118.899 548.083L123.948 547.553Z" fill="white"/>
<path opacity="0.3" d="M175.479 319.292C174.256 313 178.365 306.908 184.656 305.685L183.688 300.701C174.643 302.459 168.737 311.216 170.495 320.26L175.479 319.292Z" fill="white"/>
<path opacity="0.1" d="M267.679 234.48C274.557 226.841 286.325 226.225 293.963 233.103L299.411 227.052C288.431 217.165 271.515 218.052 261.628 229.032L267.679 234.48Z" fill="white"/>
<path opacity="0.3" d="M227.518 172.793C226.295 166.501 230.404 160.409 236.695 159.186L235.727 154.202C226.683 155.96 220.776 164.717 222.534 173.761L227.518 172.793Z" fill="white"/>
<path opacity="0.1" fill-rule="evenodd" clip-rule="evenodd" d="M382.045 445.506C386.251 445.506 389.661 442.097 389.661 437.891C389.661 433.685 386.251 430.275 382.045 430.275C377.839 430.275 374.43 433.685 374.43 437.891C374.43 442.097 377.839 445.506 382.045 445.506Z" fill="white"/>
<path opacity="0.3" d="M255.312 660.799C248.911 660.464 243.995 655.003 244.33 648.602L239.26 648.336C238.778 657.537 245.846 665.387 255.046 665.869L255.312 660.799Z" fill="white"/>
<path opacity="0.3" d="M61.359 47.7518C54.9583 47.4163 50.0414 41.9556 50.3768 35.5548L45.3068 35.2891C44.8246 44.49 51.8925 52.3396 61.0933 52.8218L61.359 47.7518Z" fill="white"/>
<path opacity="0.3" d="M127.51 62.1039C129.277 55.9427 135.703 52.3802 141.865 54.1469L143.264 49.2666C134.408 46.727 125.169 51.8479 122.63 60.7045L127.51 62.1039Z" fill="white"/>
<path opacity="0.3" d="M426.596 86.3124C428.363 80.1512 434.789 76.5887 440.951 78.3554L442.35 73.4751C433.493 70.9355 424.255 76.0564 421.716 84.913L426.596 86.3124Z" fill="white"/>
<path opacity="0.3" d="M303.479 748.861C305.245 742.7 311.672 739.138 317.833 740.904L319.233 736.024C310.376 733.484 301.138 738.605 298.598 747.462L303.479 748.861Z" fill="white"/>
<path opacity="0.3" d="M118.675 747.251C124.169 750.552 125.947 757.682 122.646 763.176L126.998 765.791C131.743 757.893 129.188 747.644 121.29 742.899L118.675 747.251Z" fill="white"/>
<path opacity="0.3" d="M73.3094 671.256C69.452 676.375 62.1754 677.398 57.0565 673.54L54.0011 677.595C61.3593 683.14 71.8193 681.67 77.3641 674.312L73.3094 671.256Z" fill="white"/>
<path opacity="0.3" d="M412.863 696.079C407.612 692.403 406.336 685.167 410.013 679.916L405.854 677.004C400.569 684.551 402.404 694.954 409.951 700.238L412.863 696.079Z" fill="white"/>
<path opacity="0.3" d="M435.453 775.527C435.118 769.126 440.034 763.665 446.435 763.33L446.169 758.26C436.969 758.742 429.901 766.592 430.383 775.792L435.453 775.527Z" fill="white"/>
<path opacity="0.3" d="M285.937 40.912C285.602 34.5112 290.519 29.0505 296.92 28.715L296.654 23.645C287.453 24.1272 280.385 31.9768 280.867 41.1777L285.937 40.912Z" fill="white"/>
<path opacity="0.3" d="M5.43349 165.298C5.09804 158.897 10.0149 153.437 16.4156 153.101L16.1499 148.031C6.9491 148.513 -0.11875 156.363 0.363445 165.564L5.43349 165.298Z" fill="white"/>
<path opacity="0.3" d="M143.64 408.16C137.37 409.492 131.208 405.49 129.875 399.221L124.909 400.276C126.825 409.288 135.683 415.041 144.695 413.126L143.64 408.16Z" fill="white"/>
<path opacity="0.1" fill-rule="evenodd" clip-rule="evenodd" d="M310.967 367.8C306.761 367.8 303.351 371.21 303.351 375.416C303.351 379.622 306.761 383.031 310.967 383.031C315.172 383.031 318.582 379.622 318.582 375.416C318.582 371.21 315.172 367.8 310.967 367.8Z" fill="white"/>
<path opacity="0.1" fill-rule="evenodd" clip-rule="evenodd" d="M431.545 488.379C427.339 488.379 423.929 491.789 423.929 495.995C423.929 500.201 427.339 503.61 431.545 503.61C435.751 503.61 439.16 500.201 439.16 495.995C439.16 491.789 435.751 488.379 431.545 488.379Z" fill="white"/>
<path opacity="0.1" fill-rule="evenodd" clip-rule="evenodd" d="M192.926 443.956C188.72 443.956 185.31 447.365 185.31 451.571C185.31 455.777 188.72 459.187 192.926 459.187C197.131 459.187 200.541 455.777 200.541 451.571C200.541 447.365 197.131 443.956 192.926 443.956Z" fill="white"/>
<path opacity="0.1" fill-rule="evenodd" clip-rule="evenodd" d="M59.654 370.339C55.4481 370.339 52.0385 373.749 52.0385 377.955C52.0385 382.161 55.4481 385.57 59.654 385.57C63.86 385.57 67.2695 382.161 67.2695 377.955C67.2695 373.749 63.86 370.339 59.654 370.339Z" fill="white"/>
<path opacity="0.1" d="M418.335 308.461C417.977 318.734 409.358 326.771 399.086 326.412L398.801 334.549C413.568 335.065 425.957 323.512 426.472 308.745L418.335 308.461Z" fill="white"/>
<path opacity="0.1" d="M68.7143 457.163C68.3555 467.436 59.7371 475.473 49.4645 475.114L49.1803 483.251C63.9469 483.767 76.3356 472.214 76.8512 457.448L68.7143 457.163Z" fill="white"/>
<path opacity="0.1" d="M77.2381 303.313C87.1667 305.974 93.0588 316.179 90.3984 326.108L98.263 328.215C102.087 313.943 93.6175 299.273 79.3454 295.449L77.2381 303.313Z" fill="white"/>
<path opacity="0.3" d="M24.3292 330.735C18.0598 332.068 11.8971 328.066 10.5644 321.796L5.5984 322.852C7.51398 331.864 16.3726 337.617 25.3848 335.701L24.3292 330.735Z" fill="white"/>
<path opacity="0.3" d="M334.647 308.625C341.048 308.961 345.964 314.421 345.629 320.822L350.699 321.088C351.181 311.887 344.113 304.037 334.913 303.555L334.647 308.625Z" fill="white"/>
<path opacity="0.3" d="M266.414 459.183C264.647 465.344 258.22 468.906 252.059 467.14L250.66 472.02C259.516 474.56 268.755 469.439 271.294 460.582L266.414 459.183Z" fill="white"/>
<path opacity="0.3" d="M17.6405 435.067C15.8738 441.228 9.44693 444.791 3.28571 443.024L1.8863 447.904C10.7428 450.444 19.9812 445.323 22.5208 436.466L17.6405 435.067Z" fill="white"/>
<path opacity="0.3" d="M438.805 356.081C439.14 362.482 434.223 367.943 427.823 368.278L428.088 373.348C437.289 372.866 444.357 365.016 443.875 355.815L438.805 356.081Z" fill="white"/>
<path opacity="0.3" d="M773.124 113.263C779.393 111.931 785.556 115.933 786.889 122.202L791.855 121.147C789.939 112.134 781.08 106.382 772.068 108.297L773.124 113.263Z" fill="white"/>
<path opacity="0.1" d="M654.13 104.517C664.185 102.379 674.068 108.798 676.205 118.852L684.169 117.159C681.097 102.706 666.89 93.4805 652.438 96.5525L654.13 104.517Z" fill="white"/>
<path opacity="0.1" d="M781.008 434.769C791.023 432.457 801.017 438.702 803.329 448.717L811.262 446.886C807.939 432.489 793.573 423.512 779.176 426.836L781.008 434.769Z" fill="white"/>
<path opacity="0.1" d="M673.868 551.538C674.942 541.315 684.1 533.899 694.323 534.974L695.174 526.876C680.479 525.332 667.315 535.992 665.77 550.687L673.868 551.538Z" fill="white"/>
<path opacity="0.1" d="M793.456 526.127C802.918 522.11 813.844 526.525 817.86 535.987L825.355 532.805C819.582 519.204 803.876 512.859 790.275 518.632L793.456 526.127Z" fill="white"/>
<path opacity="0.1" fill-rule="evenodd" clip-rule="evenodd" d="M606.35 153.579C610.556 153.579 613.965 150.17 613.965 145.964C613.965 141.758 610.556 138.348 606.35 138.348C602.144 138.348 598.734 141.758 598.734 145.964C598.734 150.17 602.144 153.579 606.35 153.579Z" fill="white"/>
<path opacity="0.1" fill-rule="evenodd" clip-rule="evenodd" d="M503.561 104.079C507.767 104.079 511.176 100.669 511.176 96.4632C511.176 92.2572 507.767 88.8477 503.561 88.8477C499.355 88.8477 495.945 92.2572 495.945 96.4632C495.945 100.669 499.355 104.079 503.561 104.079Z" fill="white"/>
<path opacity="0.1" fill-rule="evenodd" clip-rule="evenodd" d="M579.717 15.231C583.923 15.231 587.333 11.8214 587.333 7.6155C587.333 3.40957 583.923 0 579.717 0C575.511 0 572.102 3.40957 572.102 7.6155C572.102 11.8214 575.511 15.231 579.717 15.231Z" fill="white"/>
<path opacity="0.1" fill-rule="evenodd" clip-rule="evenodd" d="M904.645 29.1929C908.851 29.1929 912.26 25.7833 912.26 21.5774C912.26 17.3715 908.851 13.9619 904.645 13.9619C900.439 13.9619 897.029 17.3715 897.029 21.5774C897.029 25.7833 900.439 29.1929 904.645 29.1929Z" fill="white"/>
<path opacity="0.1" fill-rule="evenodd" clip-rule="evenodd" d="M664.756 624.471C668.962 624.471 672.372 621.061 672.372 616.855C672.372 612.649 668.962 609.24 664.756 609.24C660.55 609.24 657.141 612.649 657.141 616.855C657.141 621.061 660.55 624.471 664.756 624.471Z" fill="white"/>
<path opacity="0.1" fill-rule="evenodd" clip-rule="evenodd" d="M702.834 729.818C707.04 729.818 710.45 726.409 710.45 722.203C710.45 717.997 707.04 714.587 702.834 714.587C698.628 714.587 695.219 717.997 695.219 722.203C695.219 726.409 698.628 729.818 702.834 729.818Z" fill="white"/>
<path opacity="0.1" fill-rule="evenodd" clip-rule="evenodd" d="M809.451 802.166C813.657 802.166 817.067 798.756 817.067 794.55C817.067 790.344 813.657 786.935 809.451 786.935C805.246 786.935 801.836 790.344 801.836 794.55C801.836 798.756 805.246 802.166 809.451 802.166Z" fill="white"/>
<path opacity="0.1" fill-rule="evenodd" clip-rule="evenodd" d="M790.412 613.047C794.618 613.047 798.028 609.638 798.028 605.432C798.028 601.226 794.618 597.816 790.412 597.816C786.206 597.816 782.797 601.226 782.797 605.432C782.797 609.638 786.206 613.047 790.412 613.047Z" fill="white"/>
<path opacity="0.1" fill-rule="evenodd" clip-rule="evenodd" d="M724.41 77.4244C728.616 77.4244 732.026 74.0148 732.026 69.8089C732.026 65.6029 728.616 62.1934 724.41 62.1934C720.204 62.1934 716.795 65.6029 716.795 69.8089C716.795 74.0148 720.204 77.4244 724.41 77.4244Z" fill="white"/>
<path opacity="0.1" fill-rule="evenodd" clip-rule="evenodd" d="M857.682 151.041C861.888 151.041 865.297 147.631 865.297 143.425C865.297 139.219 861.888 135.81 857.682 135.81C853.476 135.81 850.066 139.219 850.066 143.425C850.066 147.631 853.476 151.041 857.682 151.041Z" fill="white"/>
<path opacity="0.1" fill-rule="evenodd" clip-rule="evenodd" d="M692.68 277.965C696.886 277.965 700.295 274.556 700.295 270.35C700.295 266.144 696.886 262.734 692.68 262.734C688.474 262.734 685.064 266.144 685.064 270.35C685.064 274.556 688.474 277.965 692.68 277.965Z" fill="white"/>
<path opacity="0.1" fill-rule="evenodd" clip-rule="evenodd" d="M527.678 557.201C531.884 557.201 535.293 553.791 535.293 549.585C535.293 545.379 531.884 541.97 527.678 541.97C523.472 541.97 520.062 545.379 520.062 549.585C520.062 553.791 523.472 557.201 527.678 557.201Z" fill="white"/>
<path opacity="0.1" d="M538.579 159.038C538.937 148.765 547.556 140.728 557.828 141.087L558.113 132.95C543.346 132.434 530.957 143.987 530.442 158.754L538.579 159.038Z" fill="white"/>
<path opacity="0.1" d="M848.112 64.216C848.471 53.9434 857.089 45.9066 867.362 46.2653L867.646 38.1283C852.879 37.6126 840.491 49.1653 839.975 63.9318L848.112 64.216Z" fill="white"/>
<path opacity="0.1" d="M839.518 218.829C829.589 216.169 823.697 205.964 826.357 196.035L818.493 193.928C814.669 208.2 823.138 222.87 837.41 226.694L839.518 218.829Z" fill="white"/>
<path opacity="0.1" d="M712.592 383.832C702.663 381.171 696.771 370.966 699.432 361.037L691.567 358.93C687.743 373.202 696.213 387.872 710.485 391.696L712.592 383.832Z" fill="white"/>
<path opacity="0.1" d="M839.357 751.53C843.863 742.292 855.005 738.455 864.244 742.961L867.813 735.643C854.533 729.166 838.516 734.681 832.039 747.961L839.357 751.53Z" fill="white"/>
<path opacity="0.1" d="M520.042 740.75C530.244 742.003 537.5 751.289 536.247 761.491L544.328 762.483C546.129 747.818 535.7 734.469 521.034 732.669L520.042 740.75Z" fill="white"/>
<path opacity="0.1" d="M618.877 647.637C622.053 657.413 616.703 667.913 606.927 671.089L609.443 678.833C623.496 674.267 631.186 659.174 626.62 645.121L618.877 647.637Z" fill="white"/>
<path opacity="0.1" d="M682.998 780.627C686.174 790.403 680.824 800.903 671.048 804.079L673.564 811.823C687.617 807.257 695.307 792.164 690.741 778.111L682.998 780.627Z" fill="white"/>
<path opacity="0.1" d="M682.998 780.627C686.174 790.403 680.824 800.903 671.048 804.079L673.564 811.823C687.617 807.257 695.307 792.164 690.741 778.111L682.998 780.627Z" fill="white"/>
<path opacity="0.1" d="M938.161 622.428C934.31 631.958 923.463 636.562 913.933 632.712L910.883 640.261C924.582 645.796 940.175 639.177 945.71 625.478L938.161 622.428Z" fill="white"/>
<path opacity="0.1" d="M508.731 627.686C498.579 626.078 491.652 616.544 493.26 606.392L485.219 605.118C482.907 619.712 492.864 633.416 507.458 635.727L508.731 627.686Z" fill="white"/>
<path opacity="0.3" d="M893.007 190.645C899.276 189.312 905.439 193.314 906.771 199.584L911.738 198.528C909.822 189.516 900.963 183.763 891.951 185.679L893.007 190.645Z" fill="white"/>
<path opacity="0.3" d="M582.449 212.976C576.048 212.64 571.131 207.18 571.467 200.779L566.397 200.513C565.914 209.714 572.982 217.564 582.183 218.046L582.449 212.976Z" fill="white"/>
<path opacity="0.3" d="M879.643 559.031C880.424 565.393 875.9 571.183 869.539 571.964L870.157 577.003C879.302 575.881 885.805 567.557 884.682 558.412L879.643 559.031Z" fill="white"/>
<path opacity="0.3" d="M740.026 546.339C740.807 552.7 736.283 558.491 729.921 559.272L730.54 564.311C739.685 563.188 746.188 554.865 745.065 545.72L740.026 546.339Z" fill="white"/>
<path opacity="0.3" d="M597.048 547.553C596.378 541.178 601.002 535.468 607.377 534.798L606.846 529.749C597.683 530.712 591.036 538.92 591.999 548.083L597.048 547.553Z" fill="white"/>
<path opacity="0.3" d="M648.578 319.292C647.355 313 651.464 306.908 657.756 305.685L656.787 300.701C647.743 302.459 641.836 311.216 643.594 320.26L648.578 319.292Z" fill="white"/>
<path opacity="0.1" d="M740.778 234.48C747.656 226.841 759.424 226.225 767.063 233.103L772.511 227.052C761.531 217.165 744.614 218.052 734.728 229.032L740.778 234.48Z" fill="white"/>
<path opacity="0.3" d="M700.617 172.793C699.394 166.501 703.503 160.409 709.795 159.186L708.826 154.202C699.782 155.96 693.876 164.717 695.634 173.761L700.617 172.793Z" fill="white"/>
<path opacity="0.1" fill-rule="evenodd" clip-rule="evenodd" d="M855.143 445.506C859.349 445.506 862.758 442.097 862.758 437.891C862.758 433.685 859.349 430.275 855.143 430.275C850.937 430.275 847.527 433.685 847.527 437.891C847.527 442.097 850.937 445.506 855.143 445.506Z" fill="white"/>
<path opacity="0.3" d="M728.412 660.799C722.011 660.464 717.094 655.003 717.43 648.602L712.36 648.336C711.877 657.537 718.945 665.387 728.146 665.869L728.412 660.799Z" fill="white"/>
<path opacity="0.3" d="M534.459 47.7518C528.058 47.4163 523.141 41.9556 523.476 35.5548L518.406 35.2891C517.924 44.49 524.992 52.3396 534.193 52.8218L534.459 47.7518Z" fill="white"/>
<path opacity="0.3" d="M600.61 62.1039C602.376 55.9427 608.803 52.3802 614.964 54.1469L616.364 49.2666C607.507 46.727 598.269 51.8479 595.729 60.7045L600.61 62.1039Z" fill="white"/>
<path opacity="0.3" d="M899.695 86.3124C901.462 80.1512 907.889 76.5887 914.05 78.3554L915.45 73.4751C906.593 70.9355 897.355 76.0564 894.815 84.913L899.695 86.3124Z" fill="white"/>
<path opacity="0.3" d="M776.578 748.861C778.345 742.7 784.772 739.138 790.933 740.904L792.332 736.024C783.476 733.484 774.238 738.605 771.698 747.462L776.578 748.861Z" fill="white"/>
<path opacity="0.3" d="M591.775 747.251C597.269 750.552 599.047 757.682 595.745 763.176L600.097 765.791C604.843 757.893 602.287 747.644 594.39 742.899L591.775 747.251Z" fill="white"/>
<path opacity="0.3" d="M546.409 671.256C542.552 676.375 535.275 677.398 530.156 673.54L527.101 677.595C534.459 683.14 544.919 681.67 550.464 674.312L546.409 671.256Z" fill="white"/>
<path opacity="0.3" d="M885.962 696.079C880.712 692.403 879.436 685.167 883.112 679.916L878.954 677.004C873.669 684.551 875.503 694.954 883.05 700.238L885.962 696.079Z" fill="white"/>
<path opacity="0.3" d="M908.553 775.527C908.217 769.126 913.134 763.665 919.535 763.33L919.269 758.26C910.068 758.742 903 766.592 903.483 775.792L908.553 775.527Z" fill="white"/>
<path opacity="0.3" d="M759.037 40.912C758.702 34.5112 763.618 29.0505 770.019 28.715L769.753 23.645C760.553 24.1272 753.485 31.9768 753.967 41.1777L759.037 40.912Z" fill="white"/>
<path opacity="0.3" d="M478.533 165.298C478.198 158.897 483.115 153.437 489.515 153.101L489.25 148.031C480.049 148.513 472.981 156.363 473.463 165.564L478.533 165.298Z" fill="white"/>
<path opacity="0.3" d="M616.739 408.16C610.47 409.492 604.307 405.49 602.975 399.221L598.009 400.276C599.924 409.288 608.783 415.041 617.795 413.126L616.739 408.16Z" fill="white"/>
<path opacity="0.1" fill-rule="evenodd" clip-rule="evenodd" d="M784.066 367.8C779.86 367.8 776.451 371.21 776.451 375.416C776.451 379.622 779.86 383.031 784.066 383.031C788.272 383.031 791.682 379.622 791.682 375.416C791.682 371.21 788.272 367.8 784.066 367.8Z" fill="white"/>
<path opacity="0.1" fill-rule="evenodd" clip-rule="evenodd" d="M904.644 488.379C900.438 488.379 897.029 491.789 897.029 495.995C897.029 500.201 900.438 503.61 904.644 503.61C908.85 503.61 912.26 500.201 912.26 495.995C912.26 491.789 908.85 488.379 904.644 488.379Z" fill="white"/>
<path opacity="0.1" fill-rule="evenodd" clip-rule="evenodd" d="M666.025 443.956C661.819 443.956 658.41 447.365 658.41 451.571C658.41 455.777 661.819 459.187 666.025 459.187C670.231 459.187 673.641 455.777 673.641 451.571C673.641 447.365 670.231 443.956 666.025 443.956Z" fill="white"/>
<path opacity="0.1" fill-rule="evenodd" clip-rule="evenodd" d="M532.754 370.339C528.548 370.339 525.138 373.749 525.138 377.955C525.138 382.161 528.548 385.57 532.754 385.57C536.96 385.57 540.369 382.161 540.369 377.955C540.369 373.749 536.96 370.339 532.754 370.339Z" fill="white"/>
<path opacity="0.1" d="M891.435 308.461C891.076 318.734 882.458 326.771 872.185 326.412L871.901 334.549C886.668 335.065 899.056 323.512 899.572 308.745L891.435 308.461Z" fill="white"/>
<path opacity="0.1" d="M541.814 457.163C541.455 467.436 532.837 475.473 522.564 475.114L522.28 483.251C537.047 483.767 549.435 472.214 549.951 457.448L541.814 457.163Z" fill="white"/>
<path opacity="0.1" d="M550.338 303.313C560.266 305.974 566.158 316.179 563.498 326.108L571.363 328.215C575.187 313.943 566.717 299.273 552.445 295.449L550.338 303.313Z" fill="white"/>
<path opacity="0.3" d="M497.429 330.735C491.159 332.068 484.997 328.066 483.664 321.796L478.698 322.852C480.614 331.864 489.472 337.617 498.484 335.701L497.429 330.735Z" fill="white"/>
<path opacity="0.3" d="M807.746 308.625C814.147 308.961 819.064 314.421 818.729 320.822L823.799 321.088C824.281 311.887 817.213 304.037 808.012 303.555L807.746 308.625Z" fill="white"/>
<path opacity="0.3" d="M739.514 459.183C737.747 465.344 731.32 468.906 725.159 467.14L723.759 472.02C732.616 474.56 741.854 469.439 744.394 460.582L739.514 459.183Z" fill="white"/>
<path opacity="0.3" d="M490.74 435.067C488.973 441.228 482.547 444.791 476.385 443.024L474.986 447.904C483.842 450.444 493.081 445.323 495.62 436.466L490.74 435.067Z" fill="white"/>
<path opacity="0.3" d="M911.902 356.081C912.238 362.482 907.321 367.943 900.92 368.278L901.186 373.348C910.387 372.866 917.455 365.016 916.972 355.815L911.902 356.081Z" fill="white"/>
<path opacity="0.3" d="M1267.02 113.263C1273.29 111.931 1279.46 115.933 1280.79 122.202L1285.76 121.147C1283.84 112.134 1274.98 106.382 1265.97 108.297L1267.02 113.263Z" fill="white"/>
<path opacity="0.1" d="M1148.03 104.517C1158.08 102.379 1167.97 108.798 1170.11 118.852L1178.07 117.159C1175 102.706 1160.79 93.4805 1146.34 96.5525L1148.03 104.517Z" fill="white"/>
<path opacity="0.1" d="M1274.91 434.769C1284.92 432.457 1294.92 438.702 1297.23 448.717L1305.16 446.886C1301.84 432.489 1287.47 423.512 1273.08 426.836L1274.91 434.769Z" fill="white"/>
<path opacity="0.1" d="M1167.77 551.538C1168.84 541.315 1178 533.899 1188.22 534.974L1189.07 526.876C1174.38 525.332 1161.22 535.992 1159.67 550.687L1167.77 551.538Z" fill="white"/>
<path opacity="0.1" d="M1287.36 526.127C1296.82 522.11 1307.74 526.525 1311.76 535.987L1319.26 532.805C1313.48 519.204 1297.78 512.859 1284.18 518.632L1287.36 526.127Z" fill="white"/>
<path opacity="0.1" fill-rule="evenodd" clip-rule="evenodd" d="M1100.25 153.579C1104.46 153.579 1107.87 150.17 1107.87 145.964C1107.87 141.758 1104.46 138.348 1100.25 138.348C1096.04 138.348 1092.63 141.758 1092.63 145.964C1092.63 150.17 1096.04 153.579 1100.25 153.579Z" fill="white"/>
<path opacity="0.1" fill-rule="evenodd" clip-rule="evenodd" d="M997.461 104.079C1001.67 104.079 1005.08 100.669 1005.08 96.4632C1005.08 92.2572 1001.67 88.8477 997.461 88.8477C993.255 88.8477 989.846 92.2572 989.846 96.4632C989.846 100.669 993.255 104.079 997.461 104.079Z" fill="white"/>
<path opacity="0.1" fill-rule="evenodd" clip-rule="evenodd" d="M1073.62 15.231C1077.82 15.231 1081.23 11.8214 1081.23 7.6155C1081.23 3.40957 1077.82 0 1073.62 0C1069.41 0 1066 3.40957 1066 7.6155C1066 11.8214 1069.41 15.231 1073.62 15.231Z" fill="white"/>
<path opacity="0.1" fill-rule="evenodd" clip-rule="evenodd" d="M1398.55 29.1929C1402.75 29.1929 1406.16 25.7833 1406.16 21.5774C1406.16 17.3715 1402.75 13.9619 1398.55 13.9619C1394.34 13.9619 1390.93 17.3715 1390.93 21.5774C1390.93 25.7833 1394.34 29.1929 1398.55 29.1929Z" fill="white"/>
<path opacity="0.1" fill-rule="evenodd" clip-rule="evenodd" d="M1158.66 624.471C1162.86 624.471 1166.27 621.061 1166.27 616.855C1166.27 612.649 1162.86 609.24 1158.66 609.24C1154.45 609.24 1151.04 612.649 1151.04 616.855C1151.04 621.061 1154.45 624.471 1158.66 624.471Z" fill="white"/>
<path opacity="0.1" fill-rule="evenodd" clip-rule="evenodd" d="M1196.73 729.818C1200.94 729.818 1204.35 726.409 1204.35 722.203C1204.35 717.997 1200.94 714.587 1196.73 714.587C1192.53 714.587 1189.12 717.997 1189.12 722.203C1189.12 726.409 1192.53 729.818 1196.73 729.818Z" fill="white"/>
<path opacity="0.1" fill-rule="evenodd" clip-rule="evenodd" d="M1303.35 802.166C1307.56 802.166 1310.97 798.756 1310.97 794.55C1310.97 790.344 1307.56 786.935 1303.35 786.935C1299.15 786.935 1295.74 790.344 1295.74 794.55C1295.74 798.756 1299.15 802.166 1303.35 802.166Z" fill="white"/>
<path opacity="0.1" fill-rule="evenodd" clip-rule="evenodd" d="M1284.31 613.047C1288.52 613.047 1291.93 609.638 1291.93 605.432C1291.93 601.226 1288.52 597.816 1284.31 597.816C1280.11 597.816 1276.7 601.226 1276.7 605.432C1276.7 609.638 1280.11 613.047 1284.31 613.047Z" fill="white"/>
<path opacity="0.1" fill-rule="evenodd" clip-rule="evenodd" d="M1218.31 77.4244C1222.52 77.4244 1225.93 74.0148 1225.93 69.8089C1225.93 65.6029 1222.52 62.1934 1218.31 62.1934C1214.1 62.1934 1210.7 65.6029 1210.7 69.8089C1210.7 74.0148 1214.1 77.4244 1218.31 77.4244Z" fill="white"/>
<path opacity="0.1" fill-rule="evenodd" clip-rule="evenodd" d="M1351.58 151.041C1355.79 151.041 1359.2 147.631 1359.2 143.425C1359.2 139.219 1355.79 135.81 1351.58 135.81C1347.38 135.81 1343.97 139.219 1343.97 143.425C1343.97 147.631 1347.38 151.041 1351.58 151.041Z" fill="white"/>
<path opacity="0.1" fill-rule="evenodd" clip-rule="evenodd" d="M1186.58 277.965C1190.79 277.965 1194.2 274.556 1194.2 270.35C1194.2 266.144 1190.79 262.734 1186.58 262.734C1182.37 262.734 1178.96 266.144 1178.96 270.35C1178.96 274.556 1182.37 277.965 1186.58 277.965Z" fill="white"/>
<path opacity="0.1" fill-rule="evenodd" clip-rule="evenodd" d="M1021.58 557.201C1025.78 557.201 1029.19 553.791 1029.19 549.585C1029.19 545.379 1025.78 541.97 1021.58 541.97C1017.37 541.97 1013.96 545.379 1013.96 549.585C1013.96 553.791 1017.37 557.201 1021.58 557.201Z" fill="white"/>
<path opacity="0.1" d="M1032.48 159.038C1032.84 148.765 1041.46 140.728 1051.73 141.087L1052.01 132.95C1037.25 132.434 1024.86 143.987 1024.34 158.754L1032.48 159.038Z" fill="white"/>
<path opacity="0.1" d="M1342.01 64.216C1342.37 53.9434 1350.99 45.9066 1361.26 46.2653L1361.54 38.1283C1346.78 37.6126 1334.39 49.1653 1333.87 63.9318L1342.01 64.216Z" fill="white"/>
<path opacity="0.1" d="M1333.42 218.829C1323.49 216.169 1317.6 205.964 1320.26 196.035L1312.39 193.928C1308.57 208.2 1317.04 222.87 1331.31 226.694L1333.42 218.829Z" fill="white"/>
<path opacity="0.1" d="M1206.49 383.832C1196.56 381.171 1190.67 370.966 1193.33 361.037L1185.47 358.93C1181.64 373.202 1190.11 387.872 1204.39 391.696L1206.49 383.832Z" fill="white"/>
<path opacity="0.1" d="M1333.26 751.53C1337.76 742.292 1348.91 738.455 1358.14 742.961L1361.71 735.643C1348.43 729.166 1332.42 734.681 1325.94 747.961L1333.26 751.53Z" fill="white"/>
<path opacity="0.1" d="M1013.94 740.75C1024.14 742.003 1031.4 751.289 1030.15 761.491L1038.23 762.483C1040.03 747.818 1029.6 734.469 1014.93 732.669L1013.94 740.75Z" fill="white"/>
<path opacity="0.1" d="M1112.78 647.637C1115.95 657.413 1110.6 667.913 1100.83 671.089L1103.34 678.833C1117.4 674.267 1125.09 659.174 1120.52 645.121L1112.78 647.637Z" fill="white"/>
<path opacity="0.1" d="M1176.9 780.627C1180.07 790.403 1174.72 800.903 1164.95 804.079L1167.46 811.823C1181.52 807.257 1189.21 792.164 1184.64 778.111L1176.9 780.627Z" fill="white"/>
<path opacity="0.1" d="M1176.9 780.627C1180.07 790.403 1174.72 800.903 1164.95 804.079L1167.46 811.823C1181.52 807.257 1189.21 792.164 1184.64 778.111L1176.9 780.627Z" fill="white"/>
<path opacity="0.1" d="M1432.06 622.428C1428.21 631.958 1417.36 636.562 1407.83 632.712L1404.78 640.261C1418.48 645.796 1434.08 639.177 1439.61 625.478L1432.06 622.428Z" fill="white"/>
<path opacity="0.1" d="M1002.63 627.686C992.479 626.078 985.553 616.544 987.161 606.392L979.119 605.118C976.808 619.712 986.764 633.416 1001.36 635.727L1002.63 627.686Z" fill="white"/>
<path opacity="0.3" d="M1386.91 190.645C1393.18 189.312 1399.34 193.314 1400.67 199.584L1405.64 198.528C1403.72 189.516 1394.86 183.763 1385.85 185.679L1386.91 190.645Z" fill="white"/>
<path opacity="0.3" d="M1076.35 212.976C1069.95 212.64 1065.03 207.18 1065.37 200.779L1060.3 200.513C1059.81 209.714 1066.88 217.564 1076.08 218.046L1076.35 212.976Z" fill="white"/>
<path opacity="0.3" d="M1373.54 559.031C1374.32 565.393 1369.8 571.183 1363.44 571.964L1364.06 577.003C1373.2 575.881 1379.71 567.557 1378.58 558.412L1373.54 559.031Z" fill="white"/>
<path opacity="0.3" d="M1233.93 546.339C1234.71 552.7 1230.18 558.491 1223.82 559.272L1224.44 564.311C1233.59 563.188 1240.09 554.865 1238.97 545.72L1233.93 546.339Z" fill="white"/>
<path opacity="0.3" d="M1090.95 547.553C1090.28 541.178 1094.9 535.468 1101.28 534.798L1100.75 529.749C1091.58 530.712 1084.94 538.92 1085.9 548.083L1090.95 547.553Z" fill="white"/>
<path opacity="0.3" d="M1142.48 319.292C1141.26 313 1145.36 306.908 1151.66 305.685L1150.69 300.701C1141.64 302.459 1135.74 311.216 1137.49 320.26L1142.48 319.292Z" fill="white"/>
<path opacity="0.1" d="M1234.68 234.48C1241.56 226.841 1253.32 226.225 1260.96 233.103L1266.41 227.052C1255.43 217.165 1238.51 218.052 1228.63 229.032L1234.68 234.48Z" fill="white"/>
<path opacity="0.3" d="M1194.52 172.793C1193.29 166.501 1197.4 160.409 1203.7 159.186L1202.73 154.202C1193.68 155.96 1187.78 164.717 1189.53 173.761L1194.52 172.793Z" fill="white"/>
<path opacity="0.1" fill-rule="evenodd" clip-rule="evenodd" d="M1349.05 445.506C1353.25 445.506 1356.66 442.097 1356.66 437.891C1356.66 433.685 1353.25 430.275 1349.05 430.275C1344.84 430.275 1341.43 433.685 1341.43 437.891C1341.43 442.097 1344.84 445.506 1349.05 445.506Z" fill="white"/>
<path opacity="0.3" d="M1222.31 660.799C1215.91 660.464 1210.99 655.003 1211.33 648.602L1206.26 648.336C1205.78 657.537 1212.85 665.387 1222.05 665.869L1222.31 660.799Z" fill="white"/>
<path opacity="0.3" d="M1028.36 47.7518C1021.96 47.4163 1017.04 41.9556 1017.38 35.5548L1012.31 35.2891C1011.82 44.49 1018.89 52.3396 1028.09 52.8218L1028.36 47.7518Z" fill="white"/>
<path opacity="0.3" d="M1094.51 62.1039C1096.28 55.9427 1102.7 52.3802 1108.86 54.1469L1110.26 49.2666C1101.41 46.727 1092.17 51.8479 1089.63 60.7045L1094.51 62.1039Z" fill="white"/>
<path opacity="0.3" d="M1393.6 86.3124C1395.36 80.1512 1401.79 76.5887 1407.95 78.3554L1409.35 73.4751C1400.49 70.9355 1391.26 76.0564 1388.72 84.913L1393.6 86.3124Z" fill="white"/>
<path opacity="0.3" d="M1270.48 748.861C1272.25 742.7 1278.67 739.138 1284.83 740.904L1286.23 736.024C1277.38 733.484 1268.14 738.605 1265.6 747.462L1270.48 748.861Z" fill="white"/>
<path opacity="0.3" d="M1085.68 747.251C1091.17 750.552 1092.95 757.682 1089.65 763.176L1094 765.791C1098.74 757.893 1096.19 747.644 1088.29 742.899L1085.68 747.251Z" fill="white"/>
<path opacity="0.3" d="M1040.31 671.256C1036.45 676.375 1029.18 677.398 1024.06 673.54L1021 677.595C1028.36 683.14 1038.82 681.67 1044.36 674.312L1040.31 671.256Z" fill="white"/>
<path opacity="0.3" d="M1379.86 696.079C1374.61 692.403 1373.34 685.167 1377.01 679.916L1372.85 677.004C1367.57 684.551 1369.4 694.954 1376.95 700.238L1379.86 696.079Z" fill="white"/>
<path opacity="0.3" d="M1402.45 775.527C1402.12 769.126 1407.03 763.665 1413.44 763.33L1413.17 758.26C1403.97 758.742 1396.9 766.592 1397.38 775.792L1402.45 775.527Z" fill="white"/>
<path opacity="0.3" d="M1252.94 40.912C1252.6 34.5112 1257.52 29.0505 1263.92 28.715L1263.65 23.645C1254.45 24.1272 1247.39 31.9768 1247.87 41.1777L1252.94 40.912Z" fill="white"/>
<path opacity="0.3" d="M972.433 165.298C972.098 158.897 977.015 153.437 983.416 153.101L983.15 148.031C973.949 148.513 966.881 156.363 967.363 165.564L972.433 165.298Z" fill="white"/>
<path opacity="0.3" d="M1110.64 408.16C1104.37 409.492 1098.21 405.49 1096.87 399.221L1091.91 400.276C1093.82 409.288 1102.68 415.041 1111.7 413.126L1110.64 408.16Z" fill="white"/>
<path opacity="0.1" fill-rule="evenodd" clip-rule="evenodd" d="M1277.97 367.8C1273.76 367.8 1270.35 371.21 1270.35 375.416C1270.35 379.622 1273.76 383.031 1277.97 383.031C1282.17 383.031 1285.58 379.622 1285.58 375.416C1285.58 371.21 1282.17 367.8 1277.97 367.8Z" fill="white"/>
<path opacity="0.1" fill-rule="evenodd" clip-rule="evenodd" d="M1398.54 488.379C1394.34 488.379 1390.93 491.789 1390.93 495.995C1390.93 500.201 1394.34 503.61 1398.54 503.61C1402.75 503.61 1406.16 500.201 1406.16 495.995C1406.16 491.789 1402.75 488.379 1398.54 488.379Z" fill="white"/>
<path opacity="0.1" fill-rule="evenodd" clip-rule="evenodd" d="M1159.93 443.956C1155.72 443.956 1152.31 447.365 1152.31 451.571C1152.31 455.777 1155.72 459.187 1159.93 459.187C1164.13 459.187 1167.54 455.777 1167.54 451.571C1167.54 447.365 1164.13 443.956 1159.93 443.956Z" fill="white"/>
<path opacity="0.1" fill-rule="evenodd" clip-rule="evenodd" d="M1026.65 370.339C1022.45 370.339 1019.04 373.749 1019.04 377.955C1019.04 382.161 1022.45 385.57 1026.65 385.57C1030.86 385.57 1034.27 382.161 1034.27 377.955C1034.27 373.749 1030.86 370.339 1026.65 370.339Z" fill="white"/>
<path opacity="0.1" d="M1385.34 308.461C1384.98 318.734 1376.36 326.771 1366.09 326.412L1365.8 334.549C1380.57 335.065 1392.96 323.512 1393.47 308.745L1385.34 308.461Z" fill="white"/>
<path opacity="0.1" d="M1035.71 457.163C1035.36 467.436 1026.74 475.473 1016.46 475.114L1016.18 483.251C1030.95 483.767 1043.34 472.214 1043.85 457.448L1035.71 457.163Z" fill="white"/>
<path opacity="0.1" d="M1044.24 303.313C1054.17 305.974 1060.06 316.179 1057.4 326.108L1065.26 328.215C1069.09 313.943 1060.62 299.273 1046.35 295.449L1044.24 303.313Z" fill="white"/>
<path opacity="0.3" d="M991.329 330.735C985.06 332.068 978.897 328.066 977.564 321.796L972.598 322.852C974.514 331.864 983.373 337.617 992.385 335.701L991.329 330.735Z" fill="white"/>
<path opacity="0.3" d="M1301.65 308.625C1308.05 308.961 1312.96 314.421 1312.63 320.822L1317.7 321.088C1318.18 311.887 1311.11 304.037 1301.91 303.555L1301.65 308.625Z" fill="white"/>
<path opacity="0.3" d="M1233.41 459.183C1231.65 465.344 1225.22 468.906 1219.06 467.14L1217.66 472.02C1226.52 474.56 1235.75 469.439 1238.29 460.582L1233.41 459.183Z" fill="white"/>
<path opacity="0.3" d="M984.64 435.067C982.874 441.228 976.447 444.791 970.286 443.024L968.886 447.904C977.743 450.444 986.981 445.323 989.521 436.466L984.64 435.067Z" fill="white"/>
<path opacity="0.3" d="M1405.8 356.081C1406.14 362.482 1401.22 367.943 1394.82 368.278L1395.09 373.348C1404.29 372.866 1411.36 365.016 1410.87 355.815L1405.8 356.081Z" fill="white"/>
<path opacity="0.3" d="M300.024 921.263C306.294 919.931 312.456 923.933 313.789 930.202L318.755 929.147C316.84 920.134 307.981 914.382 298.969 916.297L300.024 921.263Z" fill="white"/>
<path opacity="0.1" d="M181.031 912.517C191.085 910.379 200.968 916.798 203.105 926.852L211.069 925.159C207.997 910.706 193.791 901.481 179.338 904.553L181.031 912.517Z" fill="white"/>
<path opacity="0.1" d="M307.908 1242.77C317.924 1240.46 327.917 1246.7 330.229 1256.72L338.163 1254.89C334.839 1240.49 320.474 1231.51 306.077 1234.84L307.908 1242.77Z" fill="white"/>
<path opacity="0.1" fill-rule="evenodd" clip-rule="evenodd" d="M133.25 961.579C137.456 961.579 140.866 958.17 140.866 953.964C140.866 949.758 137.456 946.348 133.25 946.348C129.044 946.348 125.635 949.758 125.635 953.964C125.635 958.17 129.044 961.579 133.25 961.579Z" fill="white"/>
<path opacity="0.1" fill-rule="evenodd" clip-rule="evenodd" d="M30.4612 912.078C34.6671 912.078 38.0767 908.669 38.0767 904.463C38.0767 900.257 34.6671 896.847 30.4612 896.847C26.2553 896.847 22.8457 900.257 22.8457 904.463C22.8457 908.669 26.2553 912.078 30.4612 912.078Z" fill="white"/>
<path opacity="0.1" fill-rule="evenodd" clip-rule="evenodd" d="M106.617 823.231C110.823 823.231 114.233 819.821 114.233 815.615C114.233 811.41 110.823 808 106.617 808C102.412 808 99.002 811.41 99.002 815.615C99.002 819.821 102.412 823.231 106.617 823.231Z" fill="white"/>
<path opacity="0.1" fill-rule="evenodd" clip-rule="evenodd" d="M431.545 837.193C435.751 837.193 439.161 833.783 439.161 829.577C439.161 825.371 435.751 821.962 431.545 821.962C427.339 821.962 423.93 825.371 423.93 829.577C423.93 833.783 427.339 837.193 431.545 837.193Z" fill="white"/>
<path opacity="0.1" fill-rule="evenodd" clip-rule="evenodd" d="M251.311 885.424C255.517 885.424 258.926 882.015 258.926 877.809C258.926 873.603 255.517 870.193 251.311 870.193C247.105 870.193 243.695 873.603 243.695 877.809C243.695 882.015 247.105 885.424 251.311 885.424Z" fill="white"/>
<path opacity="0.1" fill-rule="evenodd" clip-rule="evenodd" d="M384.582 959.041C388.788 959.041 392.198 955.631 392.198 951.425C392.198 947.219 388.788 943.81 384.582 943.81C380.376 943.81 376.967 947.219 376.967 951.425C376.967 955.631 380.376 959.041 384.582 959.041Z" fill="white"/>
<path opacity="0.1" fill-rule="evenodd" clip-rule="evenodd" d="M219.58 1085.97C223.786 1085.97 227.196 1082.56 227.196 1078.35C227.196 1074.14 223.786 1070.73 219.58 1070.73C215.374 1070.73 211.965 1074.14 211.965 1078.35C211.965 1082.56 215.374 1085.97 219.58 1085.97Z" fill="white"/>
<path opacity="0.1" d="M65.4791 967.038C65.8378 956.765 74.4562 948.728 84.7289 949.087L85.013 940.95C70.2465 940.434 57.8578 951.987 57.3421 966.754L65.4791 967.038Z" fill="white"/>
<path opacity="0.1" d="M375.01 872.216C375.369 861.943 383.987 853.907 394.26 854.265L394.544 846.128C379.778 845.613 367.389 857.165 366.873 871.932L375.01 872.216Z" fill="white"/>
<path opacity="0.1" d="M366.418 1026.83C356.49 1024.17 350.597 1013.96 353.258 1004.04L345.393 1001.93C341.569 1016.2 350.039 1030.87 364.311 1034.69L366.418 1026.83Z" fill="white"/>
<path opacity="0.1" d="M239.492 1191.83C229.564 1189.17 223.672 1178.97 226.332 1169.04L218.468 1166.93C214.643 1181.2 223.113 1195.87 237.385 1199.7L239.492 1191.83Z" fill="white"/>
<path opacity="0.3" d="M419.907 998.645C426.177 997.312 432.339 1001.31 433.672 1007.58L438.638 1006.53C436.722 997.516 427.864 991.763 418.852 993.679L419.907 998.645Z" fill="white"/>
<path opacity="0.3" d="M109.349 1020.98C102.949 1020.64 98.0316 1015.18 98.3671 1008.78L93.297 1008.51C92.8148 1017.71 99.8827 1025.56 109.084 1026.05L109.349 1020.98Z" fill="white"/>
<path opacity="0.3" d="M175.479 1127.29C174.256 1121 178.365 1114.91 184.656 1113.69L183.688 1108.7C174.643 1110.46 168.737 1119.22 170.495 1128.26L175.479 1127.29Z" fill="white"/>
<path opacity="0.1" d="M267.679 1042.48C274.557 1034.84 286.325 1034.22 293.963 1041.1L299.411 1035.05C288.431 1025.17 271.515 1026.05 261.628 1037.03L267.679 1042.48Z" fill="white"/>
<path opacity="0.3" d="M227.518 980.793C226.295 974.501 230.404 968.409 236.695 967.186L235.727 962.202C226.683 963.96 220.776 972.717 222.534 981.761L227.518 980.793Z" fill="white"/>
<path opacity="0.1" fill-rule="evenodd" clip-rule="evenodd" d="M382.045 1253.51C386.251 1253.51 389.661 1250.1 389.661 1245.89C389.661 1241.69 386.251 1238.28 382.045 1238.28C377.839 1238.28 374.43 1241.69 374.43 1245.89C374.43 1250.1 377.839 1253.51 382.045 1253.51Z" fill="white"/>
<path opacity="0.3" d="M61.359 855.752C54.9583 855.416 50.0414 849.956 50.3768 843.555L45.3068 843.289C44.8246 852.49 51.8925 860.34 61.0933 860.822L61.359 855.752Z" fill="white"/>
<path opacity="0.3" d="M127.51 870.104C129.277 863.943 135.703 860.38 141.865 862.147L143.264 857.267C134.408 854.727 125.169 859.848 122.63 868.704L127.51 870.104Z" fill="white"/>
<path opacity="0.3" d="M426.596 894.313C428.363 888.151 434.789 884.589 440.951 886.356L442.35 881.475C433.493 878.936 424.255 884.057 421.716 892.913L426.596 894.313Z" fill="white"/>
<path opacity="0.3" d="M285.937 848.912C285.602 842.511 290.519 837.05 296.92 836.715L296.654 831.645C287.453 832.127 280.385 839.977 280.867 849.178L285.937 848.912Z" fill="white"/>
<path opacity="0.3" d="M5.43349 973.298C5.09804 966.897 10.0149 961.437 16.4156 961.101L16.1499 956.031C6.9491 956.513 -0.11875 964.363 0.363445 973.564L5.43349 973.298Z" fill="white"/>
<path opacity="0.3" d="M143.64 1216.16C137.37 1217.49 131.208 1213.49 129.875 1207.22L124.909 1208.28C126.825 1217.29 135.683 1223.04 144.695 1221.13L143.64 1216.16Z" fill="white"/>
<path opacity="0.1" fill-rule="evenodd" clip-rule="evenodd" d="M310.967 1175.8C306.761 1175.8 303.351 1179.21 303.351 1183.42C303.351 1187.62 306.761 1191.03 310.967 1191.03C315.172 1191.03 318.582 1187.62 318.582 1183.42C318.582 1179.21 315.172 1175.8 310.967 1175.8Z" fill="white"/>
<path opacity="0.1" fill-rule="evenodd" clip-rule="evenodd" d="M431.545 1296.38C427.339 1296.38 423.929 1299.79 423.929 1303.99C423.929 1308.2 427.339 1311.61 431.545 1311.61C435.751 1311.61 439.16 1308.2 439.16 1303.99C439.16 1299.79 435.751 1296.38 431.545 1296.38Z" fill="white"/>
<path opacity="0.1" fill-rule="evenodd" clip-rule="evenodd" d="M192.926 1251.96C188.72 1251.96 185.31 1255.37 185.31 1259.57C185.31 1263.78 188.72 1267.19 192.926 1267.19C197.131 1267.19 200.541 1263.78 200.541 1259.57C200.541 1255.37 197.131 1251.96 192.926 1251.96Z" fill="white"/>
<path opacity="0.1" fill-rule="evenodd" clip-rule="evenodd" d="M59.654 1178.34C55.4481 1178.34 52.0385 1181.75 52.0385 1185.95C52.0385 1190.16 55.4481 1193.57 59.654 1193.57C63.86 1193.57 67.2695 1190.16 67.2695 1185.95C67.2695 1181.75 63.86 1178.34 59.654 1178.34Z" fill="white"/>
<path opacity="0.1" d="M418.335 1116.46C417.977 1126.73 409.358 1134.77 399.086 1134.41L398.801 1142.55C413.568 1143.06 425.957 1131.51 426.472 1116.75L418.335 1116.46Z" fill="white"/>
<path opacity="0.1" d="M68.7143 1265.16C68.3555 1275.44 59.7371 1283.47 49.4645 1283.11L49.1803 1291.25C63.9469 1291.77 76.3356 1280.21 76.8512 1265.45L68.7143 1265.16Z" fill="white"/>
<path opacity="0.1" d="M77.2381 1111.31C87.1667 1113.97 93.0588 1124.18 90.3984 1134.11L98.263 1136.21C102.087 1121.94 93.6175 1107.27 79.3454 1103.45L77.2381 1111.31Z" fill="white"/>
<path opacity="0.3" d="M24.3292 1138.74C18.0598 1140.07 11.8971 1136.07 10.5644 1129.8L5.5984 1130.85C7.51398 1139.86 16.3726 1145.62 25.3848 1143.7L24.3292 1138.74Z" fill="white"/>
<path opacity="0.3" d="M334.647 1116.63C341.048 1116.96 345.964 1122.42 345.629 1128.82L350.699 1129.09C351.181 1119.89 344.113 1112.04 334.913 1111.56L334.647 1116.63Z" fill="white"/>
<path opacity="0.3" d="M266.414 1267.18C264.647 1273.34 258.22 1276.91 252.059 1275.14L250.66 1280.02C259.516 1282.56 268.755 1277.44 271.294 1268.58L266.414 1267.18Z" fill="white"/>
<path opacity="0.3" d="M17.6405 1243.07C15.8738 1249.23 9.44693 1252.79 3.28571 1251.02L1.8863 1255.9C10.7428 1258.44 19.9812 1253.32 22.5208 1244.47L17.6405 1243.07Z" fill="white"/>
<path opacity="0.3" d="M438.805 1164.08C439.14 1170.48 434.223 1175.94 427.823 1176.28L428.088 1181.35C437.289 1180.87 444.357 1173.02 443.875 1163.82L438.805 1164.08Z" fill="white"/>
<path opacity="0.3" d="M783.024 921.263C789.294 919.931 795.456 923.933 796.789 930.202L801.755 929.147C799.84 920.134 790.981 914.382 781.969 916.297L783.024 921.263Z" fill="white"/>
<path opacity="0.1" d="M664.031 912.517C674.085 910.379 683.968 916.798 686.105 926.852L694.069 925.159C690.997 910.706 676.791 901.481 662.338 904.553L664.031 912.517Z" fill="white"/>
<path opacity="0.1" d="M790.908 1242.77C800.924 1240.46 810.917 1246.7 813.229 1256.72L821.163 1254.89C817.839 1240.49 803.474 1231.51 789.077 1234.84L790.908 1242.77Z" fill="white"/>
<path opacity="0.1" fill-rule="evenodd" clip-rule="evenodd" d="M616.25 961.579C620.456 961.579 623.866 958.17 623.866 953.964C623.866 949.758 620.456 946.348 616.25 946.348C612.044 946.348 608.635 949.758 608.635 953.964C608.635 958.17 612.044 961.579 616.25 961.579Z" fill="white"/>
<path opacity="0.1" fill-rule="evenodd" clip-rule="evenodd" d="M513.461 912.078C517.667 912.078 521.077 908.669 521.077 904.463C521.077 900.257 517.667 896.847 513.461 896.847C509.255 896.847 505.846 900.257 505.846 904.463C505.846 908.669 509.255 912.078 513.461 912.078Z" fill="white"/>
<path opacity="0.1" fill-rule="evenodd" clip-rule="evenodd" d="M589.617 823.231C593.823 823.231 597.233 819.821 597.233 815.615C597.233 811.41 593.823 808 589.617 808C585.412 808 582.002 811.41 582.002 815.615C582.002 819.821 585.412 823.231 589.617 823.231Z" fill="white"/>
<path opacity="0.1" fill-rule="evenodd" clip-rule="evenodd" d="M914.545 837.193C918.751 837.193 922.161 833.783 922.161 829.577C922.161 825.371 918.751 821.962 914.545 821.962C910.339 821.962 906.93 825.371 906.93 829.577C906.93 833.783 910.339 837.193 914.545 837.193Z" fill="white"/>
<path opacity="0.1" fill-rule="evenodd" clip-rule="evenodd" d="M734.311 885.424C738.517 885.424 741.926 882.015 741.926 877.809C741.926 873.603 738.517 870.193 734.311 870.193C730.105 870.193 726.695 873.603 726.695 877.809C726.695 882.015 730.105 885.424 734.311 885.424Z" fill="white"/>
<path opacity="0.1" fill-rule="evenodd" clip-rule="evenodd" d="M867.582 959.041C871.788 959.041 875.198 955.631 875.198 951.425C875.198 947.219 871.788 943.81 867.582 943.81C863.376 943.81 859.967 947.219 859.967 951.425C859.967 955.631 863.376 959.041 867.582 959.041Z" fill="white"/>
<path opacity="0.1" fill-rule="evenodd" clip-rule="evenodd" d="M702.58 1085.97C706.786 1085.97 710.196 1082.56 710.196 1078.35C710.196 1074.14 706.786 1070.73 702.58 1070.73C698.374 1070.73 694.965 1074.14 694.965 1078.35C694.965 1082.56 698.374 1085.97 702.58 1085.97Z" fill="white"/>
<path opacity="0.1" d="M548.479 967.038C548.838 956.765 557.456 948.728 567.729 949.087L568.013 940.95C553.246 940.434 540.858 951.987 540.342 966.754L548.479 967.038Z" fill="white"/>
<path opacity="0.1" d="M858.01 872.216C858.369 861.943 866.987 853.907 877.26 854.265L877.544 846.128C862.778 845.613 850.389 857.165 849.873 871.932L858.01 872.216Z" fill="white"/>
<path opacity="0.1" d="M849.418 1026.83C839.49 1024.17 833.597 1013.96 836.258 1004.04L828.393 1001.93C824.569 1016.2 833.039 1030.87 847.311 1034.69L849.418 1026.83Z" fill="white"/>
<path opacity="0.1" d="M722.492 1191.83C712.564 1189.17 706.672 1178.97 709.332 1169.04L701.468 1166.93C697.643 1181.2 706.113 1195.87 720.385 1199.7L722.492 1191.83Z" fill="white"/>
<path opacity="0.3" d="M902.907 998.645C909.177 997.312 915.339 1001.31 916.672 1007.58L921.638 1006.53C919.722 997.516 910.864 991.763 901.852 993.679L902.907 998.645Z" fill="white"/>
<path opacity="0.3" d="M592.349 1020.98C585.949 1020.64 581.032 1015.18 581.367 1008.78L576.297 1008.51C575.815 1017.71 582.883 1025.56 592.084 1026.05L592.349 1020.98Z" fill="white"/>
<path opacity="0.3" d="M658.479 1127.29C657.256 1121 661.365 1114.91 667.656 1113.69L666.688 1108.7C657.643 1110.46 651.737 1119.22 653.495 1128.26L658.479 1127.29Z" fill="white"/>
<path opacity="0.1" d="M750.679 1042.48C757.557 1034.84 769.325 1034.22 776.963 1041.1L782.411 1035.05C771.431 1025.17 754.515 1026.05 744.628 1037.03L750.679 1042.48Z" fill="white"/>
<path opacity="0.3" d="M710.518 980.793C709.295 974.501 713.404 968.409 719.695 967.186L718.727 962.202C709.683 963.96 703.776 972.717 705.534 981.761L710.518 980.793Z" fill="white"/>
<path opacity="0.1" fill-rule="evenodd" clip-rule="evenodd" d="M865.045 1253.51C869.251 1253.51 872.661 1250.1 872.661 1245.89C872.661 1241.69 869.251 1238.28 865.045 1238.28C860.839 1238.28 857.43 1241.69 857.43 1245.89C857.43 1250.1 860.839 1253.51 865.045 1253.51Z" fill="white"/>
<path opacity="0.3" d="M544.359 855.752C537.958 855.416 533.041 849.956 533.377 843.555L528.307 843.289C527.825 852.49 534.892 860.34 544.093 860.822L544.359 855.752Z" fill="white"/>
<path opacity="0.3" d="M610.51 870.104C612.277 863.943 618.703 860.38 624.865 862.147L626.264 857.267C617.408 854.727 608.169 859.848 605.63 868.704L610.51 870.104Z" fill="white"/>
<path opacity="0.3" d="M909.596 894.313C911.363 888.151 917.789 884.589 923.951 886.356L925.35 881.475C916.493 878.936 907.255 884.057 904.716 892.913L909.596 894.313Z" fill="white"/>
<path opacity="0.3" d="M768.937 848.912C768.602 842.511 773.519 837.05 779.92 836.715L779.654 831.645C770.453 832.127 763.385 839.977 763.867 849.178L768.937 848.912Z" fill="white"/>
<path opacity="0.3" d="M488.433 973.298C488.098 966.897 493.015 961.437 499.416 961.101L499.15 956.031C489.949 956.513 482.881 964.363 483.363 973.564L488.433 973.298Z" fill="white"/>
<path opacity="0.3" d="M626.64 1216.16C620.37 1217.49 614.208 1213.49 612.875 1207.22L607.909 1208.28C609.825 1217.29 618.683 1223.04 627.695 1221.13L626.64 1216.16Z" fill="white"/>
<path opacity="0.1" fill-rule="evenodd" clip-rule="evenodd" d="M793.967 1175.8C789.761 1175.8 786.351 1179.21 786.351 1183.42C786.351 1187.62 789.761 1191.03 793.967 1191.03C798.172 1191.03 801.582 1187.62 801.582 1183.42C801.582 1179.21 798.172 1175.8 793.967 1175.8Z" fill="white"/>
<path opacity="0.1" fill-rule="evenodd" clip-rule="evenodd" d="M914.545 1296.38C910.339 1296.38 906.929 1299.79 906.929 1303.99C906.929 1308.2 910.339 1311.61 914.545 1311.61C918.751 1311.61 922.16 1308.2 922.16 1303.99C922.16 1299.79 918.751 1296.38 914.545 1296.38Z" fill="white"/>
<path opacity="0.1" fill-rule="evenodd" clip-rule="evenodd" d="M675.926 1251.96C671.72 1251.96 668.31 1255.37 668.31 1259.57C668.31 1263.78 671.72 1267.19 675.926 1267.19C680.131 1267.19 683.541 1263.78 683.541 1259.57C683.541 1255.37 680.131 1251.96 675.926 1251.96Z" fill="white"/>
<path opacity="0.1" fill-rule="evenodd" clip-rule="evenodd" d="M542.654 1178.34C538.448 1178.34 535.039 1181.75 535.039 1185.95C535.039 1190.16 538.448 1193.57 542.654 1193.57C546.86 1193.57 550.27 1190.16 550.27 1185.95C550.27 1181.75 546.86 1178.34 542.654 1178.34Z" fill="white"/>
<path opacity="0.1" d="M901.335 1116.46C900.977 1126.73 892.358 1134.77 882.086 1134.41L881.801 1142.55C896.568 1143.06 908.957 1131.51 909.472 1116.75L901.335 1116.46Z" fill="white"/>
<path opacity="0.1" d="M551.714 1265.16C551.356 1275.44 542.737 1283.47 532.465 1283.11L532.18 1291.25C546.947 1291.77 559.336 1280.21 559.851 1265.45L551.714 1265.16Z" fill="white"/>
<path opacity="0.1" d="M560.238 1111.31C570.167 1113.97 576.059 1124.18 573.398 1134.11L581.263 1136.21C585.087 1121.94 576.617 1107.27 562.345 1103.45L560.238 1111.31Z" fill="white"/>
<path opacity="0.3" d="M507.329 1138.74C501.06 1140.07 494.897 1136.07 493.564 1129.8L488.598 1130.85C490.514 1139.86 499.373 1145.62 508.385 1143.7L507.329 1138.74Z" fill="white"/>
<path opacity="0.3" d="M817.647 1116.63C824.048 1116.96 828.964 1122.42 828.629 1128.82L833.699 1129.09C834.181 1119.89 827.113 1112.04 817.913 1111.56L817.647 1116.63Z" fill="white"/>
<path opacity="0.3" d="M749.414 1267.18C747.647 1273.34 741.22 1276.91 735.059 1275.14L733.66 1280.02C742.516 1282.56 751.755 1277.44 754.294 1268.58L749.414 1267.18Z" fill="white"/>
<path opacity="0.3" d="M500.64 1243.07C498.874 1249.23 492.447 1252.79 486.286 1251.02L484.886 1255.9C493.743 1258.44 502.981 1253.32 505.521 1244.47L500.64 1243.07Z" fill="white"/>
<path opacity="0.3" d="M921.805 1164.08C922.14 1170.48 917.223 1175.94 910.823 1176.28L911.088 1181.35C920.289 1180.87 927.357 1173.02 926.875 1163.82L921.805 1164.08Z" fill="white"/>
<path opacity="0.3" d="M1266.02 921.263C1272.29 919.931 1278.46 923.933 1279.79 930.202L1284.76 929.147C1282.84 920.134 1273.98 914.382 1264.97 916.297L1266.02 921.263Z" fill="white"/>
<path opacity="0.1" d="M1147.03 912.517C1157.08 910.379 1166.97 916.798 1169.11 926.852L1177.07 925.159C1174 910.706 1159.79 901.481 1145.34 904.553L1147.03 912.517Z" fill="white"/>
<path opacity="0.1" d="M1273.91 1242.77C1283.92 1240.46 1293.92 1246.7 1296.23 1256.72L1304.16 1254.89C1300.84 1240.49 1286.47 1231.51 1272.08 1234.84L1273.91 1242.77Z" fill="white"/>
<path opacity="0.1" fill-rule="evenodd" clip-rule="evenodd" d="M1099.25 961.579C1103.46 961.579 1106.87 958.17 1106.87 953.964C1106.87 949.758 1103.46 946.348 1099.25 946.348C1095.04 946.348 1091.63 949.758 1091.63 953.964C1091.63 958.17 1095.04 961.579 1099.25 961.579Z" fill="white"/>
<path opacity="0.1" fill-rule="evenodd" clip-rule="evenodd" d="M996.461 912.078C1000.67 912.078 1004.08 908.669 1004.08 904.463C1004.08 900.257 1000.67 896.847 996.461 896.847C992.255 896.847 988.846 900.257 988.846 904.463C988.846 908.669 992.255 912.078 996.461 912.078Z" fill="white"/>
<path opacity="0.1" fill-rule="evenodd" clip-rule="evenodd" d="M1072.62 823.231C1076.82 823.231 1080.23 819.821 1080.23 815.615C1080.23 811.41 1076.82 808 1072.62 808C1068.41 808 1065 811.41 1065 815.615C1065 819.821 1068.41 823.231 1072.62 823.231Z" fill="white"/>
<path opacity="0.1" fill-rule="evenodd" clip-rule="evenodd" d="M1397.55 837.193C1401.75 837.193 1405.16 833.783 1405.16 829.577C1405.16 825.371 1401.75 821.962 1397.55 821.962C1393.34 821.962 1389.93 825.371 1389.93 829.577C1389.93 833.783 1393.34 837.193 1397.55 837.193Z" fill="white"/>
<path opacity="0.1" fill-rule="evenodd" clip-rule="evenodd" d="M1217.31 885.424C1221.52 885.424 1224.93 882.015 1224.93 877.809C1224.93 873.603 1221.52 870.193 1217.31 870.193C1213.1 870.193 1209.7 873.603 1209.7 877.809C1209.7 882.015 1213.1 885.424 1217.31 885.424Z" fill="white"/>
<path opacity="0.1" fill-rule="evenodd" clip-rule="evenodd" d="M1350.58 959.041C1354.79 959.041 1358.2 955.631 1358.2 951.425C1358.2 947.219 1354.79 943.81 1350.58 943.81C1346.38 943.81 1342.97 947.219 1342.97 951.425C1342.97 955.631 1346.38 959.041 1350.58 959.041Z" fill="white"/>
<path opacity="0.1" fill-rule="evenodd" clip-rule="evenodd" d="M1185.58 1085.97C1189.79 1085.97 1193.2 1082.56 1193.2 1078.35C1193.2 1074.14 1189.79 1070.73 1185.58 1070.73C1181.37 1070.73 1177.96 1074.14 1177.96 1078.35C1177.96 1082.56 1181.37 1085.97 1185.58 1085.97Z" fill="white"/>
<path opacity="0.1" d="M1031.48 967.038C1031.84 956.765 1040.46 948.728 1050.73 949.087L1051.01 940.95C1036.25 940.434 1023.86 951.987 1023.34 966.754L1031.48 967.038Z" fill="white"/>
<path opacity="0.1" d="M1341.01 872.216C1341.37 861.943 1349.99 853.907 1360.26 854.265L1360.54 846.128C1345.78 845.613 1333.39 857.165 1332.87 871.932L1341.01 872.216Z" fill="white"/>
<path opacity="0.1" d="M1332.42 1026.83C1322.49 1024.17 1316.6 1013.96 1319.26 1004.04L1311.39 1001.93C1307.57 1016.2 1316.04 1030.87 1330.31 1034.69L1332.42 1026.83Z" fill="white"/>
<path opacity="0.1" d="M1205.49 1191.83C1195.56 1189.17 1189.67 1178.97 1192.33 1169.04L1184.47 1166.93C1180.64 1181.2 1189.11 1195.87 1203.39 1199.7L1205.49 1191.83Z" fill="white"/>
<path opacity="0.3" d="M1385.91 998.645C1392.18 997.312 1398.34 1001.31 1399.67 1007.58L1404.64 1006.53C1402.72 997.516 1393.86 991.763 1384.85 993.679L1385.91 998.645Z" fill="white"/>
<path opacity="0.3" d="M1075.35 1020.98C1068.95 1020.64 1064.03 1015.18 1064.37 1008.78L1059.3 1008.51C1058.81 1017.71 1065.88 1025.56 1075.08 1026.05L1075.35 1020.98Z" fill="white"/>
<path opacity="0.3" d="M1141.48 1127.29C1140.26 1121 1144.36 1114.91 1150.66 1113.69L1149.69 1108.7C1140.64 1110.46 1134.74 1119.22 1136.49 1128.26L1141.48 1127.29Z" fill="white"/>
<path opacity="0.1" d="M1233.68 1042.48C1240.56 1034.84 1252.32 1034.22 1259.96 1041.1L1265.41 1035.05C1254.43 1025.17 1237.51 1026.05 1227.63 1037.03L1233.68 1042.48Z" fill="white"/>
<path opacity="0.3" d="M1193.52 980.793C1192.29 974.501 1196.4 968.409 1202.7 967.186L1201.73 962.202C1192.68 963.96 1186.78 972.717 1188.53 981.761L1193.52 980.793Z" fill="white"/>
<path opacity="0.1" fill-rule="evenodd" clip-rule="evenodd" d="M1348.05 1253.51C1352.25 1253.51 1355.66 1250.1 1355.66 1245.89C1355.66 1241.69 1352.25 1238.28 1348.05 1238.28C1343.84 1238.28 1340.43 1241.69 1340.43 1245.89C1340.43 1250.1 1343.84 1253.51 1348.05 1253.51Z" fill="white"/>
<path opacity="0.3" d="M1027.36 855.752C1020.96 855.416 1016.04 849.956 1016.38 843.555L1011.31 843.289C1010.82 852.49 1017.89 860.34 1027.09 860.822L1027.36 855.752Z" fill="white"/>
<path opacity="0.3" d="M1093.51 870.104C1095.28 863.943 1101.7 860.38 1107.86 862.147L1109.26 857.267C1100.41 854.727 1091.17 859.848 1088.63 868.704L1093.51 870.104Z" fill="white"/>
<path opacity="0.3" d="M1392.6 894.313C1394.36 888.151 1400.79 884.589 1406.95 886.356L1408.35 881.475C1399.49 878.936 1390.26 884.057 1387.72 892.913L1392.6 894.313Z" fill="white"/>
<path opacity="0.3" d="M1251.94 848.912C1251.6 842.511 1256.52 837.05 1262.92 836.715L1262.65 831.645C1253.45 832.127 1246.39 839.977 1246.87 849.178L1251.94 848.912Z" fill="white"/>
<path opacity="0.3" d="M971.433 973.298C971.098 966.897 976.015 961.437 982.416 961.101L982.15 956.031C972.949 956.513 965.881 964.363 966.363 973.564L971.433 973.298Z" fill="white"/>
<path opacity="0.3" d="M1109.64 1216.16C1103.37 1217.49 1097.21 1213.49 1095.87 1207.22L1090.91 1208.28C1092.82 1217.29 1101.68 1223.04 1110.7 1221.13L1109.64 1216.16Z" fill="white"/>
<path opacity="0.1" fill-rule="evenodd" clip-rule="evenodd" d="M1276.97 1175.8C1272.76 1175.8 1269.35 1179.21 1269.35 1183.42C1269.35 1187.62 1272.76 1191.03 1276.97 1191.03C1281.17 1191.03 1284.58 1187.62 1284.58 1183.42C1284.58 1179.21 1281.17 1175.8 1276.97 1175.8Z" fill="white"/>
<path opacity="0.1" fill-rule="evenodd" clip-rule="evenodd" d="M1397.54 1296.38C1393.34 1296.38 1389.93 1299.79 1389.93 1303.99C1389.93 1308.2 1393.34 1311.61 1397.54 1311.61C1401.75 1311.61 1405.16 1308.2 1405.16 1303.99C1405.16 1299.79 1401.75 1296.38 1397.54 1296.38Z" fill="white"/>
<path opacity="0.1" fill-rule="evenodd" clip-rule="evenodd" d="M1158.93 1251.96C1154.72 1251.96 1151.31 1255.37 1151.31 1259.57C1151.31 1263.78 1154.72 1267.19 1158.93 1267.19C1163.13 1267.19 1166.54 1263.78 1166.54 1259.57C1166.54 1255.37 1163.13 1251.96 1158.93 1251.96Z" fill="white"/>
<path opacity="0.1" fill-rule="evenodd" clip-rule="evenodd" d="M1025.65 1178.34C1021.45 1178.34 1018.04 1181.75 1018.04 1185.95C1018.04 1190.16 1021.45 1193.57 1025.65 1193.57C1029.86 1193.57 1033.27 1190.16 1033.27 1185.95C1033.27 1181.75 1029.86 1178.34 1025.65 1178.34Z" fill="white"/>
<path opacity="0.1" d="M1384.34 1116.46C1383.98 1126.73 1375.36 1134.77 1365.09 1134.41L1364.8 1142.55C1379.57 1143.06 1391.96 1131.51 1392.47 1116.75L1384.34 1116.46Z" fill="white"/>
<path opacity="0.1" d="M1034.71 1265.16C1034.36 1275.44 1025.74 1283.47 1015.46 1283.11L1015.18 1291.25C1029.95 1291.77 1042.34 1280.21 1042.85 1265.45L1034.71 1265.16Z" fill="white"/>
<path opacity="0.1" d="M1043.24 1111.31C1053.17 1113.97 1059.06 1124.18 1056.4 1134.11L1064.26 1136.21C1068.09 1121.94 1059.62 1107.27 1045.35 1103.45L1043.24 1111.31Z" fill="white"/>
<path opacity="0.3" d="M990.329 1138.74C984.06 1140.07 977.897 1136.07 976.564 1129.8L971.598 1130.85C973.514 1139.86 982.373 1145.62 991.385 1143.7L990.329 1138.74Z" fill="white"/>
<path opacity="0.3" d="M1300.65 1116.63C1307.05 1116.96 1311.96 1122.42 1311.63 1128.82L1316.7 1129.09C1317.18 1119.89 1310.11 1112.04 1300.91 1111.56L1300.65 1116.63Z" fill="white"/>
<path opacity="0.3" d="M1232.41 1267.18C1230.65 1273.34 1224.22 1276.91 1218.06 1275.14L1216.66 1280.02C1225.52 1282.56 1234.75 1277.44 1237.29 1268.58L1232.41 1267.18Z" fill="white"/>
<path opacity="0.3" d="M983.64 1243.07C981.874 1249.23 975.447 1252.79 969.286 1251.02L967.886 1255.9C976.743 1258.44 985.981 1253.32 988.521 1244.47L983.64 1243.07Z" fill="white"/>
<path opacity="0.3" d="M1404.8 1164.08C1405.14 1170.48 1400.22 1175.94 1393.82 1176.28L1394.09 1181.35C1403.29 1180.87 1410.36 1173.02 1409.87 1163.82L1404.8 1164.08Z" fill="white"/>
</g>
<defs>
<clipPath id="clip0_92_1596">
<rect width="1440" height="1306" fill="white"/>
</clipPath>
</defs>
</svg>
