<svg width="221" height="221" viewBox="0 0 221 221" fill="none" xmlns="http://www.w3.org/2000/svg">
<g opacity="0.8" clip-path="url(#clip0_92_2079)">
<path d="M200.992 99.4648C201.792 96.4871 201.882 93.3629 201.254 90.344C200.627 87.3251 199.298 84.4959 197.377 82.0843C195.455 79.6727 192.994 77.7462 190.192 76.4599C187.389 75.1736 184.324 74.5636 181.243 74.679C178.161 74.7944 175.15 75.632 172.452 77.1242C169.753 78.6164 167.443 80.7216 165.707 83.2702C163.972 85.8187 162.859 88.7393 162.458 91.7967C162.058 94.8542 162.382 97.9629 163.403 100.872L139.202 118.41L132.918 76.4202C136.575 74.7083 139.617 71.9134 141.632 68.4143C143.647 64.9153 144.537 60.8813 144.182 56.8592C143.827 52.837 142.244 49.0213 139.648 45.9292C137.051 42.837 133.566 40.618 129.666 39.573C125.766 38.5279 121.639 38.7074 117.844 40.0869C114.049 41.4665 110.771 43.9795 108.452 47.2854C106.134 50.5912 104.888 54.5299 104.883 58.5676C104.879 62.6054 106.116 66.5469 108.427 69.8579L82.0356 103.07L69.8461 75.7821C73.1011 72.9837 75.3522 69.1981 76.2567 65.0019C77.1612 60.8058 76.6695 56.429 74.8564 52.5381C73.0434 48.6472 70.0084 45.4555 66.2136 43.4491C62.4188 41.4427 58.0723 40.7315 53.8359 41.4238C49.5996 42.1161 45.7056 44.174 42.747 47.2841C39.7884 50.3942 37.9273 54.386 37.4472 58.6517C36.9672 62.9173 37.8944 67.2229 40.0876 70.9128C42.2809 74.6028 45.62 77.4748 49.5965 79.0914L43.6184 140.739C43.3614 143.39 44.0528 146.045 45.5697 148.234C47.0866 150.422 49.3306 152.002 51.9026 152.691L140.493 176.429C143.065 177.118 145.798 176.872 148.206 175.735C150.614 174.598 152.541 172.644 153.643 170.22L179.276 113.868C184.029 114.526 188.859 113.425 192.858 110.773C196.856 108.121 199.749 104.1 200.992 99.4648ZM126.771 50.4603C128.383 50.8922 129.83 51.7924 130.931 53.0471C132.031 54.3018 132.735 55.8545 132.952 57.509C133.17 59.1635 132.892 60.8455 132.154 62.3421C131.416 63.8388 130.251 65.083 128.806 65.9174C127.361 66.7518 125.7 67.1389 124.035 67.0298C122.37 66.9206 120.775 66.3201 119.451 65.3042C118.127 64.2884 117.134 62.9027 116.597 61.3225C116.061 59.7423 116.005 58.0385 116.437 56.4265C117.016 54.265 118.43 52.4221 120.368 51.3032C122.306 50.1844 124.609 49.8812 126.771 50.4603ZM48.8582 58.7008C49.2901 57.0889 50.1903 55.6413 51.445 54.541C52.6996 53.4407 54.2524 52.7371 55.9069 52.5193C57.5614 52.3015 59.2433 52.5792 60.74 53.3173C62.2367 54.0554 63.4809 55.2207 64.3153 56.6659C65.1497 58.1111 65.5368 59.7713 65.4276 61.4365C65.3185 63.1017 64.718 64.6971 63.7021 66.0211C62.6862 67.345 61.3006 68.3379 59.7203 68.8744C58.1401 69.4108 56.4363 69.4665 54.8244 69.0346C52.6629 68.4555 50.82 67.0413 49.7011 65.1034C48.5822 63.1654 48.279 60.8624 48.8582 58.7008ZM143.405 165.563L54.8143 141.825L60.5522 82.5948L75.5505 116.08C75.8875 116.849 76.3921 117.532 77.0274 118.08C77.6628 118.628 78.4126 119.027 79.2222 119.248C79.4672 119.315 79.7165 119.364 79.9684 119.397C80.9278 119.519 81.9024 119.392 82.7982 119.027C83.6941 118.663 84.4808 118.074 85.0826 117.317L117.248 76.8729C118.712 77.469 120.245 77.8798 121.812 78.0958L129.446 129.204C129.588 130.16 129.975 131.064 130.569 131.827C131.162 132.591 131.943 133.188 132.835 133.562C133.069 133.66 133.31 133.742 133.555 133.806C134.367 134.02 135.216 134.049 136.04 133.892C136.864 133.735 137.643 133.396 138.319 132.899L168.058 111.372L143.405 165.563ZM179.791 102.519C178.179 102.087 176.732 101.187 175.631 99.9326C174.531 98.6779 173.827 97.1252 173.61 95.4707C173.392 93.8162 173.669 92.1342 174.407 90.6375C175.146 89.1409 176.311 87.8967 177.756 87.0623C179.201 86.2279 180.862 85.8408 182.527 85.9499C184.192 86.0591 185.787 86.6595 187.111 87.6754C188.435 88.6913 189.428 90.077 189.965 91.6572C190.501 93.2374 190.557 94.9412 190.125 96.5531C189.546 98.7146 188.132 100.558 186.194 101.676C184.256 102.795 181.953 103.099 179.791 102.519Z" fill="#FF3D9A"/>
</g>
<defs>
<clipPath id="clip0_92_2079">
<rect width="180" height="180" fill="white" transform="translate(47.1172) rotate(15)"/>
</clipPath>
</defs>
</svg>
