<svg width="222" height="222" viewBox="0 0 222 222" fill="none" xmlns="http://www.w3.org/2000/svg">
<g id="question" opacity="0.8">
<g id="Vector">
<path d="M121.275 123.267C120.502 123.654 119.886 124.295 119.531 125.083C119.176 125.872 119.105 126.759 119.329 127.594L121.416 135.385C121.803 136.826 121.6 138.361 120.855 139.653C120.109 140.945 118.88 141.888 117.439 142.274C115.998 142.66 114.463 142.458 113.171 141.712C111.879 140.966 110.936 139.738 110.55 138.297L106.355 122.641C105.987 121.266 106.154 119.803 106.822 118.546C107.49 117.289 108.61 116.332 109.956 115.869C116.276 113.694 125.16 108.961 131.533 102C137.752 95.2016 141.349 86.6169 138.467 75.8625C135.691 65.503 129.923 59.3499 123.065 56.0823C116.042 52.7347 107.371 52.1929 98.7407 54.1483C80.8753 58.1938 66.8252 71.6681 67.446 86.6194C67.5082 88.1101 66.9757 89.5645 65.9656 90.6626C64.9555 91.7607 63.5506 92.4126 62.0599 92.4748C60.5691 92.537 59.1147 92.0045 58.0166 90.9944C56.9185 89.9843 56.2667 88.5794 56.2044 87.0886C55.7304 75.6698 60.5757 65.9197 68.2011 58.3442C75.8658 50.7272 86.2188 45.449 96.2593 43.1779C106.757 40.8 118.107 41.2568 127.906 45.9257C137.876 50.6773 145.746 59.5631 149.334 72.9508C153.447 88.3018 147.959 100.712 139.834 109.594C134.333 115.607 127.522 120.153 121.278 123.263M115.663 171.867C114.89 168.985 115.295 165.914 116.787 163.33C118.278 160.747 120.736 158.861 123.618 158.089C126.5 157.317 129.57 157.721 132.154 159.213C134.738 160.705 136.624 163.162 137.396 166.044C138.168 168.926 137.764 171.997 136.272 174.58C134.78 177.164 132.323 179.05 129.441 179.822C126.559 180.594 123.488 180.19 120.904 178.698C118.32 177.206 116.435 174.749 115.663 171.867Z" fill="white"/>
<path d="M121.275 123.267C120.502 123.654 119.886 124.295 119.531 125.083C119.176 125.872 119.105 126.759 119.329 127.594L121.416 135.385C121.803 136.826 121.6 138.361 120.855 139.653C120.109 140.945 118.88 141.888 117.439 142.274C115.998 142.66 114.463 142.458 113.171 141.712C111.879 140.966 110.936 139.738 110.55 138.297L106.355 122.641C105.987 121.266 106.154 119.803 106.822 118.546C107.49 117.289 108.61 116.332 109.956 115.869C116.276 113.694 125.16 108.961 131.533 102C137.752 95.2016 141.349 86.6169 138.467 75.8625C135.691 65.503 129.923 59.3499 123.065 56.0823C116.042 52.7347 107.371 52.1929 98.7407 54.1483C80.8753 58.1938 66.8252 71.6681 67.446 86.6194C67.5082 88.1101 66.9757 89.5645 65.9656 90.6626C64.9555 91.7607 63.5506 92.4126 62.0599 92.4748C60.5691 92.537 59.1147 92.0045 58.0166 90.9944C56.9185 89.9843 56.2667 88.5794 56.2044 87.0886C55.7304 75.6698 60.5757 65.9197 68.2011 58.3442C75.8658 50.7272 86.2188 45.449 96.2593 43.1779C106.757 40.8 118.107 41.2568 127.906 45.9257C137.876 50.6773 145.746 59.5631 149.334 72.9508C153.447 88.3018 147.959 100.712 139.834 109.594C134.333 115.607 127.522 120.153 121.278 123.263M115.663 171.867C114.89 168.985 115.295 165.914 116.787 163.33C118.278 160.747 120.736 158.861 123.618 158.089C126.5 157.317 129.57 157.721 132.154 159.213C134.738 160.705 136.624 163.162 137.396 166.044C138.168 168.926 137.764 171.997 136.272 174.58C134.78 177.164 132.323 179.05 129.441 179.822C126.559 180.594 123.488 180.19 120.904 178.698C118.32 177.206 116.435 174.749 115.663 171.867Z" stroke="white" stroke-width="2" stroke-linecap="round" stroke-linejoin="round"/>
</g>
</g>
</svg>
