<svg width="222" height="222" viewBox="0 0 222 222" fill="none" xmlns="http://www.w3.org/2000/svg">
    <g opacity="0.8">
        <path d="M121.277 123.268C120.504 123.654 119.888 124.295 119.533 125.084C119.178 125.872 119.107 126.759 119.331 127.594L121.418 135.385C121.805 136.826 121.602 138.362 120.856 139.654C120.111 140.946 118.882 141.888 117.441 142.274C116 142.66 114.465 142.458 113.173 141.712C111.881 140.966 110.938 139.738 110.552 138.297L106.357 122.642C105.989 121.267 106.156 119.803 106.824 118.546C107.492 117.289 108.612 116.333 109.958 115.869C116.278 113.694 125.162 108.961 131.535 102C137.754 95.2019 141.351 86.6171 138.469 75.8628C135.693 65.5032 129.925 59.3501 123.067 56.0825C116.044 52.735 107.373 52.1932 98.7427 54.1485C80.8772 58.194 66.8271 71.6683 67.448 86.6196C67.5102 88.1103 66.9777 89.5647 65.9676 90.6628C64.9575 91.7609 63.5525 92.4128 62.0618 92.475C60.5711 92.5373 59.1167 92.0048 58.0186 90.9947C56.9205 89.9846 56.2686 88.5796 56.2064 87.0889C55.7323 75.67 60.5777 65.9199 68.2031 58.3445C75.8678 50.7274 86.2207 45.4493 96.2613 43.1782C106.759 40.8003 118.108 41.257 127.908 45.926C137.878 50.6776 145.748 59.5633 149.336 72.951C153.449 88.302 147.961 100.713 139.836 109.595C134.335 115.607 127.524 120.153 121.28 123.263M115.665 171.867C114.892 168.985 115.297 165.915 116.789 163.331C118.28 160.747 120.738 158.861 123.62 158.089C126.502 157.317 129.572 157.721 132.156 159.213C134.74 160.705 136.626 163.162 137.398 166.044C138.17 168.926 137.766 171.997 136.274 174.581C134.782 177.165 132.325 179.05 129.443 179.822C126.561 180.595 123.49 180.19 120.906 178.699C118.322 177.207 116.437 174.749 115.665 171.867Z" fill="#00A7E5"/>
        <path d="M121.277 123.268C120.504 123.654 119.888 124.295 119.533 125.084C119.178 125.872 119.107 126.759 119.331 127.594L121.418 135.385C121.805 136.826 121.602 138.362 120.856 139.654C120.111 140.946 118.882 141.888 117.441 142.274C116 142.66 114.465 142.458 113.173 141.712C111.881 140.966 110.938 139.738 110.552 138.297L106.357 122.642C105.989 121.267 106.156 119.803 106.824 118.546C107.492 117.289 108.612 116.333 109.958 115.869C116.278 113.694 125.162 108.961 131.535 102C137.754 95.2019 141.35 86.6171 138.469 75.8628C135.693 65.5032 129.925 59.3501 123.067 56.0825C116.044 52.735 107.373 52.1932 98.7427 54.1485C80.8772 58.194 66.8271 71.6683 67.448 86.6196C67.5102 88.1103 66.9777 89.5647 65.9676 90.6628C64.9575 91.7609 63.5525 92.4128 62.0618 92.475C60.5711 92.5373 59.1167 92.0048 58.0186 90.9947C56.9205 89.9846 56.2686 88.5796 56.2064 87.0889C55.7323 75.67 60.5777 65.9199 68.2031 58.3445C75.8678 50.7274 86.2207 45.4493 96.2613 43.1782C106.759 40.8003 118.108 41.257 127.908 45.926C137.878 50.6776 145.748 59.5633 149.336 72.951C153.449 88.302 147.961 100.713 139.836 109.595C134.335 115.607 127.524 120.153 121.28 123.263M115.665 171.867C114.892 168.985 115.297 165.915 116.789 163.331C118.28 160.747 120.738 158.861 123.62 158.089C126.502 157.317 129.572 157.721 132.156 159.213C134.74 160.705 136.626 163.162 137.398 166.044C138.17 168.926 137.766 171.997 136.274 174.581C134.782 177.165 132.325 179.05 129.443 179.822C126.561 180.595 123.49 180.19 120.906 178.699C118.322 177.207 116.437 174.749 115.665 171.867Z" stroke="#00A7E5" stroke-width="2" stroke-linecap="round" stroke-linejoin="round"/>
    </g>
</svg>
