<svg width="20" height="20" fill="none" xmlns="http://www.w3.org/2000/svg"><g id="Frame"><path id="Fill 3.1" fill-rule="evenodd" clip-rule="evenodd" d="M16.163 10.598c0-2.664 2.258-3.89 2.258-3.89s-1.48-2.243-3.794-2.243c-1.717 0-2.628 1.006-3.785 1.006-1.376 0-2.087-1.006-3.795-1.006C5.102 4.465 2 6.219 2 10.598 2 14.814 5.064 20 7.436 20c1.243 0 1.793-.814 3.424-.814 1.88 0 1.974.814 3.387.814C16.761 20 19 14.681 19 14.681s-2.837-.92-2.837-4.082zM14.232 0c-1.764.144-4.269 1.984-3.927 4.715 2.324.086 4.269-2.568 3.927-4.715z" fill="#121212"/></g></svg>