<svg width="125" height="143" fill="none" xmlns="http://www.w3.org/2000/svg"><path id="Vector" d="M88.427 89.35l15.27-5.857a12.254 12.254 0 019.375.244l3.28 1.46a12.253 12.253 0 016.21 16.178l-14.952 33.583a12.256 12.256 0 01-16.178 6.21l-3.28-1.46a12.253 12.253 0 01-6.454-6.804l-5.865-15.266a24.508 24.508 0 01-26.86 4.626l-33.584-14.952a24.508 24.508 0 01-12.42-32.356L7.951 63.76a24.507 24.507 0 0132.357-12.42l33.583 14.952A24.514 24.514 0 0188.427 89.35zm-2.183-61.962a27.571 27.571 0 11-16.577 31.417 30.635 30.635 0 1116.577-31.418zM48.398 48.236A18.38 18.38 0 1063.35 14.653a18.38 18.38 0 00-14.952 33.583zm41.978 18.69a15.317 15.317 0 1012.46-27.987 15.317 15.317 0 00-12.46 27.987z" fill="#7648C3"/></svg>