<svg width="222" height="222" fill="none" xmlns="http://www.w3.org/2000/svg"><g opacity=".8" clip-path="url(#clip0_92_2143)"><path d="M50.027 74.993c4.432-16.249 13.578-26.998 25.748-30.259l32.6-8.735c12.171-3.261 25.465 1.475 37.428 13.33 11.179 11.076 20.051 27.319 24.965 45.657 4.913 18.337 5.351 36.84 1.208 52.021-4.433 16.249-13.578 26.998-25.749 30.259l-32.6 8.735c-12.17 3.261-25.465-1.475-37.427-13.331-11.18-11.075-20.052-27.318-24.965-45.656-4.914-18.337-5.351-36.84-1.208-52.021zm10.761 43.638l21.733-5.823a107.426 107.426 0 01-2.16-34.362l-20.776 5.567c-1.722 10.2-1.441 22.224 1.203 34.618zm2.344-47.215l19.512-5.229a58.445 58.445 0 015.239-13.05L78.687 55.6c-6.792 1.82-12.084 7.605-15.555 15.815zm96.769 26.481c-8.68-32.396-30.956-55.763-48.614-51.031-17.659 4.731-25.266 36.105-16.586 68.501 8.681 32.397 30.956 55.764 48.615 51.032 17.658-4.732 25.266-36.106 16.585-68.502zm-49.185 77.237l9.175-2.458a58.456 58.456 0 01-11.061-8.683l-19.513 5.228c7.131 5.369 14.607 7.733 21.399 5.913zm-30.75-15.054l20.77-5.565a107.425 107.425 0 01-15.31-30.839L63.693 129.5c3.914 12.054 9.682 22.606 16.274 30.58z" fill="url(#paint0_linear_92_2143)"/></g><defs><linearGradient id="paint0_linear_92_2143" x1="151.842" y1="24.352" x2="154.403" y2="196.394" gradientUnits="userSpaceOnUse"><stop stop-color="#3B46EE"/><stop offset="1" stop-color="#7F3DEA"/></linearGradient><clipPath id="clip0_92_2143"><path fill="#fff" transform="scale(-1 1) rotate(15 -90.256 -662.879)" d="M0 0h180v180H0z"/></clipPath></defs></svg>