<svg width="138" height="121" fill="none" xmlns="http://www.w3.org/2000/svg"><path id="ecg" d="M13.332 79.425L1.373 52.568c-1.222-2.745-1.306-5.492-.25-8.241 1.054-2.749 2.954-4.734 5.7-5.957L90.427 1.148c2.745-1.222 5.492-1.306 8.24-.25 2.75 1.054 4.735 2.954 5.957 5.7l14.643 32.887a20.184 20.184 0 00-3.769.564 21.794 21.794 0 00-3.568 1.238 26.69 26.69 0 00-5.861 3.586 32.311 32.311 0 00-4.975 4.982 23.392 23.392 0 00-7.947.433l-.26-.585c-.593-1.331-1.571-2.244-2.935-2.738-1.364-.495-2.729-.438-4.094.17L72.95 52.88 54.54 37.738a3.678 3.678 0 00-2.205-.803 5.301 5.301 0 00-2.368.46 5.123 5.123 0 00-1.9 1.44A3.707 3.707 0 0047.212 41l-2.03 44.155-13.624-11.14c-.684-.596-1.44-.936-2.27-1.018a4.626 4.626 0 00-2.372.38l-13.586 6.05zm29.784 40.459c-2.745 1.222-5.492 1.306-8.241.251-2.749-1.056-4.734-2.956-5.956-5.701L16.96 87.576l11.025-4.908L46.399 97.81c.683.597 1.448.933 2.295 1.007a4.782 4.782 0 002.399-.392 4.625 4.625 0 001.87-1.509c.494-.67.756-1.442.785-2.315l2.006-44.207 13.625 11.139c.633.486 1.295.8 1.985.944.69.144 1.408.116 2.155-.083l4.441-1.977c-3.289 3.618-5.374 8-6.255 13.147-.881 5.146-.239 10.151 1.926 15.014 1.384 3.107 2.966 5.56 4.748 7.36 1.782 1.798 4.167 3.485 7.155 5.059l-42.418 18.886zM92.78 64.088c2.062-.918 4.19-1.319 6.383-1.202 2.194.117 4.437.726 6.729 1.825l2.121.684.881-1.958c.737-2.49 1.795-4.589 3.176-6.297 1.38-1.708 3.102-3.022 5.164-3.94 3.644-1.622 7.329-1.704 11.054-.245 3.726 1.46 6.408 4.029 8.046 7.707 1.281 2.877 1.418 6.212.409 10.004-1.008 3.793-3.911 10.743-8.71 20.852l-2.294 5.028c-.52 1.234-1.406 2.13-2.66 2.688-1.254.558-2.513.618-3.777.179l-5.272-1.66c-10.724-3.198-17.832-5.691-21.325-7.48-3.492-1.788-5.88-4.12-7.16-6.998-1.638-3.679-1.752-7.39-.344-11.136 1.409-3.745 3.935-6.429 7.579-8.051z" fill="#FF3D9A"/></svg>