<svg width="56" height="56" fill="none" xmlns="http://www.w3.org/2000/svg"><g id="logos:telegram" clip-path="url(#clip0_92_2421)"><g id="Vector"><path d="M28 0A27.996 27.996 0 008.203 8.2 28.008 28.008 0 000 28c0 7.423 2.953 14.55 8.203 19.8a27.996 27.996 0 0039.594 0A28.009 28.009 0 0056 28c0-7.423-2.953-14.55-8.203-19.8A27.996 27.996 0 0028 0z" fill="url(#paint0_radial_92_2421)"/><path d="M28 0A27.996 27.996 0 008.203 8.2 28.008 28.008 0 000 28c0 7.423 2.953 14.55 8.203 19.8a27.996 27.996 0 0039.594 0A28.009 28.009 0 0056 28c0-7.423-2.953-14.55-8.203-19.8A27.996 27.996 0 0028 0z" fill="url(#paint1_radial_92_2421)"/></g><g id="Group"><path id="Vector_2" d="M28.001 12.687c-4.158 0-4.68.019-6.313.093-1.63.075-2.743.333-3.717.711a7.496 7.496 0 00-2.713 1.766 7.517 7.517 0 00-1.767 2.712c-.38.974-.638 2.087-.711 3.717-.073 1.633-.092 2.155-.092 6.314 0 4.159.018 4.679.092 6.312.075 1.63.333 2.743.711 3.717a7.503 7.503 0 001.766 2.712 7.499 7.499 0 002.712 1.768c.974.378 2.087.636 3.717.711 1.634.074 2.155.093 6.314.093 4.159 0 4.679-.019 6.312-.093 1.63-.075 2.744-.333 3.719-.711a7.49 7.49 0 002.71-1.768 7.517 7.517 0 001.768-2.712c.376-.974.634-2.087.711-3.717.073-1.633.093-2.153.093-6.312 0-4.159-.02-4.68-.093-6.314-.077-1.63-.335-2.743-.711-3.716a7.517 7.517 0 00-1.768-2.713 7.482 7.482 0 00-2.711-1.766c-.977-.378-2.09-.637-3.72-.711-1.633-.074-2.153-.093-6.313-.093H28zm-1.373 2.76H28c4.089 0 4.573.014 6.188.088 1.493.068 2.303.317 2.843.527.715.278 1.224.61 1.76 1.145a4.752 4.752 0 011.146 1.761c.21.54.459 1.35.527 2.843.073 1.614.09 2.099.09 6.185 0 4.087-.017 4.572-.09 6.186-.068 1.493-.318 2.303-.527 2.843a4.733 4.733 0 01-1.146 1.759 4.736 4.736 0 01-1.76 1.145c-.54.21-1.35.46-2.843.527-1.614.074-2.099.09-6.188.09-4.088 0-4.573-.016-6.187-.09-1.493-.068-2.303-.318-2.844-.528a4.745 4.745 0 01-1.76-1.145 4.747 4.747 0 01-1.146-1.76c-.21-.539-.46-1.35-.528-2.842-.073-1.614-.088-2.1-.088-6.188 0-4.09.015-4.572.088-6.186.069-1.493.318-2.303.528-2.843a4.744 4.744 0 011.146-1.761 4.75 4.75 0 011.76-1.146c.54-.21 1.35-.46 2.844-.528 1.413-.064 1.96-.083 4.814-.086v.004zm9.547 2.542a1.837 1.837 0 100 3.676 1.837 1.837 0 000-3.676zm-8.174 2.147a7.864 7.864 0 10.002 15.728A7.864 7.864 0 0028 20.136zm0 2.76a5.104 5.104 0 110 10.208 5.104 5.104 0 010-10.208z" fill="#fff"/></g></g><defs><radialGradient id="paint0_radial_92_2421" cx="0" cy="0" r="1" gradientUnits="userSpaceOnUse" gradientTransform="scale(51.6195 55.5002) rotate(-90 .687 .4)"><stop stop-color="#FD5"/><stop offset=".1" stop-color="#FD5"/><stop offset=".5" stop-color="#FF543E"/><stop offset="1" stop-color="#C837AB"/></radialGradient><radialGradient id="paint1_radial_92_2421" cx="0" cy="0" r="1" gradientUnits="userSpaceOnUse" gradientTransform="rotate(78.681 -7.15 -3.705) scale(24.8089 102.263)"><stop stop-color="#3771C8"/><stop offset=".128" stop-color="#3771C8"/><stop offset="1" stop-color="#60F" stop-opacity="0"/></radialGradient><clipPath id="clip0_92_2421"><path fill="#fff" d="M0 0h56v56H0z"/></clipPath></defs></svg>