<svg width="56" height="56" fill="none" xmlns="http://www.w3.org/2000/svg"><g id="pdf-file-svgrepo-com 1" clip-path="url(#clip0_244_2104)"><g id="Group" fill="#FF5939"><path id="Vector" d="M16.496 36.029c0-.93-.645-1.485-1.784-1.485-.465 0-.78.046-.944.09v2.984c.195.043.434.058.765.058 1.213 0 1.963-.613 1.963-1.647z"/><path id="Vector_2" d="M23.545 34.575c-.51 0-.84.044-1.035.09v6.608c.195.046.51.046.795.046 2.068.015 3.417-1.124 3.417-3.537.015-2.098-1.214-3.207-3.177-3.207z"/><path id="Vector_3" d="M36.64 0H14.148a5.969 5.969 0 00-5.96 5.96V28h-.582a2.401 2.401 0 00-2.402 2.402v14.565a2.401 2.401 0 002.402 2.402h.582v2.67a5.967 5.967 0 005.96 5.96h30.69a5.967 5.967 0 005.958-5.96V14.107L36.64 0zM11.505 33.03c.704-.119 1.693-.208 3.087-.208 1.409 0 2.413.269 3.087.809.645.509 1.08 1.349 1.08 2.337 0 .989-.33 1.83-.93 2.398-.78.734-1.933 1.064-3.282 1.064-.3 0-.57-.015-.78-.044v3.612h-2.262V33.03zm33.332 19.32H14.148a2.312 2.312 0 01-2.308-2.31v-2.671h28.608a2.401 2.401 0 002.402-2.402V30.402A2.401 2.401 0 0040.448 28H11.84V5.96a2.311 2.311 0 012.308-2.306l21.127-.022v7.809c0 2.28 1.85 4.133 4.133 4.133l7.65-.022.086 34.488a2.31 2.31 0 01-2.307 2.31zm-24.62-9.398V33.03c.84-.133 1.933-.208 3.088-.208 1.918 0 3.162.344 4.137 1.078 1.049.78 1.707 2.023 1.707 3.807 0 1.933-.703 3.268-1.678 4.091-1.064.885-2.683 1.304-4.66 1.304a19.78 19.78 0 01-2.594-.15zm16.357-5.874v1.858h-3.627v4.062h-2.293V32.897h6.175v1.872h-3.882v2.309h3.627z"/></g></g><defs><clipPath id="clip0_244_2104"><path fill="#fff" d="M0 0h56v56H0z"/></clipPath></defs></svg>