<svg width="32" height="32" fill="none" xmlns="http://www.w3.org/2000/svg"><g id="plus"><path id="add" d="M16 25.333a1.29 1.29 0 01-.95-.383 1.29 1.29 0 01-.384-.95v-6.667H7.999a1.29 1.29 0 01-.95-.383 1.29 1.29 0 01-.383-.95c0-.378.128-.695.383-.95a1.29 1.29 0 01.95-.384h6.667V8c0-.378.128-.695.383-.95a1.29 1.29 0 01.95-.383c.378 0 .695.127.95.383.256.255.384.572.384.95v6.666h6.666c.378 0 .695.128.95.384.256.255.384.572.384.95s-.128.694-.384.95a1.29 1.29 0 01-.95.383h-6.666V24c0 .378-.128.694-.384.95a1.29 1.29 0 01-.95.383z" fill="#FF3D9A"/></g></svg>