<svg width="32" height="32" fill="none" xmlns="http://www.w3.org/2000/svg"><g id="plus"><path id="add" d="M16 25.333a1.29 1.29 0 01-.95-.383 1.29 1.29 0 01-.384-.95v-6.667H7.999a1.29 1.29 0 01-.95-.383 1.29 1.29 0 01-.383-.95c0-.378.128-.694.383-.95a1.29 1.29 0 01.95-.383h6.667V8c0-.378.128-.694.383-.95a1.29 1.29 0 01.95-.383c.378 0 .695.128.95.383.256.256.384.572.384.95v6.667h6.666c.378 0 .695.127.95.383.256.256.384.572.384.95s-.128.695-.384.95a1.29 1.29 0 01-.95.383h-6.666V24c0 .378-.128.695-.384.95a1.29 1.29 0 01-.95.383z" fill="#00A7E5"/></g></svg>