<svg width="20" height="20" fill="none" xmlns="http://www.w3.org/2000/svg"><g id="Group" stroke="#FF5939" stroke-width="2" stroke-linecap="round" stroke-linejoin="round"><path id="Vector" d="M10 6v13M1 7a1 1 0 011-1h16a1 1 0 011 1v2a1 1 0 01-1 1H2a1 1 0 01-1-1V7z"/><path id="Vector_2" d="M17 10v7a2 2 0 01-2 2H5a2 2 0 01-2-2v-7m2.5-4a2.5 2.5 0 110-5c.965-.017 1.91.451 2.713 1.343C9.015 3.235 9.638 4.51 10 6c.362-1.49.985-2.765 1.787-3.657C12.59 1.451 13.535.983 14.5 1a2.5 2.5 0 010 5"/></g></svg>