<svg width="56" height="56" fill="none" xmlns="http://www.w3.org/2000/svg"><g id="logos:telegram" clip-path="url(#clip0_92_2427)"><path id="Vector" d="M28 0A27.996 27.996 0 008.203 8.2 28.008 28.008 0 000 28c0 7.423 2.953 14.55 8.203 19.8a27.996 27.996 0 0039.594 0A28.009 28.009 0 0056 28c0-7.423-2.953-14.55-8.203-19.8A27.996 27.996 0 0028 0z" fill="url(#paint0_linear_92_2427)"/><path id="Vector_2" d="M12.674 27.704c8.164-3.556 13.606-5.9 16.328-7.033 7.778-3.235 9.393-3.797 10.447-3.816.232-.003.748.054 1.085.326.28.23.359.54.398.759.035.218.083.714.044 1.102-.42 4.427-2.245 15.171-3.172 20.13-.39 2.099-1.164 2.802-1.912 2.87-1.627.15-2.861-1.074-4.436-2.106-2.463-1.615-3.854-2.62-6.248-4.197-2.765-1.822-.97-2.823.604-4.46.411-.428 7.578-6.944 7.713-7.535.018-.074.035-.35-.131-.495-.162-.146-.402-.096-.578-.057-.249.056-4.182 2.659-11.812 7.807-1.116.767-2.126 1.141-3.036 1.121-.998-.021-2.923-.565-4.353-1.03-1.75-.57-3.146-.871-3.024-1.84.062-.503.757-1.019 2.083-1.546z" fill="#fff"/></g><defs><linearGradient id="paint0_linear_92_2427" x1="2800" y1="0" x2="2800" y2="5600" gradientUnits="userSpaceOnUse"><stop stop-color="#2AABEE"/><stop offset="1" stop-color="#229ED9"/></linearGradient><clipPath id="clip0_92_2427"><path fill="#fff" d="M0 0h56v56H0z"/></clipPath></defs></svg>