<svg width="56" height="56" fill="none" xmlns="http://www.w3.org/2000/svg"><g id="logos:tiktok-icon"><path id="Vector" d="M40.636 20.164a21.94 21.94 0 0012.797 4.093V15.08a12.96 12.96 0 01-2.687-.281v7.225c-4.772 0-9.19-1.517-12.797-4.093v18.73c0 9.37-7.6 16.965-16.974 16.965a16.898 16.898 0 01-9.45-2.87 16.926 16.926 0 0012.137 5.105c9.374 0 16.974-7.596 16.974-16.966v-18.73zm3.316-9.26a12.789 12.789 0 01-3.316-7.49v-1.18h-2.547a12.85 12.85 0 005.863 8.67zM17.454 43.566a7.762 7.762 0 016.18-12.458c.8-.001 1.595.121 2.356.363v-9.384a17.119 17.119 0 00-2.686-.154v7.303a7.778 7.778 0 00-2.356-.363 7.762 7.762 0 00-7.765 7.76 7.76 7.76 0 004.271 6.932z" fill="#FF004F"/><path id="Vector_2" d="M37.948 17.93a21.942 21.942 0 0012.798 4.092v-7.224a12.847 12.847 0 01-6.795-3.894 12.85 12.85 0 01-5.862-8.67h-6.69v36.66a7.763 7.763 0 01-7.765 7.734 7.754 7.754 0 01-6.18-3.063 7.76 7.76 0 013.493-14.692c.822 0 1.614.128 2.357.363v-7.303c-9.21.19-16.616 7.711-16.616 16.96 0 4.618 1.844 8.804 4.837 11.863a16.901 16.901 0 009.45 2.87c9.374 0 16.973-7.596 16.973-16.966V17.93z" fill="#000"/><path id="Vector_3" d="M50.745 14.797v-1.953a12.8 12.8 0 01-6.794-1.94 12.836 12.836 0 006.794 3.894M38.09 2.234c-.062-.349-.108-.7-.141-1.054V0h-9.237v36.66a7.763 7.763 0 01-7.764 7.734 7.736 7.736 0 01-3.494-.828 7.754 7.754 0 006.181 3.062c4.28 0 7.75-3.46 7.765-7.734V2.234h6.69zM23.304 21.933v-2.08a17.15 17.15 0 00-2.33-.158C11.6 19.695 4 27.291 4 36.66c0 5.874 2.987 11.05 7.525 14.096a16.903 16.903 0 01-4.837-11.862c0-9.25 7.406-16.771 16.616-16.961z" fill="#00F2EA"/></g></svg>