<svg width="56" height="56" fill="none" xmlns="http://www.w3.org/2000/svg"><g id="logos:whatsapp-icon" clip-path="url(#clip0_92_2434)"><path id="Vector" d="M1.194 27.665a26.494 26.494 0 003.594 13.349L.968 54.849l14.27-3.713a27.07 27.07 0 0012.863 3.25h.012c14.834 0 26.91-11.978 26.916-26.7.003-7.134-2.794-13.842-7.877-18.89C42.071 3.75 35.312.97 28.112.967 13.274.966 1.2 12.943 1.194 27.665" fill="url(#paint0_linear_92_2434)"/><path id="Vector_2" d="M.234 27.656a27.444 27.444 0 003.722 13.827L0 55.815l14.781-3.846a28.04 28.04 0 0013.324 3.367h.012c15.367 0 27.876-12.408 27.883-27.658.003-7.39-2.895-14.34-8.16-19.567C42.577 2.884 35.577.003 28.118 0 12.747 0 .24 12.407.234 27.656zm8.803 13.105l-.552-.87a22.797 22.797 0 01-3.543-12.233C4.947 14.983 15.342 4.67 28.126 4.67c6.19.003 12.009 2.397 16.384 6.742 4.376 4.345 6.784 10.12 6.782 16.264-.005 12.675-10.401 22.988-23.175 22.988h-.009a23.286 23.286 0 01-11.795-3.205l-.847-.498-8.771 2.282 2.342-8.483z" fill="url(#paint1_linear_92_2434)"/><path id="Vector_3" d="M21.148 16.094c-.522-1.15-1.07-1.174-1.567-1.194-.407-.018-.871-.016-1.335-.016-.465 0-1.22.173-1.858.865-.639.691-2.439 2.364-2.439 5.765s2.497 6.688 2.845 7.15c.348.46 4.82 7.663 11.9 10.434 5.886 2.303 7.084 1.845 8.361 1.73 1.278-.116 4.122-1.672 4.703-3.287.58-1.614.58-2.997.406-3.286-.174-.288-.639-.461-1.335-.807-.697-.346-4.122-2.018-4.76-2.249-.64-.23-1.104-.345-1.569.347-.464.69-1.798 2.248-2.205 2.709-.406.462-.813.52-1.51.173-.697-.346-2.94-1.075-5.602-3.43-2.071-1.833-3.47-4.096-3.876-4.788-.407-.69-.044-1.065.306-1.41.313-.31.697-.807 1.045-1.21.348-.404.464-.692.696-1.153.233-.462.116-.866-.058-1.211-.174-.346-1.528-3.765-2.148-5.132z" fill="#fff"/></g><defs><linearGradient id="paint0_linear_92_2434" x1="2703.99" y1="5389.23" x2="2703.99" y2=".966" gradientUnits="userSpaceOnUse"><stop stop-color="#1FAF38"/><stop offset="1" stop-color="#60D669"/></linearGradient><linearGradient id="paint1_linear_92_2434" x1="2800" y1="5581.49" x2="2800" y2="0" gradientUnits="userSpaceOnUse"><stop stop-color="#F9F9F9"/><stop offset="1" stop-color="#fff"/></linearGradient><clipPath id="clip0_92_2434"><path fill="#fff" d="M0 0h56v56H0z"/></clipPath></defs></svg>