<svg width="1440" height="1306" fill="none" xmlns="http://www.w3.org/2000/svg"><g opacity=".6" clip-path="url(#clip0_92_1596)" fill="#fff"><path opacity=".3" d="M300.024 113.263c6.27-1.332 12.432 2.67 13.765 8.939l4.966-1.055c-1.915-9.013-10.774-14.765-19.786-12.85l1.055 4.966z"/><path opacity=".1" d="M181.031 104.517c10.054-2.138 19.937 4.281 22.074 14.335l7.964-1.693c-3.072-14.453-17.278-23.678-31.731-20.607l1.693 7.965zm126.877 330.252c10.016-2.312 20.009 3.933 22.321 13.948l7.934-1.831c-3.324-14.397-17.689-23.374-32.086-20.05l1.831 7.933zm-107.14 116.769c1.074-10.223 10.232-17.639 20.455-16.564l.851-8.098c-14.695-1.544-27.859 9.116-29.403 23.811l8.097.851zm119.588-25.411c9.462-4.017 20.388.398 24.405 9.86l7.494-3.182c-5.773-13.601-21.479-19.946-35.08-14.173l3.181 7.495z"/><path opacity=".1" fill-rule="evenodd" clip-rule="evenodd" d="M133.25 153.579a7.615 7.615 0 10.001-15.23 7.615 7.615 0 00-.001 15.23zm-102.789-49.5a7.616 7.616 0 100-15.232 7.616 7.616 0 000 15.232zm76.156-88.848a7.616 7.616 0 100-15.232 7.616 7.616 0 000 15.232zm324.928 13.962a7.616 7.616 0 100-15.232 7.616 7.616 0 000 15.232zM191.657 624.471a7.616 7.616 0 10-.002-15.232 7.616 7.616 0 00.002 15.232zm38.078 105.347a7.615 7.615 0 100-15.231 7.615 7.615 0 000 15.231zm106.617 72.348a7.615 7.615 0 100-15.23 7.615 7.615 0 000 15.23zm-19.039-189.119a7.615 7.615 0 100-15.231 7.615 7.615 0 000 15.231zM251.311 77.424a7.615 7.615 0 007.615-7.615 7.616 7.616 0 10-7.615 7.616zm133.271 73.617a7.616 7.616 0 100-15.233 7.616 7.616 0 000 15.233zM219.58 277.965a7.615 7.615 0 10.001-15.23 7.615 7.615 0 00-.001 15.23zM54.578 557.201a7.616 7.616 0 100-15.232 7.616 7.616 0 000 15.232z"/><path opacity=".1" d="M65.48 159.038c.358-10.273 8.976-18.31 19.249-17.951l.284-8.137c-14.767-.516-27.155 11.037-27.67 25.804l8.136.284zm309.53-94.822c.359-10.273 8.977-18.31 19.25-17.95l.284-8.138c-14.766-.515-27.155 11.037-27.671 25.804l8.137.284zm-8.592 154.613c-9.928-2.66-15.821-12.865-13.16-22.794l-7.865-2.107c-3.824 14.272 4.646 28.942 18.918 32.766l2.107-7.865zM239.492 383.832c-9.928-2.661-15.82-12.866-13.16-22.795l-7.864-2.107c-3.825 14.272 4.645 28.942 18.917 32.766l2.107-7.864zM366.258 751.53c4.506-9.238 15.648-13.075 24.886-8.569l3.569-7.318c-13.28-6.477-29.296-.962-35.773 12.318l7.318 3.569zM46.943 740.75c10.202 1.253 17.457 10.539 16.204 20.741l8.081.992c1.801-14.665-8.628-28.014-23.293-29.814l-.992 8.081zm98.834-93.113c3.176 9.776-2.173 20.276-11.949 23.452l2.516 7.744c14.052-4.566 21.742-19.659 17.177-33.712l-7.744 2.516zm64.121 132.99c3.177 9.776-2.173 20.276-11.949 23.452l2.516 7.744c14.052-4.566 21.743-19.659 17.177-33.712l-7.744 2.516z"/><path opacity=".1" d="M209.898 780.627c3.177 9.776-2.173 20.276-11.949 23.452l2.516 7.744c14.052-4.566 21.743-19.659 17.177-33.712l-7.744 2.516zm255.163-158.199c-3.85 9.53-14.698 14.134-24.228 10.284l-3.05 7.549c13.7 5.535 29.292-1.084 34.827-14.783l-7.549-3.05zm-429.429 5.258c-10.153-1.608-17.08-11.142-15.471-21.294l-8.042-1.274c-2.311 14.594 7.645 28.298 22.239 30.609l1.274-8.041z"/><path opacity=".3" d="M419.907 190.645c6.27-1.333 12.432 2.669 13.765 8.939l4.966-1.056c-1.916-9.012-10.774-14.765-19.786-12.849l1.055 4.966zm-310.558 22.331c-6.4-.336-11.317-5.796-10.982-12.197l-5.07-.266c-.482 9.201 6.586 17.051 15.787 17.533l.265-5.07zm297.194 346.055c.782 6.362-3.742 12.152-10.104 12.933l.619 5.039c9.144-1.122 15.647-9.446 14.525-18.591l-5.04.619zm-139.617-12.692c.781 6.361-3.743 12.152-10.104 12.933l.618 5.039c9.145-1.123 15.648-9.446 14.525-18.591l-5.039.619zm-142.978 1.214c-.67-6.375 3.955-12.085 10.329-12.755l-.531-5.049c-9.163.963-15.81 9.171-14.847 18.334l5.049-.53zm51.531-228.261c-1.223-6.292 2.886-12.384 9.177-13.607l-.968-4.984c-9.045 1.758-14.951 10.515-13.193 19.559l4.984-.968z"/><path opacity=".1" d="M267.679 234.48c6.878-7.639 18.646-8.255 26.284-1.377l5.448-6.051c-10.98-9.887-27.896-9-37.783 1.98l6.051 5.448z"/><path opacity=".3" d="M227.518 172.793c-1.223-6.292 2.886-12.384 9.177-13.607l-.968-4.984c-9.044 1.758-14.951 10.515-13.193 19.559l4.984-.968z"/><path opacity=".1" fill-rule="evenodd" clip-rule="evenodd" d="M382.045 445.506a7.615 7.615 0 10.001-15.23 7.615 7.615 0 00-.001 15.23z"/><path opacity=".3" d="M255.312 660.799c-6.401-.335-11.317-5.796-10.982-12.197l-5.07-.266c-.482 9.201 6.586 17.051 15.786 17.533l.266-5.07zM61.359 47.752c-6.4-.336-11.318-5.796-10.982-12.197l-5.07-.266c-.482 9.201 6.585 17.05 15.786 17.533l.266-5.07zm66.151 14.352c1.767-6.161 8.193-9.724 14.355-7.957l1.399-4.88c-8.856-2.54-18.095 2.58-20.634 11.438l4.88 1.399zm299.086 24.208c1.767-6.16 8.193-9.723 14.355-7.957l1.399-4.88c-8.857-2.54-18.095 2.581-20.634 11.438l4.88 1.4zM303.479 748.861c1.766-6.161 8.193-9.723 14.354-7.957l1.4-4.88c-8.857-2.54-18.095 2.581-20.635 11.438l4.881 1.399zm-184.804-1.61c5.494 3.301 7.272 10.431 3.971 15.925l4.352 2.615c4.745-7.898 2.19-18.147-5.708-22.892l-2.615 4.352zM73.31 671.256c-3.858 5.119-11.135 6.142-16.254 2.284l-3.055 4.055c7.358 5.545 17.818 4.075 23.363-3.283l-4.055-3.056zm339.553 24.823c-5.251-3.676-6.527-10.912-2.85-16.163l-4.159-2.912c-5.285 7.547-3.45 17.95 4.097 23.234l2.912-4.159zm22.59 79.448c-.335-6.401 4.581-11.862 10.982-12.197l-.266-5.07c-9.2.482-16.268 8.332-15.786 17.532l5.07-.265zM285.937 40.912c-.335-6.4 4.582-11.861 10.983-12.197l-.266-5.07c-9.201.482-16.269 8.332-15.787 17.533l5.07-.266zM5.433 165.298c-.335-6.401 4.582-11.861 10.983-12.197l-.266-5.07c-9.2.482-16.269 8.332-15.787 17.533l5.07-.266zM143.64 408.16c-6.27 1.332-12.432-2.67-13.765-8.939l-4.966 1.055c1.916 9.012 10.774 14.765 19.786 12.85l-1.055-4.966z"/><path opacity=".1" fill-rule="evenodd" clip-rule="evenodd" d="M310.967 367.8a7.616 7.616 0 100 15.233 7.616 7.616 0 000-15.233zm120.578 120.579a7.616 7.616 0 100 15.233 7.616 7.616 0 000-15.233zm-238.619-44.423a7.615 7.615 0 10-.001 15.23 7.615 7.615 0 00.001-15.23zM59.654 370.339a7.616 7.616 0 100 15.232 7.616 7.616 0 000-15.232z"/><path opacity=".1" d="M418.335 308.461c-.358 10.273-8.977 18.31-19.249 17.951l-.285 8.137c14.767.516 27.156-11.037 27.671-25.804l-8.137-.284zM68.714 457.163c-.358 10.273-8.977 18.31-19.25 17.951l-.284 8.137c14.767.516 27.156-11.037 27.671-25.803l-8.137-.285zm8.524-153.85c9.929 2.661 15.82 12.866 13.16 22.795l7.865 2.107c3.824-14.272-4.645-28.942-18.918-32.766l-2.107 7.864z"/><path opacity=".3" d="M24.33 330.735c-6.27 1.333-12.433-2.669-13.766-8.939l-4.966 1.056c1.916 9.012 10.775 14.765 19.787 12.849l-1.056-4.966zm310.317-22.11c6.401.336 11.317 5.796 10.982 12.197l5.07.266c.482-9.201-6.586-17.051-15.786-17.533l-.266 5.07zm-68.233 150.558c-1.767 6.161-8.194 9.723-14.355 7.957l-1.399 4.88c8.856 2.54 18.095-2.581 20.634-11.438l-4.88-1.399zM17.64 435.067c-1.766 6.161-8.193 9.724-14.354 7.957l-1.4 4.88c8.857 2.54 18.095-2.581 20.635-11.438l-4.88-1.399zm421.165-78.986c.335 6.401-4.582 11.862-10.982 12.197l.265 5.07c9.201-.482 16.269-8.332 15.787-17.533l-5.07.266zm334.319-242.818c6.269-1.332 12.432 2.67 13.765 8.939l4.966-1.055c-1.916-9.013-10.775-14.765-19.787-12.85l1.056 4.966z"/><path opacity=".1" d="M654.13 104.517c10.055-2.138 19.938 4.281 22.075 14.335l7.964-1.693c-3.072-14.453-17.279-23.678-31.731-20.607l1.692 7.965zm126.878 330.252c10.015-2.312 20.009 3.933 22.321 13.948l7.933-1.831c-3.323-14.397-17.689-23.374-32.086-20.05l1.832 7.933zm-107.14 116.769c1.074-10.223 10.232-17.639 20.455-16.564l.851-8.098c-14.695-1.544-27.859 9.116-29.404 23.811l8.098.851zm119.588-25.411c9.462-4.017 20.388.398 24.404 9.86l7.495-3.182c-5.773-13.601-21.479-19.946-35.08-14.173l3.181 7.495z"/><path opacity=".1" fill-rule="evenodd" clip-rule="evenodd" d="M606.35 153.579a7.615 7.615 0 100-15.231 7.615 7.615 0 000 15.231zm-102.789-49.5a7.615 7.615 0 007.615-7.616 7.616 7.616 0 10-7.615 7.616zm76.156-88.848a7.616 7.616 0 100-15.232 7.616 7.616 0 000 15.232zm324.928 13.962a7.615 7.615 0 007.615-7.616 7.616 7.616 0 10-7.615 7.616zM664.756 624.471a7.616 7.616 0 100-15.233 7.616 7.616 0 000 15.233zm38.078 105.347a7.615 7.615 0 10.001-15.23 7.615 7.615 0 00-.001 15.23zm106.617 72.348a7.616 7.616 0 100-15.233 7.616 7.616 0 000 15.233zm-19.039-189.119a7.615 7.615 0 10.001-15.23 7.615 7.615 0 00-.001 15.23zM724.41 77.424a7.616 7.616 0 100-15.231 7.616 7.616 0 000 15.231zm133.272 73.617a7.615 7.615 0 100-15.23 7.615 7.615 0 000 15.23zM692.68 277.965a7.615 7.615 0 100-15.231 7.615 7.615 0 000 15.231zM527.678 557.201a7.615 7.615 0 100-15.23 7.615 7.615 0 000 15.23z"/><path opacity=".1" d="M538.579 159.038c.358-10.273 8.977-18.31 19.249-17.951l.285-8.137c-14.767-.516-27.156 11.037-27.671 25.804l8.137.284zm309.533-94.822c.359-10.273 8.977-18.31 19.25-17.95l.284-8.138c-14.767-.515-27.155 11.037-27.671 25.804l8.137.284zm-8.594 154.613c-9.929-2.66-15.821-12.865-13.161-22.794l-7.864-2.107c-3.824 14.272 4.645 28.942 18.917 32.766l2.108-7.865zM712.592 383.832c-9.929-2.661-15.821-12.866-13.16-22.795l-7.865-2.107c-3.824 14.272 4.646 28.942 18.918 32.766l2.107-7.864zM839.357 751.53c4.506-9.238 15.648-13.075 24.887-8.569l3.569-7.318c-13.28-6.477-29.297-.962-35.774 12.318l7.318 3.569zm-319.315-10.78c10.202 1.253 17.458 10.539 16.205 20.741l8.081.992c1.801-14.665-8.628-28.014-23.294-29.814l-.992 8.081zm98.835-93.113c3.176 9.776-2.174 20.276-11.95 23.452l2.516 7.744c14.053-4.566 21.743-19.659 17.177-33.712l-7.743 2.516zm64.121 132.99c3.176 9.776-2.174 20.276-11.95 23.452l2.516 7.744c14.053-4.566 21.743-19.659 17.177-33.712l-7.743 2.516z"/><path opacity=".1" d="M682.998 780.627c3.176 9.776-2.174 20.276-11.95 23.452l2.516 7.744c14.053-4.566 21.743-19.659 17.177-33.712l-7.743 2.516zm255.163-158.199c-3.851 9.53-14.698 14.134-24.228 10.284l-3.05 7.549c13.699 5.535 29.292-1.084 34.827-14.783l-7.549-3.05zm-429.43 5.258c-10.152-1.608-17.079-11.142-15.471-21.294l-8.041-1.274c-2.312 14.594 7.645 28.298 22.239 30.609l1.273-8.041z"/><path opacity=".3" d="M893.007 190.645c6.269-1.333 12.432 2.669 13.764 8.939l4.967-1.056c-1.916-9.012-10.775-14.765-19.787-12.849l1.056 4.966zm-310.558 22.331c-6.401-.336-11.318-5.796-10.982-12.197l-5.07-.266c-.483 9.201 6.585 17.051 15.786 17.533l.266-5.07zm297.194 346.055c.781 6.362-3.743 12.152-10.104 12.933l.618 5.039c9.145-1.122 15.648-9.446 14.525-18.591l-5.039.619zm-139.617-12.692c.781 6.361-3.743 12.152-10.105 12.933l.619 5.039c9.145-1.123 15.648-9.446 14.525-18.591l-5.039.619zm-142.978 1.214c-.67-6.375 3.954-12.085 10.329-12.755l-.531-5.049c-9.163.963-15.81 9.171-14.847 18.334l5.049-.53zm51.53-228.261c-1.223-6.292 2.886-12.384 9.178-13.607l-.969-4.984c-9.044 1.758-14.951 10.515-13.193 19.559l4.984-.968z"/><path opacity=".1" d="M740.778 234.48c6.878-7.639 18.646-8.255 26.285-1.377l5.448-6.051c-10.98-9.887-27.897-9-37.783 1.98l6.05 5.448z"/><path opacity=".3" d="M700.617 172.793c-1.223-6.292 2.886-12.384 9.178-13.607l-.969-4.984c-9.044 1.758-14.95 10.515-13.192 19.559l4.983-.968z"/><path opacity=".1" fill-rule="evenodd" clip-rule="evenodd" d="M855.143 445.506a7.615 7.615 0 100-15.231 7.615 7.615 0 000 15.231z"/><path opacity=".3" d="M728.412 660.799c-6.401-.335-11.318-5.796-10.982-12.197l-5.07-.266c-.483 9.201 6.585 17.051 15.786 17.533l.266-5.07zM534.459 47.752c-6.401-.336-11.318-5.796-10.983-12.197l-5.07-.266c-.482 9.201 6.586 17.05 15.787 17.533l.266-5.07zm66.151 14.352c1.766-6.161 8.193-9.724 14.354-7.957l1.4-4.88c-8.857-2.54-18.095 2.58-20.635 11.438l4.881 1.399zm299.085 24.208c1.767-6.16 8.194-9.723 14.355-7.957l1.4-4.88c-8.857-2.54-18.095 2.581-20.635 11.438l4.88 1.4zM776.578 748.861c1.767-6.161 8.194-9.723 14.355-7.957l1.399-4.88c-8.856-2.54-18.094 2.581-20.634 11.438l4.88 1.399zm-184.803-1.61c5.494 3.301 7.272 10.431 3.97 15.925l4.352 2.615c4.746-7.898 2.19-18.147-5.707-22.892l-2.615 4.352zm-45.366-75.995c-3.857 5.119-11.134 6.142-16.253 2.284l-3.055 4.055c7.358 5.545 17.818 4.075 23.363-3.283l-4.055-3.056zm339.553 24.823c-5.25-3.676-6.526-10.912-2.85-16.163l-4.158-2.912c-5.285 7.547-3.451 17.95 4.096 23.234l2.912-4.159zm22.591 79.448c-.336-6.401 4.581-11.862 10.982-12.197l-.266-5.07c-9.201.482-16.269 8.332-15.786 17.532l5.07-.265zM759.037 40.912c-.335-6.4 4.581-11.861 10.982-12.197l-.266-5.07c-9.2.482-16.268 8.332-15.786 17.533l5.07-.266zM478.533 165.298c-.335-6.401 4.582-11.861 10.982-12.197l-.265-5.07c-9.201.482-16.269 8.332-15.787 17.533l5.07-.266zM616.739 408.16c-6.269 1.332-12.432-2.67-13.764-8.939l-4.966 1.055c1.915 9.012 10.774 14.765 19.786 12.85l-1.056-4.966z"/><path opacity=".1" fill-rule="evenodd" clip-rule="evenodd" d="M784.066 367.8a7.615 7.615 0 100 15.23 7.615 7.615 0 000-15.23zm120.578 120.579a7.615 7.615 0 100 15.23 7.615 7.615 0 000-15.23zm-238.619-44.423a7.615 7.615 0 100 15.231 7.615 7.615 0 000-15.231zm-133.271-73.617a7.616 7.616 0 100 15.233 7.616 7.616 0 000-15.233z"/><path opacity=".1" d="M891.435 308.461c-.359 10.273-8.977 18.31-19.25 17.951l-.284 8.137c14.767.516 27.155-11.037 27.671-25.804l-8.137-.284zM541.814 457.163c-.359 10.273-8.977 18.31-19.25 17.951l-.284 8.137c14.767.516 27.155-11.037 27.671-25.803l-8.137-.285zm8.524-153.85c9.928 2.661 15.82 12.866 13.16 22.795l7.865 2.107c3.824-14.272-4.646-28.942-18.918-32.766l-2.107 7.864z"/><path opacity=".3" d="M497.429 330.735c-6.27 1.333-12.432-2.669-13.765-8.939l-4.966 1.056c1.916 9.012 10.774 14.765 19.786 12.849l-1.055-4.966zm310.317-22.11c6.401.336 11.318 5.796 10.983 12.197l5.07.266c.482-9.201-6.586-17.051-15.787-17.533l-.266 5.07zm-68.232 150.558c-1.767 6.161-8.194 9.723-14.355 7.957l-1.4 4.88c8.857 2.54 18.095-2.581 20.635-11.438l-4.88-1.399zM490.74 435.067c-1.767 6.161-8.193 9.724-14.355 7.957l-1.399 4.88c8.856 2.54 18.095-2.581 20.634-11.438l-4.88-1.399zm421.162-78.986c.336 6.401-4.581 11.862-10.982 12.197l.266 5.07c9.201-.482 16.269-8.332 15.786-17.533l-5.07.266zm355.118-242.818c6.27-1.332 12.44 2.67 13.77 8.939l4.97-1.055c-1.92-9.013-10.78-14.765-19.79-12.85l1.05 4.966z"/><path opacity=".1" d="M1148.03 104.517c10.05-2.138 19.94 4.281 22.08 14.335l7.96-1.693c-3.07-14.453-17.28-23.678-31.73-20.607l1.69 7.965zm126.88 330.252c10.01-2.312 20.01 3.933 22.32 13.948l7.93-1.831c-3.32-14.397-17.69-23.374-32.08-20.05l1.83 7.933zm-107.14 116.769c1.07-10.223 10.23-17.639 20.45-16.564l.85-8.098c-14.69-1.544-27.85 9.116-29.4 23.811l8.1.851zm119.59-25.411c9.46-4.017 20.38.398 24.4 9.86l7.5-3.182c-5.78-13.601-21.48-19.946-35.08-14.173l3.18 7.495z"/><path opacity=".1" fill-rule="evenodd" clip-rule="evenodd" d="M1100.25 153.579a7.616 7.616 0 100-15.231 7.616 7.616 0 100 15.231zm-102.789-49.5a7.617 7.617 0 10-7.615-7.616 7.615 7.615 0 007.615 7.616zm76.159-88.848c4.2 0 7.61-3.41 7.61-7.615 0-4.206-3.41-7.616-7.61-7.616a7.617 7.617 0 100 15.231zm324.93 13.962c4.2 0 7.61-3.41 7.61-7.616a7.614 7.614 0 00-7.61-7.615 7.617 7.617 0 100 15.23zm-239.89 595.278c4.2 0 7.61-3.41 7.61-7.616a7.614 7.614 0 00-7.61-7.615 7.616 7.616 0 100 15.231zm38.07 105.347a7.616 7.616 0 100-15.231c-4.2 0-7.61 3.41-7.61 7.616a7.614 7.614 0 007.61 7.615zm106.62 72.348a7.616 7.616 0 100-15.231c-4.2 0-7.61 3.409-7.61 7.615s3.41 7.616 7.61 7.616zm-19.04-189.119a7.616 7.616 0 100-15.231c-4.2 0-7.61 3.41-7.61 7.616a7.614 7.614 0 007.61 7.615zm-66-535.623a7.617 7.617 0 100-15.23c-4.21 0-7.61 3.409-7.61 7.615s3.4 7.615 7.61 7.615zm133.27 73.617a7.616 7.616 0 100-15.231c-4.2 0-7.61 3.409-7.61 7.615s3.41 7.616 7.61 7.616zm-165 126.924a7.616 7.616 0 100-15.231 7.616 7.616 0 100 15.231zm-165 279.236c4.2 0 7.61-3.41 7.61-7.616a7.614 7.614 0 00-7.61-7.615 7.616 7.616 0 100 15.231z"/><path opacity=".1" d="M1032.48 159.038c.36-10.273 8.98-18.31 19.25-17.951l.28-8.137c-14.76-.516-27.15 11.037-27.67 25.804l8.14.284zm309.53-94.822c.36-10.273 8.98-18.31 19.25-17.95l.28-8.138c-14.76-.515-27.15 11.037-27.67 25.804l8.14.284zm-8.59 154.613c-9.93-2.66-15.82-12.865-13.16-22.794l-7.87-2.107c-3.82 14.272 4.65 28.942 18.92 32.766l2.11-7.865zm-126.93 165.003c-9.93-2.661-15.82-12.866-13.16-22.795l-7.86-2.107c-3.83 14.272 4.64 28.942 18.92 32.766l2.1-7.864zm126.77 367.698c4.5-9.238 15.65-13.075 24.88-8.569l3.57-7.318c-13.28-6.477-29.29-.962-35.77 12.318l7.32 3.569zm-319.32-10.78c10.2 1.253 17.46 10.539 16.21 20.741l8.08.992c1.8-14.665-8.63-28.014-23.3-29.814l-.99 8.081zm98.84-93.113c3.17 9.776-2.18 20.276-11.95 23.452l2.51 7.744c14.06-4.566 21.75-19.659 17.18-33.712l-7.74 2.516zm64.12 132.99c3.17 9.776-2.18 20.276-11.95 23.452l2.51 7.744c14.06-4.566 21.75-19.659 17.18-33.712l-7.74 2.516z"/><path opacity=".1" d="M1176.9 780.627c3.17 9.776-2.18 20.276-11.95 23.452l2.51 7.744c14.06-4.566 21.75-19.659 17.18-33.712l-7.74 2.516zm255.16-158.199c-3.85 9.53-14.7 14.134-24.23 10.284l-3.05 7.549c13.7 5.535 29.3-1.084 34.83-14.783l-7.55-3.05zm-429.43 5.258c-10.151-1.608-17.077-11.142-15.469-21.294l-8.042-1.274c-2.311 14.594 7.645 28.298 22.241 30.609l1.27-8.041z"/><path opacity=".3" d="M1386.91 190.645c6.27-1.333 12.43 2.669 13.76 8.939l4.97-1.056c-1.92-9.012-10.78-14.765-19.79-12.849l1.06 4.966zm-310.56 22.331c-6.4-.336-11.32-5.796-10.98-12.197l-5.07-.266c-.49 9.201 6.58 17.051 15.78 17.533l.27-5.07zm297.19 346.055c.78 6.362-3.74 12.152-10.1 12.933l.62 5.039c9.14-1.122 15.65-9.446 14.52-18.591l-5.04.619zm-139.61-12.692c.78 6.361-3.75 12.152-10.11 12.933l.62 5.039c9.15-1.123 15.65-9.446 14.53-18.591l-5.04.619zm-142.98 1.214c-.67-6.375 3.95-12.085 10.33-12.755l-.53-5.049c-9.17.963-15.81 9.171-14.85 18.334l5.05-.53zm51.53-228.261c-1.22-6.292 2.88-12.384 9.18-13.607l-.97-4.984c-9.05 1.758-14.95 10.515-13.2 19.559l4.99-.968z"/><path opacity=".1" d="M1234.68 234.48c6.88-7.639 18.64-8.255 26.28-1.377l5.45-6.051c-10.98-9.887-27.9-9-37.78 1.98l6.05 5.448z"/><path opacity=".3" d="M1194.52 172.793c-1.23-6.292 2.88-12.384 9.18-13.607l-.97-4.984c-9.05 1.758-14.95 10.515-13.2 19.559l4.99-.968z"/><path opacity=".1" fill-rule="evenodd" clip-rule="evenodd" d="M1349.05 445.506c4.2 0 7.61-3.409 7.61-7.615s-3.41-7.616-7.61-7.616a7.616 7.616 0 100 15.231z"/><path opacity=".3" d="M1222.31 660.799c-6.4-.335-11.32-5.796-10.98-12.197l-5.07-.266c-.48 9.201 6.59 17.051 15.79 17.533l.26-5.07zM1028.36 47.752c-6.4-.336-11.32-5.796-10.98-12.197l-5.07-.266c-.49 9.201 6.58 17.05 15.78 17.533l.27-5.07zm66.15 14.352c1.77-6.161 8.19-9.724 14.35-7.957l1.4-4.88c-8.85-2.54-18.09 2.58-20.63 11.438l4.88 1.399zm299.09 24.208c1.76-6.16 8.19-9.723 14.35-7.957l1.4-4.88c-8.86-2.54-18.09 2.581-20.63 11.438l4.88 1.4zm-123.12 662.549c1.77-6.161 8.19-9.723 14.35-7.957l1.4-4.88c-8.85-2.54-18.09 2.581-20.63 11.438l4.88 1.399zm-184.8-1.61c5.49 3.301 7.27 10.431 3.97 15.925l4.35 2.615c4.74-7.898 2.19-18.147-5.71-22.892l-2.61 4.352zm-45.37-75.995c-3.86 5.119-11.13 6.142-16.25 2.284l-3.06 4.055c7.36 5.545 17.82 4.075 23.36-3.283l-4.05-3.056zm339.55 24.823c-5.25-3.676-6.52-10.912-2.85-16.163l-4.16-2.912c-5.28 7.547-3.45 17.95 4.1 23.234l2.91-4.159zm22.59 79.448c-.33-6.401 4.58-11.862 10.99-12.197l-.27-5.07c-9.2.482-16.27 8.332-15.79 17.532l5.07-.265zM1252.94 40.912c-.34-6.4 4.58-11.861 10.98-12.197l-.27-5.07c-9.2.482-16.26 8.332-15.78 17.533l5.07-.266zM972.433 165.298c-.335-6.401 4.582-11.861 10.983-12.197l-.266-5.07c-9.201.482-16.269 8.332-15.787 17.533l5.07-.266zM1110.64 408.16c-6.27 1.332-12.43-2.67-13.77-8.939l-4.96 1.055c1.91 9.012 10.77 14.765 19.79 12.85l-1.06-4.966z"/><path opacity=".1" fill-rule="evenodd" clip-rule="evenodd" d="M1277.97 367.8a7.616 7.616 0 100 15.231c4.2 0 7.61-3.409 7.61-7.615s-3.41-7.616-7.61-7.616zm120.57 120.579c-4.2 0-7.61 3.41-7.61 7.616a7.614 7.614 0 007.61 7.615 7.616 7.616 0 100-15.231zm-238.61-44.423a7.616 7.616 0 100 15.231c4.2 0 7.61-3.41 7.61-7.616a7.614 7.614 0 00-7.61-7.615zm-133.28-73.617c-4.2 0-7.61 3.41-7.61 7.616a7.614 7.614 0 007.61 7.615 7.616 7.616 0 100-15.231z"/><path opacity=".1" d="M1385.34 308.461c-.36 10.273-8.98 18.31-19.25 17.951l-.29 8.137c14.77.516 27.16-11.037 27.67-25.804l-8.13-.284zm-349.63 148.702c-.35 10.273-8.97 18.31-19.25 17.951l-.28 8.137c14.77.516 27.16-11.037 27.67-25.803l-8.14-.285zm8.53-153.85c9.93 2.661 15.82 12.866 13.16 22.795l7.86 2.107c3.83-14.272-4.64-28.942-18.91-32.766l-2.11 7.864z"/><path opacity=".3" d="M991.329 330.735c-6.269 1.333-12.432-2.669-13.765-8.939l-4.966 1.056c1.916 9.012 10.775 14.765 19.787 12.849l-1.056-4.966zm310.321-22.11c6.4.336 11.31 5.796 10.98 12.197l5.07.266c.48-9.201-6.59-17.051-15.79-17.533l-.26 5.07zm-68.24 150.558c-1.76 6.161-8.19 9.723-14.35 7.957l-1.4 4.88c8.86 2.54 18.09-2.581 20.63-11.438l-4.88-1.399zm-248.77-24.116c-1.766 6.161-8.193 9.724-14.354 7.957l-1.4 4.88c8.857 2.54 18.095-2.581 20.635-11.438l-4.881-1.399zm421.16-78.986c.34 6.401-4.58 11.862-10.98 12.197l.27 5.07c9.2-.482 16.27-8.332 15.78-17.533l-5.07.266zM300.024 921.263c6.27-1.332 12.432 2.67 13.765 8.939l4.966-1.055c-1.915-9.013-10.774-14.765-19.786-12.85l1.055 4.966z"/><path opacity=".1" d="M181.031 912.517c10.054-2.138 19.937 4.281 22.074 14.335l7.964-1.693c-3.072-14.453-17.278-23.678-31.731-20.606l1.693 7.964zm126.877 330.253c10.016-2.31 20.009 3.93 22.321 13.95l7.934-1.83c-3.324-14.4-17.689-23.38-32.086-20.05l1.831 7.93z"/><path opacity=".1" fill-rule="evenodd" clip-rule="evenodd" d="M133.25 961.579a7.615 7.615 0 10.001-15.23 7.615 7.615 0 00-.001 15.23zM30.461 912.078a7.616 7.616 0 100-15.23 7.616 7.616 0 000 15.23zm76.156-88.847a7.616 7.616 0 100-15.233 7.616 7.616 0 000 15.233zm324.928 13.962a7.616 7.616 0 100-15.233 7.616 7.616 0 000 15.233zm-180.234 48.231a7.615 7.615 0 100-15.231 7.615 7.615 0 000 15.231zm133.271 73.617a7.616 7.616 0 100-15.233 7.616 7.616 0 000 15.233zM219.58 1085.97a7.617 7.617 0 007.616-7.62 7.616 7.616 0 10-15.231 0c0 4.21 3.409 7.62 7.615 7.62z"/><path opacity=".1" d="M65.48 967.038c.358-10.273 8.976-18.31 19.249-17.951l.284-8.137c-14.767-.516-27.155 11.037-27.67 25.804l8.136.284zm309.53-94.822c.359-10.273 8.977-18.309 19.25-17.951l.284-8.137c-14.766-.515-27.155 11.037-27.671 25.804l8.137.284zm-8.592 154.614c-9.928-2.66-15.821-12.87-13.16-22.79l-7.865-2.11c-3.824 14.27 4.646 28.94 18.918 32.76l2.107-7.86zm-126.926 165c-9.928-2.66-15.82-12.86-13.16-22.79l-7.864-2.11c-3.825 14.27 4.645 28.94 18.917 32.77l2.107-7.87z"/><path opacity=".3" d="M419.907 998.645c6.27-1.333 12.432 2.665 13.765 8.935l4.966-1.05c-1.916-9.014-10.774-14.767-19.786-12.851l1.055 4.966zm-310.558 22.335c-6.4-.34-11.317-5.8-10.982-12.2l-5.07-.27c-.482 9.2 6.586 17.05 15.787 17.54l.265-5.07zm66.13 106.31c-1.223-6.29 2.886-12.38 9.177-13.6l-.968-4.99c-9.045 1.76-14.951 10.52-13.193 19.56l4.984-.97z"/><path opacity=".1" d="M267.679 1042.48c6.878-7.64 18.646-8.26 26.284-1.38l5.448-6.05c-10.98-9.88-27.896-9-37.783 1.98l6.051 5.45z"/><path opacity=".3" d="M227.518 980.793c-1.223-6.292 2.886-12.384 9.177-13.607l-.968-4.984c-9.044 1.758-14.951 10.515-13.193 19.559l4.984-.968z"/><path opacity=".1" fill-rule="evenodd" clip-rule="evenodd" d="M382.045 1253.51a7.617 7.617 0 007.616-7.62c0-4.2-3.41-7.61-7.616-7.61a7.614 7.614 0 00-7.615 7.61c0 4.21 3.409 7.62 7.615 7.62z"/><path opacity=".3" d="M61.359 855.752c-6.4-.336-11.318-5.796-10.982-12.197l-5.07-.266c-.482 9.201 6.585 17.051 15.786 17.533l.266-5.07zm66.151 14.352c1.767-6.161 8.193-9.724 14.355-7.957l1.399-4.88c-8.856-2.54-18.095 2.581-20.634 11.437l4.88 1.4zm299.086 24.209c1.767-6.162 8.193-9.724 14.355-7.957l1.399-4.881c-8.857-2.539-18.095 2.582-20.634 11.438l4.88 1.4zm-140.659-45.401c-.335-6.401 4.582-11.862 10.983-12.197l-.266-5.07c-9.201.482-16.269 8.332-15.787 17.533l5.07-.266zM5.433 973.298c-.335-6.401 4.582-11.861 10.983-12.197l-.266-5.07c-9.2.482-16.269 8.332-15.787 17.533l5.07-.266zM143.64 1216.16c-6.27 1.33-12.432-2.67-13.765-8.94l-4.966 1.06c1.916 9.01 10.774 14.76 19.786 12.85l-1.055-4.97z"/><path opacity=".1" fill-rule="evenodd" clip-rule="evenodd" d="M310.967 1175.8a7.617 7.617 0 00-7.616 7.62c0 4.2 3.41 7.61 7.616 7.61 4.205 0 7.615-3.41 7.615-7.61 0-4.21-3.41-7.62-7.615-7.62zm120.578 120.58c-4.206 0-7.616 3.41-7.616 7.61a7.616 7.616 0 1015.231 0c0-4.2-3.409-7.61-7.615-7.61zm-238.619-44.42c-4.206 0-7.616 3.41-7.616 7.61 0 4.21 3.41 7.62 7.616 7.62a7.617 7.617 0 007.615-7.62c0-4.2-3.41-7.61-7.615-7.61zm-133.272-73.62c-4.206 0-7.616 3.41-7.616 7.61a7.617 7.617 0 1015.231 0c0-4.2-3.409-7.61-7.615-7.61z"/><path opacity=".1" d="M418.335 1116.46c-.358 10.27-8.977 18.31-19.249 17.95l-.285 8.14c14.767.51 27.156-11.04 27.671-25.8l-8.137-.29zm-349.621 148.7c-.358 10.28-8.977 18.31-19.25 17.95l-.284 8.14c14.767.52 27.156-11.04 27.671-25.8l-8.137-.29zm8.524-153.85c9.929 2.66 15.82 12.87 13.16 22.8l7.865 2.1c3.824-14.27-4.645-28.94-18.918-32.76l-2.107 7.86z"/><path opacity=".3" d="M24.33 1138.74c-6.27 1.33-12.433-2.67-13.766-8.94l-4.966 1.05c1.916 9.01 10.775 14.77 19.787 12.85l-1.056-4.96zm310.317-22.11c6.401.33 11.317 5.79 10.982 12.19l5.07.27c.482-9.2-6.586-17.05-15.786-17.53l-.266 5.07zm-68.233 150.55c-1.767 6.16-8.194 9.73-14.355 7.96l-1.399 4.88c8.856 2.54 18.095-2.58 20.634-11.44l-4.88-1.4zM17.64 1243.07c-1.766 6.16-8.193 9.72-14.354 7.95l-1.4 4.88c8.857 2.54 18.095-2.58 20.635-11.43l-4.88-1.4zm421.165-78.99c.335 6.4-4.582 11.86-10.982 12.2l.265 5.07c9.201-.48 16.269-8.33 15.787-17.53l-5.07.26zm344.219-242.817c6.27-1.332 12.432 2.67 13.765 8.939l4.966-1.055c-1.915-9.013-10.774-14.765-19.786-12.85l1.055 4.966z"/><path opacity=".1" d="M664.031 912.517c10.054-2.138 19.937 4.281 22.074 14.335l7.964-1.693c-3.072-14.453-17.278-23.678-31.731-20.606l1.693 7.964zm126.877 330.253c10.016-2.31 20.009 3.93 22.321 13.95l7.934-1.83c-3.324-14.4-17.689-23.38-32.086-20.05l1.831 7.93z"/><path opacity=".1" fill-rule="evenodd" clip-rule="evenodd" d="M616.25 961.579a7.615 7.615 0 10.001-15.23 7.615 7.615 0 00-.001 15.23zm-102.789-49.501a7.615 7.615 0 10.001-15.23 7.615 7.615 0 00-.001 15.23zm76.156-88.847a7.616 7.616 0 100-15.233 7.616 7.616 0 000 15.233zm324.928 13.962a7.616 7.616 0 100-15.233 7.616 7.616 0 000 15.233zm-180.234 48.231a7.615 7.615 0 100-15.231 7.615 7.615 0 000 15.231zm133.271 73.617a7.616 7.616 0 100-15.233 7.616 7.616 0 000 15.233zM702.58 1085.97a7.617 7.617 0 007.616-7.62 7.616 7.616 0 10-15.231 0c0 4.21 3.409 7.62 7.615 7.62z"/><path opacity=".1" d="M548.479 967.038c.359-10.273 8.977-18.31 19.25-17.951l.284-8.137c-14.767-.516-27.155 11.037-27.671 25.804l8.137.284zm309.531-94.822c.359-10.273 8.977-18.309 19.25-17.951l.284-8.137c-14.766-.515-27.155 11.037-27.671 25.804l8.137.284zm-8.592 154.614c-9.928-2.66-15.821-12.87-13.16-22.79l-7.865-2.11c-3.824 14.27 4.646 28.94 18.918 32.76l2.107-7.86zm-126.926 165c-9.928-2.66-15.82-12.86-13.16-22.79l-7.864-2.11c-3.825 14.27 4.645 28.94 18.917 32.77l2.107-7.87z"/><path opacity=".3" d="M902.907 998.645c6.27-1.333 12.432 2.665 13.765 8.935l4.966-1.05c-1.916-9.014-10.774-14.767-19.786-12.851l1.055 4.966zm-310.558 22.335c-6.4-.34-11.317-5.8-10.982-12.2l-5.07-.27c-.482 9.2 6.586 17.05 15.787 17.54l.265-5.07zm66.13 106.31c-1.223-6.29 2.886-12.38 9.177-13.6l-.968-4.99c-9.045 1.76-14.951 10.52-13.193 19.56l4.984-.97z"/><path opacity=".1" d="M750.679 1042.48c6.878-7.64 18.646-8.26 26.284-1.38l5.448-6.05c-10.98-9.88-27.896-9-37.783 1.98l6.051 5.45z"/><path opacity=".3" d="M710.518 980.793c-1.223-6.292 2.886-12.384 9.177-13.607l-.968-4.984c-9.044 1.758-14.951 10.515-13.193 19.559l4.984-.968z"/><path opacity=".1" fill-rule="evenodd" clip-rule="evenodd" d="M865.045 1253.51a7.617 7.617 0 007.616-7.62c0-4.2-3.41-7.61-7.616-7.61a7.614 7.614 0 00-7.615 7.61c0 4.21 3.409 7.62 7.615 7.62z"/><path opacity=".3" d="M544.359 855.752c-6.401-.336-11.318-5.796-10.982-12.197l-5.07-.266c-.482 9.201 6.585 17.051 15.786 17.533l.266-5.07zm66.151 14.352c1.767-6.161 8.193-9.724 14.355-7.957l1.399-4.88c-8.856-2.54-18.095 2.581-20.634 11.437l4.88 1.4zm299.086 24.209c1.767-6.162 8.193-9.724 14.355-7.957l1.399-4.881c-8.857-2.539-18.095 2.582-20.634 11.438l4.88 1.4zm-140.659-45.401c-.335-6.401 4.582-11.862 10.983-12.197l-.266-5.07c-9.201.482-16.269 8.332-15.787 17.533l5.07-.266zM488.433 973.298c-.335-6.401 4.582-11.861 10.983-12.197l-.266-5.07c-9.201.482-16.269 8.332-15.787 17.533l5.07-.266zM626.64 1216.16c-6.27 1.33-12.432-2.67-13.765-8.94l-4.966 1.06c1.916 9.01 10.774 14.76 19.786 12.85l-1.055-4.97z"/><path opacity=".1" fill-rule="evenodd" clip-rule="evenodd" d="M793.967 1175.8a7.617 7.617 0 00-7.616 7.62c0 4.2 3.41 7.61 7.616 7.61 4.205 0 7.615-3.41 7.615-7.61 0-4.21-3.41-7.62-7.615-7.62zm120.578 120.58c-4.206 0-7.616 3.41-7.616 7.61a7.616 7.616 0 1015.231 0c0-4.2-3.409-7.61-7.615-7.61zm-238.619-44.42c-4.206 0-7.616 3.41-7.616 7.61 0 4.21 3.41 7.62 7.616 7.62a7.617 7.617 0 007.615-7.62c0-4.2-3.41-7.61-7.615-7.61zm-133.272-73.62a7.614 7.614 0 00-7.615 7.61 7.616 7.616 0 1015.231 0c0-4.2-3.41-7.61-7.616-7.61z"/><path opacity=".1" d="M901.335 1116.46c-.358 10.27-8.977 18.31-19.249 17.95l-.285 8.14c14.767.51 27.156-11.04 27.671-25.8l-8.137-.29zm-349.621 148.7c-.358 10.28-8.977 18.31-19.249 17.95l-.285 8.14c14.767.52 27.156-11.04 27.671-25.8l-8.137-.29zm8.524-153.85c9.929 2.66 15.821 12.87 13.16 22.8l7.865 2.1c3.824-14.27-4.646-28.94-18.918-32.76l-2.107 7.86z"/><path opacity=".3" d="M507.329 1138.74c-6.269 1.33-12.432-2.67-13.765-8.94l-4.966 1.05c1.916 9.01 10.775 14.77 19.787 12.85l-1.056-4.96zm310.318-22.11c6.401.33 11.317 5.79 10.982 12.19l5.07.27c.482-9.2-6.586-17.05-15.786-17.53l-.266 5.07zm-68.233 150.55c-1.767 6.16-8.194 9.73-14.355 7.96l-1.399 4.88c8.856 2.54 18.095-2.58 20.634-11.44l-4.88-1.4zm-248.774-24.11c-1.766 6.16-8.193 9.72-14.354 7.95l-1.4 4.88c8.857 2.54 18.095-2.58 20.635-11.43l-4.881-1.4zm421.165-78.99c.335 6.4-4.582 11.86-10.982 12.2l.265 5.07c9.201-.48 16.269-8.33 15.787-17.53l-5.07.26zm344.215-242.817c6.27-1.332 12.44 2.67 13.77 8.939l4.97-1.055c-1.92-9.013-10.78-14.765-19.79-12.85l1.05 4.966z"/><path opacity=".1" d="M1147.03 912.517c10.05-2.138 19.94 4.281 22.08 14.335l7.96-1.693c-3.07-14.453-17.28-23.678-31.73-20.606l1.69 7.964zm126.88 330.253c10.01-2.31 20.01 3.93 22.32 13.95l7.93-1.83c-3.32-14.4-17.69-23.38-32.08-20.05l1.83 7.93z"/><path opacity=".1" fill-rule="evenodd" clip-rule="evenodd" d="M1099.25 961.579a7.616 7.616 0 100-15.231 7.616 7.616 0 100 15.231zm-102.789-49.501a7.616 7.616 0 100-15.231 7.615 7.615 0 000 15.231zm76.159-88.847c4.2 0 7.61-3.41 7.61-7.616 0-4.205-3.41-7.615-7.61-7.615-4.21 0-7.62 3.41-7.62 7.615a7.617 7.617 0 007.62 7.616zm324.93 13.962c4.2 0 7.61-3.41 7.61-7.616a7.614 7.614 0 00-7.61-7.615 7.616 7.616 0 100 15.231zm-180.24 48.231a7.616 7.616 0 100-15.231c-4.21 0-7.61 3.41-7.61 7.616 0 4.206 3.4 7.615 7.61 7.615zm133.27 73.617a7.616 7.616 0 100-15.231c-4.2 0-7.61 3.409-7.61 7.615s3.41 7.616 7.61 7.616zm-165 126.929c4.21 0 7.62-3.41 7.62-7.62s-3.41-7.62-7.62-7.62-7.62 3.41-7.62 7.62 3.41 7.62 7.62 7.62z"/><path opacity=".1" d="M1031.48 967.038c.36-10.273 8.98-18.31 19.25-17.951l.28-8.137c-14.76-.516-27.15 11.037-27.67 25.804l8.14.284zm309.53-94.822c.36-10.273 8.98-18.309 19.25-17.951l.28-8.137c-14.76-.515-27.15 11.037-27.67 25.804l8.14.284zm-8.59 154.614c-9.93-2.66-15.82-12.87-13.16-22.79l-7.87-2.11c-3.82 14.27 4.65 28.94 18.92 32.76l2.11-7.86zm-126.93 165c-9.93-2.66-15.82-12.86-13.16-22.79l-7.86-2.11c-3.83 14.27 4.64 28.94 18.92 32.77l2.1-7.87z"/><path opacity=".3" d="M1385.91 998.645c6.27-1.333 12.43 2.665 13.76 8.935l4.97-1.05c-1.92-9.014-10.78-14.767-19.79-12.851l1.06 4.966zm-310.56 22.335c-6.4-.34-11.32-5.8-10.98-12.2l-5.07-.27c-.49 9.2 6.58 17.05 15.78 17.54l.27-5.07zm66.13 106.31c-1.22-6.29 2.88-12.38 9.18-13.6l-.97-4.99c-9.05 1.76-14.95 10.52-13.2 19.56l4.99-.97z"/><path opacity=".1" d="M1233.68 1042.48c6.88-7.64 18.64-8.26 26.28-1.38l5.45-6.05c-10.98-9.88-27.9-9-37.78 1.98l6.05 5.45z"/><path opacity=".3" d="M1193.52 980.793c-1.23-6.292 2.88-12.384 9.18-13.607l-.97-4.984c-9.05 1.758-14.95 10.515-13.2 19.559l4.99-.968z"/><path opacity=".1" fill-rule="evenodd" clip-rule="evenodd" d="M1348.05 1253.51c4.2 0 7.61-3.41 7.61-7.62 0-4.2-3.41-7.61-7.61-7.61-4.21 0-7.62 3.41-7.62 7.61 0 4.21 3.41 7.62 7.62 7.62z"/><path opacity=".3" d="M1027.36 855.752c-6.4-.336-11.32-5.796-10.98-12.197l-5.07-.266c-.49 9.201 6.58 17.051 15.78 17.533l.27-5.07zm66.15 14.352c1.77-6.161 8.19-9.724 14.35-7.957l1.4-4.88c-8.85-2.54-18.09 2.581-20.63 11.437l4.88 1.4zm299.09 24.209c1.76-6.162 8.19-9.724 14.35-7.957l1.4-4.881c-8.86-2.539-18.09 2.582-20.63 11.438l4.88 1.4zm-140.66-45.401c-.34-6.401 4.58-11.862 10.98-12.197l-.27-5.07c-9.2.482-16.26 8.332-15.78 17.533l5.07-.266zM971.433 973.298c-.335-6.401 4.582-11.861 10.983-12.197l-.266-5.07c-9.201.482-16.269 8.332-15.787 17.533l5.07-.266zm138.207 242.862c-6.27 1.33-12.43-2.67-13.77-8.94l-4.96 1.06c1.91 9.01 10.77 14.76 19.79 12.85l-1.06-4.97z"/><path opacity=".1" fill-rule="evenodd" clip-rule="evenodd" d="M1276.97 1175.8c-4.21 0-7.62 3.41-7.62 7.62 0 4.2 3.41 7.61 7.62 7.61 4.2 0 7.61-3.41 7.61-7.61 0-4.21-3.41-7.62-7.61-7.62zm120.57 120.58c-4.2 0-7.61 3.41-7.61 7.61 0 4.21 3.41 7.62 7.61 7.62 4.21 0 7.62-3.41 7.62-7.62 0-4.2-3.41-7.61-7.62-7.61zm-238.61-44.42c-4.21 0-7.62 3.41-7.62 7.61 0 4.21 3.41 7.62 7.62 7.62 4.2 0 7.61-3.41 7.61-7.62 0-4.2-3.41-7.61-7.61-7.61zm-133.28-73.62c-4.2 0-7.61 3.41-7.61 7.61 0 4.21 3.41 7.62 7.61 7.62 4.21 0 7.62-3.41 7.62-7.62 0-4.2-3.41-7.61-7.62-7.61z"/><path opacity=".1" d="M1384.34 1116.46c-.36 10.27-8.98 18.31-19.25 17.95l-.29 8.14c14.77.51 27.16-11.04 27.67-25.8l-8.13-.29zm-349.63 148.7c-.35 10.28-8.97 18.31-19.25 17.95l-.28 8.14c14.77.52 27.16-11.04 27.67-25.8l-8.14-.29zm8.53-153.85c9.93 2.66 15.82 12.87 13.16 22.8l7.86 2.1c3.83-14.27-4.64-28.94-18.91-32.76l-2.11 7.86z"/><path opacity=".3" d="M990.329 1138.74c-6.269 1.33-12.432-2.67-13.765-8.94l-4.966 1.05c1.916 9.01 10.775 14.77 19.787 12.85l-1.056-4.96zm310.321-22.11c6.4.33 11.31 5.79 10.98 12.19l5.07.27c.48-9.2-6.59-17.05-15.79-17.53l-.26 5.07zm-68.24 150.55c-1.76 6.16-8.19 9.73-14.35 7.96l-1.4 4.88c8.86 2.54 18.09-2.58 20.63-11.44l-4.88-1.4zm-248.77-24.11c-1.766 6.16-8.193 9.72-14.354 7.95l-1.4 4.88c8.857 2.54 18.095-2.58 20.635-11.43l-4.881-1.4zm421.16-78.99c.34 6.4-4.58 11.86-10.98 12.2l.27 5.07c9.2-.48 16.27-8.33 15.78-17.53l-5.07.26z"/></g><defs><clipPath id="clip0_92_1596"><path fill="#fff" d="M0 0h1440v1306H0z"/></clipPath></defs></svg>