<svg width="221" height="221" fill="none" xmlns="http://www.w3.org/2000/svg"><g opacity=".8" clip-path="url(#clip0_92_2079)"><path d="M200.992 99.465a19.694 19.694 0 00-10.8-23.005 19.689 19.689 0 00-26.789 24.412l-24.201 17.538-6.284-41.99a19.687 19.687 0 10-24.491-6.562L82.036 103.07l-12.19-27.288a19.687 19.687 0 10-20.25 3.31l-5.978 61.647a11.251 11.251 0 008.285 11.952l88.59 23.738a11.248 11.248 0 0013.15-6.209l25.633-56.352a19.69 19.69 0 0021.716-14.403zM126.771 50.46a8.44 8.44 0 016.181 7.049 8.437 8.437 0 11-6.181-7.049zM48.858 58.7a8.437 8.437 0 1116.3 4.368 8.437 8.437 0 01-16.3-4.367zm94.547 106.863l-88.59-23.738 5.737-59.23L75.55 116.08a5.62 5.62 0 004.418 3.317 5.62 5.62 0 005.115-2.08l32.165-40.444a18.971 18.971 0 004.564 1.223l7.634 51.108a5.617 5.617 0 004.109 4.602 5.622 5.622 0 004.764-.907l29.739-21.527-24.653 54.191zm36.386-63.044a8.433 8.433 0 01-6.181-7.048 8.436 8.436 0 1116.515 1.082 8.434 8.434 0 01-10.334 5.966z" fill="#FF3D9A"/></g><defs><clipPath id="clip0_92_2079"><path fill="#fff" transform="rotate(15 23.559 178.945)" d="M0 0h180v180H0z"/></clipPath></defs></svg>