<svg width="222" height="222" fill="none" xmlns="http://www.w3.org/2000/svg"><g id="question" opacity=".8"><g id="Vector"><path d="M121.275 123.267a3.75 3.75 0 00-1.946 4.327l2.087 7.791a5.624 5.624 0 11-10.866 2.912l-4.195-15.656a5.626 5.626 0 013.601-6.772c6.32-2.175 15.204-6.908 21.577-13.869 6.219-6.798 9.816-15.383 6.934-26.138-2.776-10.359-8.544-16.512-15.402-19.78-7.023-3.347-15.694-3.89-24.324-1.934-17.866 4.046-31.916 17.52-31.295 32.471a5.626 5.626 0 01-11.242.47c-.474-11.42 4.372-21.17 11.997-28.745C75.866 50.727 86.22 45.45 96.26 43.178c10.498-2.378 21.848-1.921 31.647 2.748 9.97 4.751 17.84 13.637 21.428 27.025 4.113 15.35-1.375 27.761-9.5 36.643-5.501 6.013-12.312 10.559-18.556 13.669m-5.615 48.604a11.247 11.247 0 017.955-13.778 11.249 11.249 0 11-7.955 13.778z" fill="#fff"/><path d="M121.275 123.267a3.75 3.75 0 00-1.946 4.327l2.087 7.791a5.624 5.624 0 11-10.866 2.912l-4.195-15.656a5.626 5.626 0 013.601-6.772c6.32-2.175 15.204-6.908 21.577-13.869 6.219-6.798 9.816-15.383 6.934-26.138-2.776-10.359-8.544-16.512-15.402-19.78-7.023-3.347-15.694-3.89-24.324-1.934-17.866 4.046-31.916 17.52-31.295 32.471a5.626 5.626 0 01-11.242.47c-.474-11.42 4.372-21.17 11.997-28.745C75.866 50.727 86.22 45.45 96.26 43.178c10.498-2.378 21.848-1.921 31.647 2.748 9.97 4.751 17.84 13.637 21.428 27.025 4.113 15.35-1.375 27.761-9.5 36.643-5.501 6.013-12.312 10.559-18.556 13.669m-5.615 48.604a11.247 11.247 0 017.955-13.778 11.249 11.249 0 11-7.955 13.778z" stroke="#fff" stroke-width="2" stroke-linecap="round" stroke-linejoin="round"/></g></g></svg>