<svg width="222" height="222" fill="none" xmlns="http://www.w3.org/2000/svg"><g opacity=".8"><path d="M121.277 123.268a3.748 3.748 0 00-1.946 4.326l2.087 7.791a5.622 5.622 0 01-3.977 6.889 5.624 5.624 0 01-6.889-3.977l-4.195-15.655a5.629 5.629 0 013.601-6.773c6.32-2.175 15.204-6.908 21.577-13.869 6.219-6.798 9.816-15.383 6.934-26.137-2.776-10.36-8.544-16.513-15.402-19.78-7.023-3.348-15.694-3.89-24.324-1.934-17.866 4.045-31.916 17.52-31.295 32.47a5.626 5.626 0 01-11.242.47c-.474-11.419 4.372-21.17 11.997-28.745 7.665-7.617 18.018-12.895 28.058-15.166 10.498-2.378 21.847-1.921 31.647 2.748 9.97 4.752 17.84 13.637 21.428 27.025 4.113 15.351-1.375 27.762-9.5 36.644-5.501 6.012-12.312 10.558-18.556 13.668m-5.615 48.604a11.247 11.247 0 0116.491-12.654 11.25 11.25 0 11-16.491 12.654z" fill="#00A7E5"/><path d="M121.277 123.268a3.748 3.748 0 00-1.946 4.326l2.087 7.791a5.622 5.622 0 01-3.977 6.889 5.624 5.624 0 01-6.889-3.977l-4.195-15.655a5.629 5.629 0 013.601-6.773c6.32-2.175 15.204-6.908 21.577-13.869 6.219-6.798 9.815-15.383 6.934-26.137-2.776-10.36-8.544-16.513-15.402-19.78-7.023-3.348-15.694-3.89-24.324-1.934-17.866 4.045-31.916 17.52-31.295 32.47a5.626 5.626 0 01-11.242.47c-.474-11.419 4.372-21.17 11.997-28.745 7.665-7.617 18.018-12.895 28.058-15.166 10.498-2.378 21.847-1.921 31.647 2.748 9.97 4.752 17.84 13.637 21.428 27.025 4.113 15.351-1.375 27.762-9.5 36.644-5.501 6.012-12.312 10.558-18.556 13.668m-5.615 48.604a11.247 11.247 0 0116.491-12.654 11.25 11.25 0 11-16.491 12.654z" stroke="#00A7E5" stroke-width="2" stroke-linecap="round" stroke-linejoin="round"/></g></svg>