<svg width="20" height="20" viewBox="0 0 20 20" fill="none" xmlns="http://www.w3.org/2000/svg">
<g id="Frame">
<path id="Fill 3.1" fill-rule="evenodd" clip-rule="evenodd" d="M16.1634 10.5981C16.1634 7.93379 18.4212 6.70715 18.4212 6.70715C18.4212 6.70715 16.9414 4.46484 14.627 4.46484C12.91 4.46484 11.9992 5.47069 10.8416 5.47069C9.46624 5.47069 8.75467 4.46484 7.04657 4.46484C5.1021 4.46484 2 6.21894 2 10.5981C2 14.8144 5.06405 19.999 7.43595 19.999C8.67857 19.999 9.22905 19.1846 10.8602 19.1846C12.7391 19.1846 12.8339 19.999 14.2473 19.999C16.7609 19.999 19 14.6803 19 14.6803C19 14.6803 16.1634 13.7603 16.1634 10.5981ZM14.232 0C12.4681 0.143926 9.96339 1.98389 10.305 4.71521C12.6292 4.80108 14.5736 2.14662 14.232 0Z" fill="#121212"/>
</g>
</svg>
