<svg width="40" height="40" viewBox="0 0 40 40" fill="none" xmlns="http://www.w3.org/2000/svg">
<g id="bi:arrow-down">
<path id="Vector" fill-rule="evenodd" clip-rule="evenodd" d="M19.9996 2.5C20.3311 2.5 20.6491 2.6317 20.8835 2.86612C21.1179 3.10054 21.2496 3.41848 21.2496 3.75V33.2325L29.1146 25.365C29.3493 25.1303 29.6677 24.9984 29.9996 24.9984C30.3316 24.9984 30.6499 25.1303 30.8846 25.365C31.1193 25.5997 31.2512 25.9181 31.2512 26.25C31.2512 26.5819 31.1193 26.9003 30.8846 27.135L20.8846 37.135C20.7685 37.2514 20.6306 37.3438 20.4787 37.4068C20.3268 37.4698 20.164 37.5022 19.9996 37.5022C19.8352 37.5022 19.6724 37.4698 19.5205 37.4068C19.3687 37.3438 19.2307 37.2514 19.1146 37.135L9.11463 27.135C8.87991 26.9003 8.74805 26.5819 8.74805 26.25C8.74805 25.9181 8.87991 25.5997 9.11463 25.365C9.34934 25.1303 9.66769 24.9984 9.99963 24.9984C10.3316 24.9984 10.6499 25.1303 10.8846 25.365L18.7496 33.2325V3.75C18.7496 3.41848 18.8813 3.10054 19.1157 2.86612C19.3502 2.6317 19.6681 2.5 19.9996 2.5Z" fill="#6D7885"/>
</g>
</svg>
