<svg width="125" height="143" viewBox="0 0 125 143" fill="none" xmlns="http://www.w3.org/2000/svg">
<path id="Vector" d="M88.4271 89.3498L103.697 83.493C106.731 82.3279 110.103 82.4156 113.072 83.7367L116.352 85.197C119.32 86.5189 121.643 88.966 122.807 92C123.972 95.034 123.884 98.4064 122.562 101.375L107.61 134.958C106.288 137.927 103.841 140.249 100.807 141.414C97.7728 142.579 94.4004 142.49 91.4315 141.168L88.1515 139.708C85.1832 138.386 82.8616 135.938 81.6975 132.904L75.8325 117.638C72.3158 120.981 67.886 123.205 63.1043 124.028C58.3226 124.852 53.4041 124.238 48.9716 122.264L15.3888 107.312C9.45099 104.668 4.80658 99.7741 2.47728 93.7061C0.147984 87.6381 0.324596 80.8933 2.96828 74.9555L7.95229 63.7612C10.596 57.8234 15.4902 53.179 21.5582 50.8497C27.6262 48.5204 34.371 48.697 40.3088 51.3407L73.8916 66.2927C78.3244 68.2659 82.0718 71.5103 84.6594 75.6148C87.247 79.7194 88.5582 84.4995 88.4271 89.3498ZM86.2437 27.3875C91.4829 25.2626 97.2487 24.7997 102.76 26.0616C108.271 27.3236 113.261 30.2492 117.053 34.4422C120.846 38.6351 123.258 43.8926 123.962 49.5023C124.666 55.1119 123.629 60.8025 120.991 65.8028C118.352 70.8032 114.24 74.8715 109.212 77.4566C104.184 80.0417 98.4831 81.0186 92.8812 80.2548C87.2794 79.491 82.0478 77.0235 77.8953 73.1866C73.7429 69.3498 70.8703 64.3291 69.667 58.805C63.8669 61.7281 57.2878 62.7321 50.8798 61.672C44.4718 60.6118 38.5666 57.5424 34.017 52.907C29.4674 48.2716 26.5088 42.3101 25.5686 35.8835C24.6283 29.4568 25.755 22.8976 28.786 17.1531C31.8169 11.4086 36.5953 6.77613 42.4309 3.92465C48.2666 1.07316 54.8576 0.150271 61.252 1.28925C67.6464 2.42822 73.5134 5.57012 78.0056 10.2612C82.4977 14.9523 85.3827 20.9497 86.2437 27.3875ZM48.398 48.2355C52.8513 50.2183 57.9099 50.3508 62.461 48.6038C67.012 46.8568 70.6826 43.3735 72.6654 38.9202C74.6482 34.4668 74.7806 29.4082 73.0336 24.8572C71.2867 20.3061 67.8034 16.6355 63.35 14.6527C58.8966 12.67 53.838 12.5375 49.287 14.2845C44.736 16.0315 41.0654 19.5148 39.0826 23.9681C37.0998 28.4215 36.9674 33.4801 38.7143 38.0311C40.4613 42.5821 43.9446 46.2528 48.398 48.2355ZM90.3765 66.9256C94.0876 68.5779 98.3031 68.6883 102.096 67.2324C105.888 65.7766 108.947 62.8739 110.599 59.1627C112.252 55.4516 112.362 51.2361 110.906 47.4436C109.45 43.6511 106.548 40.5922 102.837 38.9399C99.1254 37.2876 94.9099 37.1772 91.1173 38.633C87.3248 40.0888 84.266 42.9916 82.6137 46.7027C80.9614 50.4139 80.851 54.6294 82.3068 58.4219C83.7626 62.2144 86.6654 65.2733 90.3765 66.9256Z" fill="#7648C3"/>
</svg>
