<svg width="16" height="16" viewBox="0 0 16 16" fill="none" xmlns="http://www.w3.org/2000/svg">
<g id="Success" clip-path="url(#clip0_92_2094)">
<path id="Union" fill-rule="evenodd" clip-rule="evenodd" d="M2.1332 8.00012C2.1332 4.76004 4.7598 2.13345 7.99987 2.13345C11.2399 2.13345 13.8665 4.76004 13.8665 8.00012C13.8665 11.2402 11.2399 13.8668 7.99987 13.8668C4.7598 13.8668 2.1332 11.2402 2.1332 8.00012ZM7.99987 0.533447C3.87614 0.533447 0.533203 3.87639 0.533203 8.00012C0.533203 12.1238 3.87614 15.4668 7.99987 15.4668C12.1236 15.4668 15.4665 12.1238 15.4665 8.00012C15.4665 3.87639 12.1236 0.533447 7.99987 0.533447ZM11.5896 6.54069C11.8881 6.215 11.8661 5.70895 11.5405 5.41039C11.2148 5.11184 10.7087 5.13384 10.4101 5.45953L7.30807 8.84361L5.89889 7.43443C5.58647 7.12201 5.07994 7.12201 4.76752 7.43443C4.4551 7.74685 4.4551 8.25338 4.76752 8.5658L6.76752 10.5658C6.92181 10.7201 7.13243 10.8047 7.35058 10.7999C7.56873 10.7952 7.77548 10.7015 7.92293 10.5407L11.5896 6.54069Z" fill="#00BBC7"/>
</g>
<defs>
<clipPath id="clip0_92_2094">
<rect width="16" height="16" fill="white"/>
</clipPath>
</defs>
</svg>
