<svg width="32" height="32" viewBox="0 0 32 32" fill="none" xmlns="http://www.w3.org/2000/svg">
<path fill-rule="evenodd" clip-rule="evenodd" d="M8.11612 21.3221C7.62796 21.8102 7.62796 22.6017 8.11612 23.0898C8.60427 23.578 9.39573 23.578 9.88388 23.0898L15.6034 17.3703L21.3247 23.0916C21.8129 23.5798 22.6043 23.5798 23.0925 23.0916C23.5806 22.6035 23.5806 21.812 23.0925 21.3239L17.3712 15.6026L23.0898 9.88388C23.578 9.39573 23.578 8.60427 23.0898 8.11612C22.6017 7.62796 21.8102 7.62796 21.3221 8.11612L15.6034 13.8348L9.8865 8.1179C9.39834 7.62975 8.60688 7.62975 8.11873 8.1179C7.63057 8.60606 7.63057 9.39751 8.11873 9.88567L13.8356 15.6026L8.11612 21.3221Z" fill="#8897A5"/>
</svg>
