<svg width="222" height="222" viewBox="0 0 222 222" fill="none" xmlns="http://www.w3.org/2000/svg">
<g opacity="0.8" clip-path="url(#clip0_92_2143)">
<path d="M50.0269 74.9926C54.4592 58.7441 63.6045 47.9953 75.7751 44.7342L108.375 35.999C120.546 32.7379 133.84 37.4741 145.803 49.3295C156.982 60.405 165.854 76.648 170.768 94.9855C175.681 113.323 176.119 131.826 171.976 147.007C167.543 163.256 158.398 174.005 146.227 177.266L113.627 186.001C101.457 189.262 88.1623 184.526 76.1996 172.67C65.0209 161.595 56.1481 145.352 51.2346 127.014C46.3211 108.677 45.8836 90.1737 50.0269 74.9926ZM60.7881 118.631L82.5214 112.808C79.9584 101.544 79.2287 89.9416 80.3606 78.4461L59.5849 84.0129C57.8633 94.2139 58.144 106.237 60.7881 118.631ZM63.132 71.4156L82.6445 66.1873C83.859 61.6421 85.6178 57.2603 87.8828 53.1368L78.6869 55.6008C71.8952 57.4207 66.6029 63.2063 63.132 71.4156ZM159.901 97.8972C151.221 65.501 128.945 42.1342 111.287 46.8657C93.6285 51.5972 86.0207 82.9713 94.7013 115.367C103.382 147.764 125.657 171.131 143.316 166.399C160.974 161.667 168.582 130.293 159.901 97.8972ZM110.716 175.134L119.891 172.676C115.868 170.237 112.154 167.322 108.83 163.993L89.3171 169.221C96.448 174.59 103.924 176.954 110.716 175.134ZM79.9669 160.08L100.736 154.515C94.0078 145.125 88.8383 134.712 85.4263 123.676L63.693 129.5C67.6071 141.554 73.3754 152.106 79.9669 160.08Z" fill="url(#paint0_linear_92_2143)"/>
</g>
<defs>
<linearGradient id="paint0_linear_92_2143" x1="151.842" y1="24.3522" x2="154.403" y2="196.394" gradientUnits="userSpaceOnUse">
<stop stop-color="#3B46EE"/>
<stop offset="1" stop-color="#7F3DEA"/>
</linearGradient>
<clipPath id="clip0_92_2143">
<rect width="180" height="180" fill="white" transform="matrix(-0.965926 0.258819 0.258819 0.965926 174.641 0.772949)"/>
</clipPath>
</defs>
</svg>
