<svg width="138" height="121" viewBox="0 0 138 121" fill="none" xmlns="http://www.w3.org/2000/svg">
<path id="ecg" d="M13.3315 79.4254L1.37371 52.5676C0.151544 49.8226 0.0680481 47.0757 1.12322 44.3269C2.17839 41.5781 4.07849 39.5926 6.82351 38.3704L90.4272 1.14769C93.1722 -0.0744735 95.9191 -0.15797 98.6679 0.897201C101.417 1.95237 103.402 3.85246 104.624 6.59749L119.267 39.4851C117.956 39.5596 116.7 39.7474 115.498 40.0486C114.297 40.3498 113.107 40.7625 111.93 41.2867C109.847 42.2142 107.893 43.4095 106.069 44.8726C104.246 46.3357 102.587 47.9966 101.094 49.8552C99.7557 49.6997 98.4244 49.658 97.0999 49.7302C95.7754 49.8022 94.4578 49.9881 93.1471 50.2879L92.8865 49.7026C92.294 48.372 91.3158 47.4593 89.952 46.9646C88.588 46.47 87.2233 46.5267 85.8579 47.1346L72.9515 52.8809L54.5386 37.7376C53.8955 37.2308 53.1607 36.9631 52.3341 36.9346C51.5075 36.9062 50.718 37.0595 49.9656 37.3945C49.2133 37.7295 48.5798 38.2097 48.0652 38.8353C47.5507 39.4609 47.2666 40.1822 47.2129 40.9992L45.1836 85.1541L31.5588 74.0148C30.8754 73.4175 30.119 73.078 29.2897 72.9964C28.4603 72.915 27.6694 73.0418 26.9171 73.3767L13.3315 79.4254ZM43.1157 119.884C40.3707 121.106 37.6238 121.19 34.875 120.135C32.1262 119.079 30.1407 117.179 28.9185 114.434L16.9607 87.5765L27.9858 82.6678L46.3987 97.8111C47.0821 98.4084 47.8472 98.744 48.694 98.8178C49.5407 98.8915 50.3403 98.7609 51.0926 98.4259C51.845 98.0909 52.4684 97.588 52.9628 96.9172C53.4571 96.2463 53.7187 95.4745 53.7477 94.6018L55.7537 50.3946L69.3785 61.5339C70.0123 62.0197 70.6742 62.3344 71.3642 62.478C72.0543 62.6216 72.7724 62.594 73.5187 62.3953L77.9605 60.4176C74.6711 64.036 72.5858 68.4184 71.7048 73.5649C70.8239 78.7114 71.466 83.7161 73.6311 88.5792C75.0146 91.6864 76.5971 94.1393 78.3788 95.9381C80.1606 97.7369 82.5456 99.4236 85.5341 100.998L43.1157 119.884ZM92.7799 64.088C94.8422 63.1699 96.9699 62.7693 99.1632 62.8864C101.357 63.0034 103.6 63.6117 105.892 64.7114L108.013 65.3952L108.894 63.4373C109.631 60.9474 110.689 58.8483 112.07 57.14C113.45 55.4317 115.172 54.1185 117.234 53.2004C120.878 51.5781 124.563 51.4965 128.288 52.9555C132.014 54.4147 134.696 56.9835 136.334 60.6621C137.615 63.5394 137.752 66.8742 136.743 70.6663C135.735 74.4585 132.832 81.4091 128.033 91.518L125.739 96.5465C125.219 97.7796 124.333 98.6753 123.079 99.2336C121.825 99.792 120.566 99.8516 119.302 99.4126L114.03 97.7528C103.306 94.5549 96.198 92.0617 92.7053 90.2733C89.2127 88.485 86.8259 86.1522 85.5448 83.2748C83.907 79.5963 83.7925 75.8844 85.2012 72.1392C86.61 68.394 89.1363 65.7103 92.7799 64.088Z" fill="#FF3D9A"/>
</svg>
