<svg width="32" height="32" viewBox="0 0 32 32" fill="none" xmlns="http://www.w3.org/2000/svg">
<path d="M15.1639 28.4744C13.7365 28.2026 12.3323 27.7389 10.9511 27.0834C9.5699 26.4278 8.337 25.5159 7.2524 24.3475C6.16778 23.1791 5.29042 21.7364 4.62033 20.0193C3.95027 18.3022 3.61523 16.2531 3.61523 13.8719V13.6309C3.61523 13.354 3.70241 13.1283 3.87677 12.954C4.05112 12.7796 4.27676 12.6924 4.55367 12.6924H4.76907C5.79982 12.6924 6.93443 12.8754 8.1729 13.2412C9.41137 13.607 10.5144 14.0959 11.4819 14.7078C11.6579 13.1403 12.0699 11.5177 12.7177 9.83991C13.3656 8.16213 14.1665 6.65316 15.1203 5.31301C15.3528 4.9865 15.6459 4.82324 15.9998 4.82324C16.3536 4.82324 16.6468 4.9865 16.8792 5.31301C17.8331 6.65316 18.6339 8.16641 19.2818 9.85274C19.9296 11.5391 20.3416 13.166 20.5177 14.7335C21.4595 14.1472 22.5412 13.6668 23.7625 13.2924C24.9839 12.9181 26.1313 12.7181 27.2048 12.6924L27.3895 12.6796C27.6715 12.6711 27.9121 12.7664 28.1112 12.9655C28.3104 13.1646 28.4057 13.4052 28.3971 13.6873L28.3843 13.8975C28.3245 16.0565 28.0044 17.9539 27.4241 19.5898C26.8437 21.2257 26.0625 22.6321 25.0805 23.809C24.0985 24.9859 22.9425 25.947 21.6126 26.6923C20.2827 27.4376 18.8357 28.0103 17.2716 28.4103C16.9827 28.4804 16.6314 28.5197 16.2177 28.5282C15.8041 28.5368 15.4528 28.5188 15.1639 28.4744ZM16.1895 26.6001C15.9451 22.9334 14.8395 20.1501 12.8729 18.2501C10.9062 16.3501 8.50065 15.1779 5.6562 14.7334C5.61176 14.7334 5.61176 14.7334 5.6562 14.7334C5.90065 18.489 7.03953 21.3112 9.07287 23.2001C11.1062 25.089 13.4784 26.2223 16.1895 26.6001C16.234 26.6223 16.234 26.6279 16.1895 26.6167C16.1451 26.6056 16.1451 26.6001 16.1895 26.6001ZM13.3998 15.9334C13.8699 16.3283 14.3429 16.8083 14.819 17.3732C15.2951 17.9382 15.6887 18.4822 15.9998 19.0053C16.316 18.4822 16.7109 17.9382 17.1844 17.3732C17.6579 16.8083 18.1297 16.3283 18.5998 15.9334C18.5724 14.624 18.331 13.2505 17.8754 11.8129C17.4198 10.3753 16.7946 8.98813 15.9998 7.65138C15.2049 8.98813 14.5797 10.3732 14.1241 11.8065C13.6686 13.2399 13.4271 14.6155 13.3998 15.9334ZM17.0818 21.1898C17.3485 21.901 17.572 22.6488 17.7523 23.4334C17.9326 24.218 18.0784 25.0992 18.1895 26.077C19.1006 25.7676 20.0177 25.3313 20.9408 24.768C21.8639 24.2048 22.701 23.4723 23.4523 22.5706C24.2036 21.6689 24.8442 20.5766 25.3741 19.2936C25.904 18.0108 26.2271 16.4907 26.3433 14.7334C26.3433 14.689 26.3433 14.689 26.3433 14.7334C24.2203 15.0445 22.3442 15.771 20.7151 16.9129C19.0861 18.0548 17.875 19.4804 17.0818 21.1898Z" fill="#FF3D9A"/>
</svg>
