<svg width="32" height="32" viewBox="0 0 32 32" fill="none" xmlns="http://www.w3.org/2000/svg">
<g id="spa">
<path id="spa_2" d="M15.1639 28.4743C13.7365 28.2025 12.3323 27.7389 10.9511 27.0833C9.5699 26.4278 8.337 25.5158 7.2524 24.3474C6.16778 23.1791 5.29042 21.7363 4.62033 20.0192C3.95027 18.3022 3.61523 16.253 3.61523 13.8718V13.6308C3.61523 13.3539 3.70241 13.1283 3.87677 12.9539C4.05112 12.7796 4.27676 12.6924 4.55367 12.6924H4.76907C5.79982 12.6924 6.93443 12.8753 8.1729 13.2411C9.41137 13.6069 10.5144 14.0958 11.4819 14.7078C11.6579 13.1403 12.0699 11.5176 12.7177 9.83985C13.3656 8.16207 14.1665 6.6531 15.1203 5.31295C15.3528 4.98644 15.6459 4.82318 15.9998 4.82318C16.3536 4.82318 16.6468 4.98644 16.8792 5.31295C17.8331 6.6531 18.6339 8.16635 19.2818 9.85268C19.9296 11.539 20.3416 13.1659 20.5177 14.7334C21.4595 14.1471 22.5412 13.6668 23.7625 13.2924C24.9839 12.918 26.1313 12.718 27.2048 12.6924L27.3895 12.6795C27.6715 12.671 27.9121 12.7663 28.1112 12.9654C28.3104 13.1646 28.4057 13.4052 28.3971 13.6872L28.3843 13.8975C28.3245 16.0564 28.0044 17.9538 27.4241 19.5897C26.8437 21.2256 26.0625 22.632 25.0805 23.8089C24.0985 24.9858 22.9425 25.947 21.6126 26.6922C20.2827 27.4376 18.8357 28.0102 17.2716 28.4102C16.9827 28.4803 16.6314 28.5196 16.2177 28.5282C15.8041 28.5367 15.4528 28.5188 15.1639 28.4743ZM16.1895 26.6C15.9451 22.9333 14.8395 20.15 12.8729 18.25C10.9062 16.35 8.50065 15.1778 5.6562 14.7333C5.61176 14.7333 5.61176 14.7333 5.6562 14.7333C5.90065 18.4889 7.03953 21.3111 9.07287 23.2C11.1062 25.0889 13.4784 26.2222 16.1895 26.6C16.234 26.6222 16.234 26.6278 16.1895 26.6167C16.1451 26.6056 16.1451 26.6 16.1895 26.6ZM13.3998 15.9334C13.8699 16.3283 14.3429 16.8082 14.819 17.3731C15.2951 17.9381 15.6887 18.4821 15.9998 19.0052C16.316 18.4821 16.7109 17.9381 17.1844 17.3731C17.6579 16.8082 18.1297 16.3283 18.5998 15.9334C18.5724 14.624 18.331 13.2505 17.8754 11.8129C17.4198 10.3753 16.7946 8.98807 15.9998 7.65131C15.2049 8.98807 14.5797 10.3731 14.1241 11.8064C13.6686 13.2398 13.4271 14.6154 13.3998 15.9334ZM17.0818 21.1898C17.3485 21.9009 17.572 22.6487 17.7523 23.4333C17.9326 24.218 18.0784 25.0992 18.1895 26.0769C19.1006 25.7675 20.0177 25.3312 20.9408 24.7679C21.8639 24.2047 22.701 23.4722 23.4523 22.5705C24.2036 21.6688 24.8442 20.5765 25.3741 19.2936C25.904 18.0107 26.2271 16.4906 26.3433 14.7333C26.3433 14.6889 26.3433 14.6889 26.3433 14.7333C24.2203 15.0445 22.3442 15.771 20.7151 16.9128C19.0861 18.0547 17.875 19.4804 17.0818 21.1898Z" fill="#00BBC7"/>
</g>
</svg>
