<svg width="20" height="20" viewBox="0 0 20 20" fill="none" xmlns="http://www.w3.org/2000/svg">
<g id="Frame">
<path id="Vector" d="M4.41626 0L12.2979 8.10538L14.6282 5.70964C10.6128 3.46677 5.30235 0.499733 4.41626 0ZM2.14064 0.513096C2.05563 0.708644 2 0.923203 2 1.16122V18.0375C2 18.232 2.04438 18.4116 2.10939 18.5795L10.9111 9.53086L2.14064 0.513096ZM16.4253 6.71462L13.6848 9.53086L16.4038 12.3278C18.073 11.3945 19.2283 10.748 19.2283 10.748C19.7274 10.4488 20.0069 9.98821 19.9999 9.4865C19.9929 8.99763 19.7044 8.54663 19.2264 8.27899C19.1614 8.24244 18.0335 7.61236 16.4253 6.71462ZM12.2979 10.9583L4.47486 19C5.822 18.2435 10.7984 15.4602 14.6067 13.3309L12.2979 10.9583Z" fill="#121212"/>
</g>
</svg>
