<svg width="56" height="56" viewBox="0 0 56 56" fill="none" xmlns="http://www.w3.org/2000/svg">
<g id="logos:telegram" clip-path="url(#clip0_92_2421)">
<g id="Vector">
<path d="M28 0C20.5756 0 13.4487 2.95181 8.20312 8.20094C2.95209 13.4521 0.00145456 20.5738 0 28C0 35.4231 2.95312 42.5499 8.20312 47.7991C13.4487 53.0482 20.5756 56 28 56C35.4244 56 42.5513 53.0482 47.7969 47.7991C53.0469 42.5499 56 35.4231 56 28C56 20.5769 53.0469 13.4501 47.7969 8.20094C42.5513 2.95181 35.4244 0 28 0Z" fill="url(#paint0_radial_92_2421)"/>
<path d="M28 0C20.5756 0 13.4487 2.95181 8.20312 8.20094C2.95209 13.4521 0.00145456 20.5738 0 28C0 35.4231 2.95312 42.5499 8.20312 47.7991C13.4487 53.0482 20.5756 56 28 56C35.4244 56 42.5513 53.0482 47.7969 47.7991C53.0469 42.5499 56 35.4231 56 28C56 20.5769 53.0469 13.4501 47.7969 8.20094C42.5513 2.95181 35.4244 0 28 0Z" fill="url(#paint1_radial_92_2421)"/>
</g>
<g id="Group">
<path id="Vector_2" d="M28.0014 12.6873C23.8428 12.6873 23.3208 12.7055 21.6876 12.7797C20.0574 12.8545 18.9446 13.1125 17.9711 13.4912C16.9638 13.8822 16.1095 14.4055 15.2585 15.2568C14.4066 16.1081 13.8834 16.9624 13.4911 17.9691C13.1114 18.943 12.853 20.0562 12.7797 21.6856C12.7066 23.319 12.6875 23.8412 12.6875 27.9999C12.6875 32.1586 12.7059 32.6789 12.78 34.3122C12.855 35.9424 13.113 37.0551 13.4914 38.0287C13.8828 39.0359 14.406 39.8902 15.2574 40.7413C16.1083 41.5931 16.9626 42.1176 17.9691 42.5087C18.9434 42.8873 20.0563 43.1453 21.6862 43.2201C23.3196 43.2943 23.8411 43.3126 27.9995 43.3126C32.1586 43.3126 32.6789 43.2943 34.3121 43.2201C35.9423 43.1453 37.0563 42.8873 38.0306 42.5087C39.0374 42.1176 39.8905 41.5931 40.7412 40.7413C41.5931 39.8902 42.1161 39.0359 42.5086 38.0291C42.885 37.0551 43.1434 35.942 43.22 34.3125C43.2934 32.6793 43.3125 32.1586 43.3125 27.9999C43.3125 23.8412 43.2934 23.3193 43.22 21.686C43.1434 20.0558 42.885 18.9432 42.5086 17.9696C42.1161 16.9624 41.5931 16.1081 40.7412 15.2568C39.8895 14.4052 39.0377 13.8819 38.0297 13.4913C37.0535 13.1125 35.9401 12.8543 34.31 12.7797C32.6766 12.7055 32.1566 12.6873 27.9966 12.6873H28.0014ZM26.6277 15.4467C27.0355 15.4461 27.4904 15.4467 28.0014 15.4467C32.09 15.4467 32.5745 15.4614 34.189 15.5348C35.682 15.6031 36.4923 15.8525 37.0321 16.0621C37.7467 16.3396 38.2562 16.6714 38.7918 17.2075C39.3277 17.7434 39.6594 18.2538 39.9376 18.9684C40.1473 19.5074 40.397 20.3178 40.465 21.8108C40.5383 23.425 40.5543 23.9098 40.5543 27.9964C40.5543 32.083 40.5383 32.5679 40.465 34.182C40.3967 35.675 40.1473 36.4853 39.9376 37.0245C39.6602 37.7391 39.3277 38.248 38.7918 38.7836C38.2559 39.3195 37.747 39.6512 37.0321 39.9288C36.4929 40.1394 35.682 40.3882 34.189 40.4565C32.5748 40.5298 32.09 40.5457 28.0014 40.5457C23.9126 40.5457 23.428 40.5298 21.8139 40.4565C20.3209 40.3876 19.5106 40.1381 18.9704 39.9285C18.2559 39.6509 17.7454 39.3192 17.2094 38.7833C16.6735 38.2473 16.3418 37.7382 16.0636 37.0233C15.854 36.4841 15.6042 35.6738 15.5362 34.1808C15.4629 32.5666 15.4482 32.0818 15.4482 27.9926C15.4482 23.9035 15.4629 23.4212 15.5362 21.8069C15.6045 20.314 15.854 19.5036 16.0636 18.9638C16.3412 18.2492 16.6735 17.7389 17.2096 17.2029C17.7455 16.667 18.2559 16.3352 18.9705 16.0571C19.5103 15.8465 20.3209 15.5977 21.8139 15.5291C23.2265 15.4652 23.7739 15.4461 26.6277 15.4429V15.4467ZM36.1752 17.9892C35.1607 17.9892 34.3377 18.8115 34.3377 19.8261C34.3377 20.8406 35.1607 21.6636 36.1752 21.6636C37.1896 21.6636 38.0127 20.8406 38.0127 19.8261C38.0127 18.8116 37.1896 17.9886 36.1752 17.9886V17.9892ZM28.0014 20.1362C23.6588 20.1362 20.1378 23.6571 20.1378 27.9999C20.1378 32.3427 23.6588 35.862 28.0014 35.862C32.3442 35.862 35.8639 32.3427 35.8639 27.9999C35.8639 23.6573 32.3439 20.1362 28.0011 20.1362H28.0014ZM28.0014 22.8956C30.8203 22.8956 33.1056 25.1807 33.1056 27.9999C33.1056 30.8188 30.8203 33.1042 28.0014 33.1042C25.1823 33.1042 22.8973 30.8188 22.8973 27.9999C22.8973 25.1807 25.1823 22.8956 28.0014 22.8956Z" fill="white"/>
</g>
</g>
<defs>
<radialGradient id="paint0_radial_92_2421" cx="0" cy="0" r="1" gradientUnits="userSpaceOnUse" gradientTransform="translate(14.875 60.3131) rotate(-90) scale(55.5002 51.6195)">
<stop stop-color="#FFDD55"/>
<stop offset="0.1" stop-color="#FFDD55"/>
<stop offset="0.5" stop-color="#FF543E"/>
<stop offset="1" stop-color="#C837AB"/>
</radialGradient>
<radialGradient id="paint1_radial_92_2421" cx="0" cy="0" r="1" gradientUnits="userSpaceOnUse" gradientTransform="translate(-9.38022 4.03397) rotate(78.681) scale(24.8089 102.263)">
<stop stop-color="#3771C8"/>
<stop offset="0.128" stop-color="#3771C8"/>
<stop offset="1" stop-color="#6600FF" stop-opacity="0"/>
</radialGradient>
<clipPath id="clip0_92_2421">
<rect width="56" height="56" fill="white"/>
</clipPath>
</defs>
</svg>
