<svg width="56" height="56" viewBox="0 0 56 56" fill="none" xmlns="http://www.w3.org/2000/svg">
<g id="pdf-file-svgrepo-com 1" clip-path="url(#clip0_244_2104)">
<g id="Group">
<path id="Vector" d="M16.496 36.0286C16.496 35.0986 15.8507 34.5439 14.7121 34.5439C14.2472 34.5439 13.9323 34.5898 13.7676 34.6337V37.6176C13.9626 37.6615 14.2023 37.6761 14.5328 37.6761C15.7464 37.6761 16.496 37.063 16.496 36.0286Z" fill="#FF5939"/>
<path id="Vector_2" d="M23.5446 34.5752C23.0347 34.5752 22.7052 34.6192 22.5103 34.6649V41.2733C22.7053 41.319 23.0201 41.319 23.3048 41.319C25.3733 41.3337 26.7224 40.1951 26.7224 37.7824C26.737 35.6844 25.5077 34.5752 23.5446 34.5752Z" fill="#FF5939"/>
<path id="Vector_3" d="M36.64 0H14.1481C10.8623 0 8.18797 2.67618 8.18797 5.96018V27.9999H7.60583C6.27964 27.9999 5.2041 29.0744 5.2041 30.4017V44.9673C5.2041 46.2945 6.27952 47.3689 7.60583 47.3689H8.18797V50.0397C8.18797 53.3273 10.8623 55.9999 14.1481 55.9999H44.8373C48.1211 55.9999 50.7958 53.3272 50.7958 50.0397V14.1062L36.64 0ZM11.5048 33.0303C12.2087 32.9114 13.198 32.8217 14.5919 32.8217C16.0006 32.8217 17.0046 33.0906 17.6792 33.6307C18.3236 34.1396 18.7584 34.9797 18.7584 35.9684C18.7584 36.9568 18.4289 37.7972 17.8294 38.3664C17.0495 39.1005 15.8963 39.43 14.5472 39.43C14.247 39.43 13.9779 39.4151 13.7674 39.386V42.9977H11.5048V33.0303ZM44.8373 52.3498H14.1481C12.8758 52.3498 11.8398 51.3137 11.8398 50.0397V47.3689H40.4484C41.7748 47.3689 42.8503 46.2945 42.8503 44.9673V30.4017C42.8503 29.0744 41.7748 27.9999 40.4484 27.9999H11.8398V5.96018C11.8398 4.68974 12.876 3.65369 14.1481 3.65369L35.2745 3.63163V11.4407C35.2745 13.7216 37.1252 15.574 39.4078 15.574L47.0576 15.5521L47.1437 50.0396C47.1437 51.3137 46.1095 52.3498 44.8373 52.3498ZM20.2174 42.952V33.0303C21.0566 32.8967 22.1503 32.8217 23.3046 32.8217C25.2229 32.8217 26.4669 33.1658 27.4416 33.8998C28.4906 34.6796 29.1495 35.9226 29.1495 37.7073C29.1495 39.6403 28.4456 40.9749 27.4708 41.7985C26.4072 42.6826 24.7882 43.1019 22.8103 43.1019C21.6258 43.1019 20.7866 43.0269 20.2174 42.952ZM36.5743 37.0777V38.9356H32.9469V42.9977H30.6542V32.8967H36.8286V34.7693H32.9469V37.0777H36.5743Z" fill="#FF5939"/>
</g>
</g>
<defs>
<clipPath id="clip0_244_2104">
<rect width="56" height="56" fill="white"/>
</clipPath>
</defs>
</svg>
