<svg width="56" height="56" viewBox="0 0 56 56" fill="none" xmlns="http://www.w3.org/2000/svg">
<path d="M0 28C0 12.536 12.536 0 28 0C43.464 0 56 12.536 56 28C56 43.464 43.464 56 28 56C12.536 56 0 43.464 0 28Z" fill="#FF3D9A"/>
<path d="M36.6248 25.5735C37.065 25.8077 37.4333 26.1572 37.6901 26.5846C37.9469 27.012 38.0826 27.5013 38.0826 28C38.0826 28.4986 37.9469 28.9879 37.6901 29.4153C37.4333 29.8427 37.065 30.1922 36.6248 30.4264L24.8804 36.8128C22.9893 37.8422 20.6665 36.5039 20.6665 34.3873V21.6135C20.6665 19.496 22.9893 18.1586 24.8804 19.1862L36.6248 25.5735Z" fill="white"/>
</svg>
