<svg width="32" height="32" viewBox="0 0 32 32" fill="none" xmlns="http://www.w3.org/2000/svg">
<g id="plus">
<path id="add" d="M15.9993 25.3332C15.6216 25.3332 15.3049 25.2054 15.0493 24.9498C14.7938 24.6943 14.666 24.3776 14.666 23.9998V17.3332H7.99935C7.62157 17.3332 7.3049 17.2054 7.04935 16.9498C6.79379 16.6943 6.66602 16.3776 6.66602 15.9998C6.66602 15.6221 6.79379 15.3054 7.04935 15.0498C7.3049 14.7943 7.62157 14.6665 7.99935 14.6665H14.666V7.99984C14.666 7.62206 14.7938 7.30539 15.0493 7.04984C15.3049 6.79428 15.6216 6.6665 15.9993 6.6665C16.3771 6.6665 16.6938 6.79428 16.9493 7.04984C17.2049 7.30539 17.3327 7.62206 17.3327 7.99984V14.6665H23.9993C24.3771 14.6665 24.6938 14.7943 24.9494 15.0498C25.2049 15.3054 25.3327 15.6221 25.3327 15.9998C25.3327 16.3776 25.2049 16.6943 24.9494 16.9498C24.6938 17.2054 24.3771 17.3332 23.9993 17.3332H17.3327V23.9998C17.3327 24.3776 17.2049 24.6943 16.9493 24.9498C16.6938 25.2054 16.3771 25.3332 15.9993 25.3332Z" fill="#FF3D9A"/>
</g>
</svg>
