<svg width="56" height="56" viewBox="0 0 56 56" fill="none" xmlns="http://www.w3.org/2000/svg">
<g id="logos:telegram" clip-path="url(#clip0_92_2427)">
<path id="Vector" d="M28 0C20.5756 0 13.4487 2.95181 8.20312 8.20094C2.95209 13.4521 0.00145456 20.5738 0 28C0 35.4231 2.95312 42.5499 8.20312 47.7991C13.4487 53.0482 20.5756 56 28 56C35.4244 56 42.5513 53.0482 47.7969 47.7991C53.0469 42.5499 56 35.4231 56 28C56 20.5769 53.0469 13.4501 47.7969 8.20094C42.5513 2.95181 35.4244 0 28 0Z" fill="url(#paint0_linear_92_2427)"/>
<path id="Vector_2" d="M12.674 27.7039C20.8377 24.1479 26.2802 21.8033 29.0015 20.6706C36.7802 17.4362 38.3946 16.8744 39.449 16.8554C39.6808 16.8517 40.1971 16.909 40.534 17.1813C40.814 17.411 40.8927 17.7216 40.9321 17.9397C40.9671 18.1576 41.0152 18.6542 40.9759 19.0418C40.5559 23.4693 38.7315 34.2134 37.804 39.1725C37.4146 41.2707 36.6402 41.9742 35.8921 42.0429C34.2646 42.1925 33.0309 40.9684 31.4559 39.9364C28.9927 38.3207 27.6015 37.3153 25.2084 35.739C22.4434 33.9172 24.2371 32.9158 25.8121 31.2795C26.2234 30.8512 33.3896 24.3347 33.5252 23.7436C33.5427 23.6697 33.5602 23.394 33.394 23.2488C33.2321 23.1031 32.9915 23.153 32.8165 23.1924C32.5671 23.2484 28.634 25.8506 21.004 30.9987C19.8884 31.766 18.8777 32.1401 17.9677 32.1204C16.9702 32.099 15.0452 31.5552 13.6146 31.0905C11.8646 30.5205 10.469 30.219 10.5915 29.2509C10.6527 28.7469 11.3484 28.231 12.674 27.7039Z" fill="white"/>
</g>
<defs>
<linearGradient id="paint0_linear_92_2427" x1="2800" y1="0" x2="2800" y2="5600" gradientUnits="userSpaceOnUse">
<stop stop-color="#2AABEE"/>
<stop offset="1" stop-color="#229ED9"/>
</linearGradient>
<clipPath id="clip0_92_2427">
<rect width="56" height="56" fill="white"/>
</clipPath>
</defs>
</svg>
