<svg width="56" height="56" viewBox="0 0 56 56" fill="none" xmlns="http://www.w3.org/2000/svg">
<g id="logos:tiktok-icon">
<path id="Vector" d="M40.6359 20.164C44.2427 22.741 48.6613 24.2572 53.4335 24.2572V15.079C52.5303 15.0792 51.6295 14.985 50.7459 14.7979V22.0225C45.9741 22.0225 41.5561 20.5064 37.9485 17.9296V36.6599C37.9485 46.0299 30.3487 53.625 20.9747 53.625C17.477 53.625 14.2259 52.5681 11.5254 50.7555C14.6077 53.9056 18.9062 55.8596 23.6616 55.8596C33.0363 55.8596 40.6363 48.2644 40.6363 38.8941V20.164H40.6359ZM43.9515 10.9043C42.1081 8.89162 40.8978 6.29051 40.6359 3.41482V2.23438H38.0891C38.7302 5.88924 40.9171 9.01173 43.9515 10.9043ZM17.4544 43.5655C16.4246 42.216 15.8679 40.5648 15.8704 38.8673C15.8704 34.5819 19.3465 31.1072 23.6351 31.1072C24.4342 31.1068 25.2286 31.2294 25.9904 31.4708V22.0873C25.1002 21.9655 24.2019 21.9135 23.3039 21.9327V29.2362C22.5418 28.9947 21.747 28.8721 20.9475 28.8728C16.659 28.8728 13.1832 32.3471 13.1832 36.6331C13.1832 39.6636 14.9205 42.2873 17.4544 43.5655Z" fill="#FF004F"/>
<path id="Vector_2" d="M37.9482 17.9294C41.556 20.5062 45.9736 22.0223 50.7456 22.0223V14.7977C48.0819 14.2305 45.7239 12.8394 43.9511 10.9043C40.9164 9.01153 38.7299 5.88905 38.0888 2.23438H31.3991V38.8937C31.3839 43.1675 27.9138 46.6279 23.6345 46.6279C21.1129 46.6279 18.8725 45.4266 17.4538 43.5653C14.9203 42.2873 13.1827 39.6634 13.1827 36.6332C13.1827 32.3477 16.6586 28.873 20.947 28.873C21.7687 28.873 22.5606 29.0008 23.3035 29.2364V21.9329C14.094 22.1231 6.6875 29.6441 6.6875 38.8939C6.6875 43.5114 8.53183 47.6973 11.5253 50.7559C14.2259 52.5681 17.4768 53.6254 20.9746 53.6254C30.3489 53.6254 37.9484 46.0297 37.9484 36.6599L37.9482 17.9294Z" fill="black"/>
<path id="Vector_3" d="M50.7455 14.7975V12.8445C48.3435 12.8481 45.9889 12.1758 43.951 10.9044C45.755 12.8783 48.1304 14.2395 50.7455 14.7979M38.0886 2.23421C38.0274 1.885 37.9805 1.53346 37.948 1.18044V0H28.7111V36.6597C28.6964 40.9331 25.2263 44.3935 20.9468 44.3935C19.7335 44.3953 18.5369 44.1117 17.4535 43.5657C18.8722 45.4266 21.1126 46.6277 23.6342 46.6277C27.9134 46.6277 31.3838 43.1677 31.3989 38.8939V2.2344L38.0886 2.23421ZM23.3038 21.9327V19.8532C22.5319 19.7477 21.7538 19.6949 20.9748 19.6952C11.5996 19.6952 4 27.2907 4 36.6597C4 42.5337 6.98673 47.7105 11.5254 50.7555C8.53194 47.6971 6.68761 43.511 6.68761 38.8937C6.68761 29.6441 14.0939 22.1229 23.3038 21.9327Z" fill="#00F2EA"/>
</g>
</svg>
